<svg width="462" height="267" viewBox="0 0 462 267" fill="none" xmlns="http://www.w3.org/2000/svg">
<path d="M5.57584 3.33648C5.67997 3.30527 5.64381 3.22055 5.5585 3.17714C5.53239 3.16301 5.41205 3.10747 5.3876 3.09739C5.33927 3.0792 5.3967 3.11 5.3368 3.09456C5.31614 3.0897 5.1226 3.00832 5.10504 3.00594C5.00912 2.99641 5.04861 3.0451 4.99525 3.06725C4.72604 3.192 4.59762 3.48612 4.49041 3.79417C4.45457 3.89565 4.2629 4.02906 4.34917 4.14345C4.35941 4.15668 4.5434 4.14395 4.55865 4.1461C4.79207 4.17767 4.41991 4.17539 4.37137 4.20315C4.17982 4.3136 4.17059 4.43898 4.25039 4.53457C4.28494 4.57561 4.6455 4.49917 4.44488 4.56085C4.43134 4.56521 4.23549 4.57224 4.21585 4.58632C4.17167 4.61841 4.21178 4.66655 4.19875 4.6896C4.17261 4.73409 4.17546 4.74143 4.17792 4.78037C4.17957 4.83336 4.09197 4.9119 4.14434 4.96299C4.15609 4.97372 4.35213 4.92843 4.38872 4.94238C4.4252 4.95627 4.41621 5.00888 4.37239 5.03372C4.32849 5.0585 4.17175 5.07675 4.13659 5.08568C3.83993 5.16174 4.26694 5.15211 4.27847 5.15693C4.47823 5.26341 4.26622 5.42639 4.29773 5.55993C4.3218 5.65936 4.42572 5.7459 4.4406 5.84142C4.4441 5.86488 4.44374 5.88876 4.44139 5.91287C4.39119 5.86111 4.29311 5.81072 4.23494 5.73571C4.22625 5.72511 4.4016 5.56616 4.38689 5.54901C4.20627 5.35561 4.05451 5.39574 4.08658 5.55418C4.08946 5.5705 4.07413 5.77708 4.07877 5.80585C4.0941 5.9811 4.31055 6.37222 4.20625 5.4741C4.24671 5.50355 4.30153 5.52961 4.3878 5.69541C4.44462 5.80172 4.47171 6.02766 4.48634 5.9244C4.48945 5.90137 4.42786 5.71337 4.43525 5.69355C4.46485 5.61073 4.53948 5.65482 4.55648 5.54101C4.55957 5.51749 4.49866 5.35126 4.4908 5.32025C4.42518 5.06985 4.60634 5.45773 4.6281 5.48257C4.7781 5.6727 4.79895 5.56518 4.86334 5.54194C4.87852 5.53651 4.76223 5.32832 4.77245 5.31568C4.82613 5.25325 4.90085 5.23796 5.01683 5.29365C5.0432 5.30634 5.1296 5.49016 5.14768 5.50503C5.22834 5.56702 5.04128 5.23323 5.11137 5.28747C5.12615 5.2983 5.21297 5.44842 5.224 5.464C5.39944 5.70712 5.19266 5.33683 5.19098 5.32682C5.1741 5.18616 5.45725 5.52826 5.47675 5.43613C5.47801 5.42529 5.334 5.25906 5.34436 5.24018C5.35054 5.22849 5.35698 5.21776 5.36366 5.20799C5.43476 5.10762 5.557 5.08013 5.75814 5.08825C5.79244 5.08921 5.90977 5.20585 5.92608 5.21802C6.18752 5.4 5.86785 5.1186 5.85865 5.10441C5.79918 4.99417 6.12533 5.14993 5.72313 4.83965C5.85189 4.80426 5.8763 4.6975 5.9137 4.61654C5.95218 4.53037 6.00945 4.47951 6.24246 4.39847C6.24786 4.39608 6.45664 4.41389 6.46657 4.40827C6.58742 4.33727 6.26008 4.33319 5.86181 4.32797C5.76214 4.33306 6.23991 4.27737 6.27414 4.2663C6.40218 4.24244 6.71321 4.22032 6.73779 4.21372C6.92853 4.14431 5.90714 4.28473 5.90536 4.27704C5.90691 4.27599 6.09385 4.24368 6.11203 4.2383C6.16885 4.22012 6.09373 4.22911 6.15595 4.20835C6.30063 4.16336 6.77849 4.00955 6.48664 4.05359C6.44949 4.06183 5.89465 4.24541 5.91814 4.22952C5.92387 4.22458 5.92002 4.21789 5.92361 4.20928C5.92607 4.20436 5.93108 4.19783 5.94285 4.18907C5.97326 4.1659 6.13915 4.07662 6.14638 4.07282C6.34395 3.91727 6.4386 3.87418 6.72878 3.64391C7.00837 3.40145 6.29413 3.90986 6.21043 3.9608C6.12789 4.0127 6.27348 3.865 6.32017 3.80961C6.36856 3.75605 6.4689 3.68943 6.49325 3.65553C6.64261 3.42466 6.14867 3.92229 6.03682 4.00576C5.78619 4.21977 6.22692 3.74166 6.22594 3.65703C6.22787 3.6363 6.14075 3.7563 6.12486 3.76118C6.06666 3.78204 6.16403 3.60188 6.02433 3.73226C5.99836 3.75146 5.77496 4.07228 5.90533 3.8167C5.92316 3.77928 6.012 3.64347 6.01507 3.60353C6.02015 3.54367 5.99004 3.48862 5.94133 3.52618C5.90619 3.5543 5.81755 3.80691 5.83095 3.72225C5.83601 3.68414 5.91689 3.54894 5.91879 3.48832C5.92018 3.42719 5.86035 3.41204 5.83732 3.41048C5.81402 3.40865 5.76414 3.60531 5.75803 3.61765C5.72437 3.68874 5.66695 3.77366 5.66495 3.77299C5.54896 3.7639 5.40751 3.41238 5.26213 3.55304C5.25273 3.56365 5.30243 3.77139 5.30143 3.77517C5.29259 3.86861 5.19722 3.30822 5.1156 3.13244C5.22456 3.55176 5.18775 3.47969 5.17414 3.53346C5.16827 3.55961 5.22606 3.71729 5.22991 3.73407C5.29733 3.9799 5.18491 3.6709 5.15571 3.60989C5.05527 3.38309 5.14974 3.66046 5.07837 3.51107C5.00226 3.36511 4.93363 3.12912 4.89606 3.14929C4.953 3.29376 5.13793 3.65469 5.15098 3.721C5.15247 3.72756 5.15383 3.73375 5.15505 3.7396C5.22081 3.94087 4.98146 3.74467 4.89935 3.78227C4.8302 3.80686 4.8379 3.84359 4.76796 3.84132C4.63984 3.842 4.89733 4.00054 4.98684 4.11206C5.07832 4.22205 4.47444 3.79492 4.3384 3.71219C4.20115 3.63154 4.33231 3.72984 4.2532 3.69123C4.17363 3.6534 4.09686 3.57299 4.05396 3.57898C4.00976 3.58665 4.21204 3.79848 4.35246 3.88812C4.64762 4.08126 4.97966 4.2452 4.84177 4.22469C4.8335 4.22366 4.66925 4.11896 4.64604 4.12011C4.4664 4.13404 4.40779 4.23141 4.24199 4.27763C4.21881 4.2841 4.02697 4.18307 4.01112 4.18614C3.84492 4.22001 4.19293 4.33533 4.54701 4.53811C4.05467 4.31779 3.73914 4.21579 3.70691 4.28664C3.68785 4.32827 3.90946 4.40866 4.05347 4.49588C4.09694 4.52201 3.93515 4.49167 4.03637 4.53707C4.36757 4.68471 4.75554 4.80484 4.58021 4.81158C4.57195 4.81174 4.3901 4.73224 4.37507 4.73802C4.27675 4.77617 4.62901 4.91569 4.64708 5.00041C4.66143 5.0664 4.40865 5.08928 4.35063 5.14288C3.77759 4.94455 3.88716 5.0533 4.27466 5.21256C4.24399 5.24978 4.25077 5.3038 4.18201 5.32718C4.15852 5.33531 3.99518 5.27017 3.97659 5.26597C3.68501 5.19958 4.06448 5.34742 4.0765 5.36179C4.10163 5.39525 4.10539 5.42059 4.09878 5.4419C4.07587 5.51584 3.92572 5.54107 4.12685 5.68269C4.13612 5.68943 4.53672 5.81948 4.23587 5.75144C4.21505 5.74705 4.04111 5.66058 4.01389 5.69886C3.98717 5.73504 3.7455 5.75882 3.92082 5.86458C3.96259 5.89158 4.28931 5.99582 4.02304 5.96452C3.9868 5.96065 3.8693 5.93227 3.80234 5.9242C3.58846 5.90123 4.00496 5.98949 3.64533 5.94592C3.28591 5.90118 3.0058 5.93178 3.24585 6.03966C3.25276 6.04359 3.58701 6.09216 3.58034 6.11043C3.5691 6.14127 3.4971 6.18624 3.49975 6.22257C3.50114 6.2396 3.71051 6.22539 3.71438 6.2282C3.8345 6.3159 3.65376 6.3877 3.60792 6.52765C3.60108 6.55871 3.88497 6.50757 3.69049 6.62637C3.48369 6.76764 2.51474 7.13375 2.82438 7.20202C2.96077 7.24597 4.08716 6.58868 3.57511 7.03357C3.80154 7.06192 3.66881 7.4171 3.95689 7.34799C3.97041 7.34551 4.2188 7.07833 4.22613 7.0906C4.23758 7.11022 4.14204 7.25164 4.14893 7.27121C4.17763 7.35819 4.3123 7.27532 4.35645 7.33232C4.37262 7.353 4.26778 7.49474 4.28919 7.52052C4.31153 7.54655 4.45266 7.36173 4.43034 7.47952C4.41146 7.56809 4.1965 7.99177 4.21222 8.06483C4.44862 7.66168 4.47197 7.68658 4.5776 7.60424C4.59779 7.58808 4.66777 7.44088 4.68131 7.42586C4.73763 7.36125 4.68763 7.48758 4.74671 7.4158C4.7609 7.39856 4.83695 7.25826 4.85267 7.23614C4.98794 7.04215 4.86187 7.38132 4.84205 7.4414C4.76142 7.66692 4.86971 7.48908 4.8497 7.58364C4.83064 7.6786 4.74395 7.76591 4.74591 7.83028C4.75182 7.96432 4.83893 7.97728 4.89472 8.01085C4.91779 8.02354 4.98996 7.82229 4.99533 7.81961C5.06503 7.79208 5.02477 8.02194 5.21927 7.64378C4.81588 8.66471 5.2895 7.55843 5.27039 7.78875C5.26875 7.80732 5.076 8.28914 5.02404 8.34992C4.97187 8.41053 5.00222 8.24718 4.92507 8.34313C4.90737 8.36586 4.67025 8.79279 4.65192 8.81686C4.50878 9.00518 4.82008 8.29486 4.83551 8.25514C4.99851 7.82456 4.73237 8.27861 4.70255 8.30459C4.57249 8.42689 4.56276 8.30104 4.45845 8.38123C4.39022 8.43261 4.15655 8.88355 4.13446 8.85478C4.05464 8.75555 4.36619 8.11859 3.97883 8.6057C3.89456 8.70844 3.63804 9.20161 3.78061 8.77969C3.78851 8.75249 3.94072 8.37868 3.78044 8.57664C3.76007 8.60151 3.67581 8.73962 3.66351 8.74802C3.58087 8.80043 3.62393 8.67534 3.55145 8.70214C3.47817 8.72836 3.3806 8.77416 3.36212 8.6947C3.35122 8.64734 3.49066 8.37657 3.5222 8.30829C3.61398 8.11244 3.36819 8.36376 3.50141 8.14149C3.63933 7.92113 3.9137 7.63675 3.9714 7.46982C3.71014 7.79908 3.43865 8.1344 3.17246 8.46278C3.04294 8.34114 2.99712 8.11843 2.85112 7.98752C2.83198 7.9707 2.68332 8.14298 2.65745 8.12757C2.54839 8.06031 2.60234 7.8725 2.47412 7.8035C2.37168 7.7471 2.10186 7.77003 1.98256 7.67715C2.36728 7.38008 2.14716 7.30111 2.13929 7.151C2.13724 7.10126 2.25959 7.06143 2.28917 7.01853C2.4006 6.86022 2.01193 7.038 1.93716 7.02267C1.61692 6.93744 2.54784 6.69269 2.5025 6.57064C2.50061 6.56834 1.9787 6.53737 1.9452 6.52027C1.7281 6.443 2.12084 6.48582 2.15348 6.42579C2.21464 6.3165 2.33508 6.25513 2.18706 6.14341C2.14302 6.11354 1.82771 6.01075 2.07974 5.96699C2.11268 5.9617 2.28117 5.98065 2.29159 5.97548C2.46624 5.88717 1.93836 5.82502 1.76954 5.72872C1.60132 5.63059 1.98222 5.59348 2.0892 5.59991C2.3671 5.60781 2.19731 5.65703 2.22333 5.66531C2.53295 5.75163 2.48956 5.6817 2.52509 5.6448C3.03749 5.74513 3.01771 5.68966 2.55991 5.60662C2.50978 5.59795 2.55018 5.64119 2.52509 5.6448C2.03112 5.50327 1.98711 5.40062 2.46855 5.45191C2.69394 5.47739 2.93895 5.57215 2.87007 5.46225C2.83933 5.41235 2.48946 5.32802 2.40592 5.26441C2.21638 5.11605 2.56819 5.11752 2.54072 5.03228C2.53095 5.00068 2.33583 4.96388 2.32273 4.94011C2.30039 4.90016 2.3533 4.88872 2.38063 4.86918C2.39653 4.85781 2.40389 4.84331 2.38284 4.81846C2.37742 4.81226 2.17875 4.75675 2.18079 4.74233C2.19257 4.63145 2.34856 4.581 2.39092 4.46868C2.41119 4.41454 2.33886 4.27685 2.38197 4.2244C2.45522 4.1332 2.78368 4.10993 2.75139 3.9936C2.73162 3.91684 2.5352 3.85338 2.41568 3.77422C2.18478 3.61864 2.6751 3.71054 2.7492 3.72966C2.75154 3.73044 2.77361 3.80275 2.88302 3.81571C3.09267 3.88594 2.74975 3.73082 2.7492 3.72966C2.79722 3.74081 2.88723 3.65238 2.86162 3.61436C2.84741 3.59367 2.66687 3.519 2.66295 3.50947C2.57371 3.28508 2.61622 3.08922 2.79951 2.95893C2.80471 2.95789 2.98989 3.07376 2.99961 3.07022C3.14047 3.02396 2.95384 2.82037 2.88838 2.63647C2.82204 2.45442 2.9321 2.39918 3.26543 2.58381C3.28296 2.48667 3.49555 2.498 3.61728 2.51849C3.73755 2.53985 3.45173 2.22603 3.45146 2.21444C3.44143 1.8559 3.72822 1.93575 3.97451 1.83107C4.02928 1.80824 4.09991 1.75983 4.17603 1.70625C4.26732 1.64109 4.36288 1.57063 4.42878 1.5204C4.52441 1.44748 4.61593 1.52464 4.69593 1.43867C4.70711 1.42714 4.64828 1.24671 4.65063 1.23862C4.71658 0.990177 4.76267 1.45511 4.80259 1.53066C4.94436 1.80803 5.00196 1.95893 5.0981 1.80352C5.11557 1.76838 5.13553 1.09611 5.20032 1.05291C5.27714 0.998714 5.25946 1.23865 5.33591 1.17801C5.34248 1.17315 5.33702 1.02562 5.38793 1.03133C5.62506 1.05636 5.85503 1.16388 6.07504 1.19069C6.10561 1.19507 6.10979 0.95782 6.1569 0.960987C6.37805 0.97606 6.61352 1.05516 6.76796 1.23388C6.80545 1.27847 6.71471 1.41853 6.70673 1.46764C6.65242 1.76222 6.90099 1.40567 6.92221 1.40663C7.36629 1.39127 7.40987 1.87237 7.8311 2.00875C7.84985 2.00955 8.31943 1.8289 8.08974 2.16271C8.07673 2.18726 7.8241 2.50691 8.07945 2.38583C8.09612 2.37925 8.22166 2.20519 8.26533 2.29315C8.30631 2.37748 8.51761 2.43421 8.39562 2.67111C8.35971 2.74996 8.05381 3.01712 8.39086 2.97741C8.39715 2.97671 8.4536 2.9652 8.5259 2.95633C8.72325 2.9263 9.04735 2.94199 8.72612 3.12618C8.65387 3.16823 8.15902 3.34388 8.45736 3.3784C8.51549 3.38707 8.61137 3.3018 8.70403 3.34889C8.84801 3.42676 8.74826 3.60159 9.00395 3.69179C9.04899 3.70433 9.42231 3.76105 9.1636 3.88389C9.12296 3.90206 8.94542 3.90039 8.93086 3.94429C8.8599 4.14724 8.98223 4.34168 8.85142 4.51915C8.80521 4.57963 8.523 4.53166 8.44275 4.58422C8.36258 4.63738 8.27758 4.73452 8.39728 4.80996C8.51654 4.88887 8.9761 4.89132 8.99475 4.99815C9.06912 5.47648 8.66962 5.78639 8.47134 6.08619C8.44095 6.13218 8.60654 6.16639 8.57004 6.24146C8.44558 6.51482 8.25294 7.0374 7.83049 6.98493C7.50188 6.93693 7.49671 6.62918 7.32582 6.64998C7.24777 6.65574 7.57861 7.07175 7.57744 7.09646C7.58154 7.3314 7.33948 7.23594 7.28052 7.38007C7.26766 7.41035 7.42753 7.55524 7.41437 7.57972C7.3906 7.62545 7.34081 7.64251 7.29158 7.65776C7.24828 7.67146 7.20572 7.68353 7.17912 7.7135C7.15393 7.74258 7.2556 7.87047 7.22021 7.88067C7.13669 7.90634 7.03671 7.89184 6.89122 7.80467C6.87828 7.7965 6.80232 7.60323 6.75334 7.62654C6.67276 7.66562 6.5081 7.59018 6.50609 7.77172C6.50584 7.82606 6.68925 8.1513 6.50749 7.95797C6.4694 7.91754 6.26664 7.51787 6.39279 7.89034C6.41629 7.95114 6.54823 8.47276 6.33987 8.2005C6.2851 8.12893 6.08743 7.81783 6.08427 7.88343C6.08418 7.8937 6.18847 8.06588 6.17179 8.09571C6.1107 8.19796 6.00683 8.22168 5.93585 8.31979C5.91665 8.34649 6.03622 8.52125 6.00392 8.55533C5.91459 8.64966 5.75272 8.65485 5.61935 8.63178C5.5701 8.62291 5.54344 8.45045 5.53426 8.43383C5.39116 8.16128 5.49297 8.55969 5.48307 8.58805C5.42436 8.75732 5.28798 8.59629 5.20383 8.67129C5.17953 8.69166 5.24851 8.87594 5.24733 8.89428C5.22957 9.07492 5.18701 8.72299 5.14088 8.69465C5.01288 8.61355 4.90224 8.65368 4.79184 8.6983C4.75131 8.71489 4.83775 8.93036 4.79937 8.94283C4.57112 9.02067 4.28081 9.02853 3.97416 8.89276C3.91683 8.86656 3.96104 8.69336 3.95088 8.65301C3.89256 8.37166 3.74151 8.73987 3.70181 8.77135C3.53798 8.91784 3.49722 8.75432 3.35293 8.75179C3.00931 8.7444 2.50912 8.58185 2.06714 8.17699C1.61849 7.77714 1.367 7.19492 1.29664 6.80175C1.29645 6.79168 1.29627 6.78174 1.29608 6.77192C1.28959 6.44428 1.39589 6.17142 1.29541 5.88771C1.28927 5.86953 1.06484 5.9332 1.05657 5.91783C0.959848 5.7146 1.0147 5.48881 0.919361 5.27995C0.911935 5.26258 0.696854 5.31755 0.677549 5.29016C0.636427 5.23419 0.638997 5.15543 0.702148 5.08593C0.732574 5.05241 0.92492 5.07147 0.951774 5.03863C1.01482 4.96257 1.02339 4.88933 0.982013 4.8214C0.963948 4.79254 0.743316 4.85783 0.737312 4.8182C0.692082 4.54978 0.640821 4.26953 0.933224 3.99011C0.953324 3.97059 1.41146 3.95671 1.324 3.91762C1.19689 3.91334 1.04734 3.91184 0.911471 3.90902C0.84315 3.50312 1.03207 3.1017 1.13011 2.67778C1.13426 2.65969 0.889513 2.65013 0.896498 2.61409C0.936996 2.40513 0.92028 2.16955 1.21784 2.0073C1.24716 1.99106 1.65367 2.12149 1.61029 2.04148C1.60202 2.02735 1.57721 1.91659 1.49852 1.86043C1.48649 1.85233 1.29104 1.80821 1.29674 1.77299C1.33295 1.57074 1.46201 1.36986 1.67794 1.21371C1.71269 1.18968 1.88389 1.32112 1.90983 1.30584C2.08985 1.2009 2.06765 0.926848 2.3527 0.873416C2.54201 0.843394 2.79419 1.11678 3.10519 1.30826C3.14854 1.33561 3.19808 1.29344 3.35186 1.43706C3.73664 1.79921 4.15012 2.20408 4.56335 2.58681C4.65238 2.66934 4.54717 2.58996 4.76338 2.78824C4.77791 2.80154 4.86024 2.85615 4.93807 2.91819C4.99212 2.96088 5.14568 3.1098 5.21875 3.16006C5.29311 3.20865 5.16344 3.08472 5.25231 3.13929C5.34301 3.19342 5.53054 3.34883 5.57584 3.33648ZM4.14996 2.64304C4.31988 2.76966 3.88337 2.1623 3.92821 2.35348C3.93094 2.36346 4.14125 2.63715 4.14996 2.64304ZM3.39151 7.70694C3.57876 7.42944 3.20394 7.7388 3.05639 7.95217C2.91537 8.17116 3.3379 7.79396 3.39151 7.70694ZM4.00413 7.88639C4.1016 7.63865 3.49028 8.50515 3.67464 8.37093C3.68514 8.36338 3.99876 7.90094 4.00413 7.88639ZM3.04283 1.55719C3.05139 1.5621 3.08211 1.53501 3.07472 1.52858C2.89497 1.37126 2.82806 1.43342 3.04283 1.55719ZM4.57963 7.91997C4.6302 7.78468 4.50829 7.90739 4.44401 8.0752C4.39327 8.21079 4.51791 8.08898 4.57963 7.91997ZM6.4584 3.37564C6.45182 3.38461 6.46164 3.40605 6.50239 3.35807C6.63352 3.20316 6.56952 3.22425 6.4584 3.37564ZM5.33666 8.24554C5.23475 8.1626 5.50784 7.32764 5.58033 7.46345C5.59433 7.48829 5.43249 7.70515 5.4293 7.78893C5.42595 7.94251 5.65856 7.44301 5.60313 7.73741C5.59377 7.79163 5.34228 8.25234 5.33601 8.2466C5.33623 8.24625 5.33644 8.24589 5.33666 8.24554ZM4.72117 3.33663C4.72775 3.34395 4.75543 3.33513 4.7503 3.32684C4.62603 3.12354 4.56028 3.14843 4.72117 3.33663ZM6.44167 4.46736C6.42081 4.46653 6.39488 4.5117 6.41357 4.51628C6.79252 4.61015 6.85101 4.48371 6.44167 4.46736ZM4.33498 5.13866C4.55124 5.24422 4.56672 5.28602 4.275 5.21253C4.29964 5.1894 4.31144 5.162 4.33498 5.13866Z" fill="white"/>
<path d="M50.7318 21.956C50.823 22.1542 50.8851 22.6815 51.8238 23.263C52.2888 23.5293 52.8611 23.5972 53.2217 23.556C53.6022 23.5161 53.8041 23.4302 53.9615 23.3635C54.5092 23.0883 54.4805 23.0143 54.5431 22.9592C54.513 22.9588 54.4582 22.9574 54.3968 22.9571C54.358 22.9576 54.2635 22.8638 54.2303 22.8629C54.1648 22.8624 54.1917 22.9346 54.1152 22.9365C54.0888 22.9375 53.9291 22.7997 53.9047 22.8044C53.7711 22.8335 53.7589 22.9525 53.6623 23.0306C53.1753 23.4346 52.8407 24.0889 52.5503 24.7747C52.4539 25.0012 52.1952 25.2529 52.2209 25.5264C52.2241 25.5582 52.408 25.5797 52.4216 25.5886C52.6299 25.7251 52.2727 25.6174 52.212 25.6653C51.9726 25.8554 51.9068 26.1174 51.9401 26.3548C51.9548 26.4561 52.3316 26.4181 52.1135 26.4815C52.0987 26.486 51.9093 26.431 51.8845 26.4542C51.8286 26.507 51.8459 26.6269 51.8239 26.6713C51.7804 26.7571 51.7803 26.7726 51.7666 26.8578C51.7592 26.9 51.7394 26.9437 51.7187 26.9887C51.6844 27.0516 51.6488 27.1192 51.6728 27.1867C51.6815 27.2089 51.8834 27.1934 51.9156 27.2279C51.9475 27.2621 51.9281 27.3449 51.8809 27.3744C51.8335 27.4035 51.676 27.3913 51.6398 27.3967C51.3344 27.447 51.7606 27.5495 51.772 27.5581C51.9626 27.7842 51.7575 28.0178 51.8196 28.2609C51.8669 28.4406 52.0061 28.6038 52.0635 28.7729C52.1312 28.9747 52.1161 29.1925 52.2394 29.3775C52.2521 29.3968 52.4453 29.259 52.4608 29.2816C52.6265 29.5213 52.7639 29.7765 52.8215 30.1193C52.8272 30.154 52.6373 30.2458 52.6335 30.2883C52.61 30.543 52.5134 31.0675 53.2718 30.5644C53.3305 30.6862 53.41 30.8281 53.3602 31.0403C53.3286 31.1774 53.1122 31.277 53.2494 31.2816C53.2801 31.2826 53.4032 31.1256 53.4382 31.1372C53.5844 31.1853 53.6445 31.3367 53.8129 31.358C53.8473 31.3619 53.9651 31.2296 53.9928 31.212C54.2175 31.0705 54.0002 31.4524 53.9972 31.492C53.9719 31.7852 54.1349 31.8098 54.2592 31.9265C54.2882 31.9538 54.4095 31.7441 54.4428 31.7636C54.5413 31.8233 54.6307 31.8978 54.7041 31.989C54.7419 32.0422 54.7715 32.1022 54.7962 32.1744C54.809 32.2131 54.6665 32.3602 54.6673 32.3876C54.677 32.509 54.9031 32.1998 54.9129 32.3038C54.9158 32.3256 54.8178 32.4688 54.81 32.4863C54.6919 32.7648 54.9442 32.4216 54.9559 32.4174C55.1283 32.3685 55.0119 32.8038 55.1746 32.804C55.1929 32.8029 55.2424 32.5863 55.2868 32.5946C55.5812 32.647 55.8593 32.7713 56.1734 32.9739C56.2223 33.005 56.1731 33.1663 56.1743 33.1868C56.2068 33.5078 56.2734 33.0855 56.2896 33.0704C56.4242 32.9626 56.5582 33.3192 56.6402 32.8106C57.2169 32.9719 57.7409 32.5866 58.4475 32.8637C58.4566 32.8667 58.4979 33.0726 58.5159 33.0776C58.7344 33.1389 58.612 32.8347 58.617 32.4182C58.6173 32.3139 58.8484 32.746 58.8678 32.7768C58.9364 32.8915 58.9971 33.1989 59.0148 33.2198C59.1601 33.3813 58.8373 32.4026 58.9457 32.3675C58.9497 32.368 58.9935 32.5532 59.0086 32.5681C59.0559 32.615 59.0613 32.534 59.1101 32.5867C59.1499 32.6299 59.1984 32.7165 59.245 32.7964C59.329 32.9423 59.4092 33.0653 59.412 32.865C59.4118 32.8249 59.2012 32.2797 59.3025 32.2727C59.3437 32.2705 59.5031 32.1995 59.5628 32.2161C59.6223 32.2332 59.6609 32.4206 59.6671 32.4269C59.8867 32.6069 59.8778 32.7217 60.0863 33.0346C60.2972 33.3445 59.9366 32.5454 59.9237 32.4446C59.9108 32.3442 60.0851 32.4922 60.1379 32.5466C60.1903 32.6015 60.2103 32.7237 60.2478 32.7512C60.4971 32.9281 60.1272 32.3282 60.1121 32.182C60.0708 31.8379 60.429 32.3862 60.5555 32.3936C60.5889 32.3959 60.5009 32.2746 60.5171 32.2508C60.5806 32.1588 60.7305 32.309 60.7411 32.0912C60.744 32.0551 60.6293 31.6718 60.8213 31.892C60.8492 31.9236 60.9091 32.076 60.9644 32.086C61.047 32.1012 61.1655 32.0716 61.1958 31.9891C61.2178 31.9283 61.0281 31.7321 61.125 31.7693C61.1684 31.7858 61.207 31.9459 61.2823 31.9653C61.3578 31.9848 61.4695 31.9039 61.5096 31.8702C61.5498 31.8365 61.4128 31.6847 61.4087 31.671C61.3859 31.5923 61.4092 31.4578 61.416 31.4531C61.7435 31.1942 62.2722 31.2023 62.503 30.823C62.5208 30.7938 62.3563 30.656 62.3575 30.65C62.3735 30.5091 62.7082 30.976 62.9007 31.0526C62.5864 30.7542 62.6756 30.7765 62.6975 30.6857C62.7077 30.6418 62.5723 30.5405 62.5624 30.5261C62.4167 30.3102 62.6809 30.5093 62.7376 30.5473C62.9446 30.6884 62.7579 30.4593 62.8972 30.5521C63.0367 30.6428 63.1751 30.8528 63.2274 30.7902C63.1266 30.6704 62.7873 30.4418 62.7766 30.3553C62.7327 30.0361 63.2193 29.9305 63.3485 29.7994C63.4751 29.675 63.4809 29.6117 63.5828 29.5555C63.741 29.466 63.5457 29.3794 63.4487 29.2531L63.3764 29.7407C63.351 29.7374 63.3268 29.7318 63.3048 29.7227C63.1464 29.6588 63.8732 29.5162 64.0229 29.46C64.1718 29.4017 64.0089 29.4262 64.0872 29.3818C64.1652 29.3367 64.2826 29.3544 64.2995 29.2939C64.3161 29.2309 64.0024 29.1771 63.8395 29.2159C63.494 29.2943 63.1626 29.4655 63.2472 29.3148C63.2522 29.3058 63.4428 29.2611 63.4523 29.2295C63.5205 28.9775 63.4363 28.7633 63.4502 28.5038C63.4522 28.4677 63.6568 28.3921 63.6599 28.3694C63.6887 28.1302 63.3996 28.3641 62.9998 28.4803C63.4786 28.2317 63.7366 28.0151 63.6573 27.8799C63.61 27.7996 63.4187 27.9385 63.2486 27.9807C63.1977 27.994 63.2988 27.8532 63.2001 27.9049C62.8786 28.0759 62.5731 28.3467 62.6298 28.144C62.6326 28.1346 62.8067 28.0378 62.8043 28.0134C62.788 27.8535 62.4712 28.0619 62.3493 27.977C62.2542 27.9109 62.3062 27.6089 62.2449 27.482C62.7056 27.0874 62.5094 27.0745 62.1655 27.3183C62.1195 27.2422 62.0374 27.1893 62.02 27.0882C62.0137 27.0534 62.1531 26.945 62.1641 26.9292C62.3363 26.6793 62.0177 26.9357 61.9934 26.934C61.7389 26.8982 61.8248 26.5558 61.4741 26.6459C61.4613 26.6491 61.1734 26.9565 61.3385 26.6919C61.3497 26.6736 61.5262 26.5737 61.4655 26.5005C61.4062 26.4282 61.4143 26.1384 61.1876 26.2055C61.1327 26.2212 60.8576 26.4384 60.9744 26.19C60.9902 26.1563 61.0727 26.0675 61.1047 26.0071C61.2055 25.8137 60.9254 26.135 61.1104 25.8207C61.2955 25.5064 61.3756 25.2257 61.1139 25.3418C61.1059 25.3448 60.8784 25.5961 60.8475 25.5667C60.798 25.5192 60.7607 25.4053 60.701 25.3655C60.6725 25.3466 60.5689 25.5301 60.5618 25.5298C60.3711 25.5031 60.3103 25.3587 60.2214 25.2011C60.1923 25.1498 60.1607 25.0972 60.1214 25.0471C60.0921 25.0092 59.8265 25.1757 59.8783 24.9392C59.9344 24.68 60.5842 23.876 60.2612 23.9571C60.1297 23.9882 59.3262 25.0222 59.558 24.3675C59.2063 24.3408 59.144 23.8941 58.7519 23.9352C58.7344 23.937 58.5073 24.2251 58.4815 24.2036C58.4443 24.1716 58.5101 24.0125 58.4857 23.9847C58.3868 23.8651 58.1981 23.9219 58.088 23.8303C58.0467 23.7963 58.1525 23.6544 58.1022 23.6132C58.0504 23.5714 57.8989 23.7511 57.8801 23.6103C57.8653 23.5027 58.0512 23.0625 58.0017 22.9697C57.7626 23.3713 57.7179 23.334 57.5638 23.3873C57.534 23.3977 57.4715 23.5494 57.4532 23.5616C57.3766 23.6141 57.4135 23.4797 57.336 23.5404C57.3173 23.5549 57.2371 23.6928 57.2173 23.7125C57.0462 23.885 57.1347 23.5218 57.1513 23.4593C57.2111 23.2199 57.0798 23.3839 57.0803 23.2764C57.081 23.1692 57.2069 23.1066 57.1825 23.0273C57.1322 22.8633 56.9776 22.805 56.8685 22.7347C56.8241 22.7073 56.75 22.9102 56.7412 22.9106C56.624 22.9063 56.6412 22.6558 56.381 22.9962C56.8563 22.0047 56.2749 23.0586 56.2496 22.7924C56.2477 22.771 56.4882 22.311 56.5662 22.2674C56.644 22.2238 56.6253 22.3994 56.7381 22.3266C56.7637 22.3091 57.0801 21.9293 57.1048 21.9094C57.2993 21.7549 56.9284 22.436 56.9117 22.4754C56.7315 22.9015 57.0845 22.4996 57.126 22.4815C57.3164 22.399 57.3607 22.5498 57.5096 22.4986C57.6094 22.4675 57.8679 22.0303 57.9081 22.0713C58.0417 22.2073 57.7404 22.8515 58.2 22.4079C58.298 22.3133 58.5441 21.8143 58.4407 22.2592C58.4347 22.2875 58.3184 22.682 58.4947 22.4926C58.5171 22.4688 58.5988 22.3291 58.614 22.3223C58.7144 22.2793 58.6851 22.4116 58.776 22.3935C58.8691 22.3768 58.985 22.3385 59.0276 22.4277C59.0528 22.4809 58.9493 22.7701 58.9319 22.8457C58.8793 23.0619 59.116 22.7976 59.0185 23.0394C58.9196 23.2819 58.6497 23.5779 58.6528 23.775C58.8735 23.4174 59.1045 23.0529 59.3287 22.6945C59.5214 22.8284 59.6468 23.0651 59.8567 23.1749C59.883 23.1882 59.9778 22.9809 60.009 22.9902C60.1414 23.031 60.1522 23.2288 60.3033 23.2496C60.4205 23.2649 60.6488 23.1277 60.7759 23.1389C60.5696 23.5786 60.7958 23.532 60.87 23.6341C60.8959 23.6695 60.8227 23.7751 60.8238 23.8261C60.8295 24.016 61.0221 23.6337 61.0843 23.5947C61.2577 23.4865 61.0947 23.7918 60.9989 24.035C60.9497 24.166 60.9191 24.2791 60.9699 24.3035C60.9769 24.307 61.3528 23.9427 61.3838 23.9254C61.5796 23.8075 61.2954 24.0812 61.3216 24.1455C61.3694 24.2631 61.3577 24.4046 61.5462 24.3554C61.6011 24.3401 61.8622 24.1348 61.7728 24.3763C61.7611 24.4079 61.656 24.541 61.656 24.5534C61.6648 24.7663 61.9876 24.343 62.1611 24.2484C62.3352 24.1544 62.2081 24.5218 62.161 24.6197C62.0417 24.8747 62.0498 24.6812 62.0304 24.7002C61.8013 24.9275 61.9035 24.9373 61.9384 24.9997C61.6209 25.4143 61.7095 25.4453 61.9756 25.0627C62.0045 25.0207 61.9339 25.0266 61.9384 24.9997C62.3023 24.6345 62.4305 24.6533 62.2129 25.0949C62.1102 25.3015 61.9047 25.4701 62.086 25.498C62.1682 25.5114 62.381 25.2202 62.4945 25.1887C62.7557 25.1186 62.6791 25.5007 62.826 25.5665C62.8803 25.5913 62.9751 25.4102 63.0172 25.4226C63.1302 25.456 63.0932 25.6257 63.2208 25.646C63.2326 25.6478 63.3613 25.4851 63.3867 25.5068C63.5833 25.67 63.6395 25.9223 63.8115 26.1253C63.895 26.223 64.1319 26.3311 64.1987 26.4549C64.3177 26.6686 64.2403 27.0776 64.4091 27.2054C64.5196 27.2908 64.6782 27.1571 64.8289 27.1332C65.1237 27.0906 64.8082 27.5194 64.7528 27.5762C64.751 27.5778 64.6514 27.5012 64.5901 27.6072C64.4158 27.7464 64.7511 27.5752 64.7528 27.5762C64.7199 27.6154 64.7884 27.8416 64.8438 27.866C64.8744 27.8789 65.0423 27.7783 65.0552 27.787C65.3568 27.9976 65.5405 28.3042 65.5626 28.6626C65.5608 28.6696 65.3506 28.7295 65.3487 28.7448C65.3157 28.9572 65.6048 28.9992 65.8004 29.1285C65.8113 29.1356 65.8214 29.1428 65.8309 29.1501C65.867 29.5054 65.8468 30.2493 65.6264 30.5302C65.6633 30.7185 65.542 30.7856 65.1988 30.665C65.1775 30.7864 64.9487 30.8288 64.8148 30.8438C64.6811 30.8589 65.0182 31.1175 65.02 31.1294C65.0839 31.4983 64.794 31.4742 64.5966 31.6505C64.5017 31.735 64.3822 31.9614 64.321 32.0927C64.2734 32.1973 64.1568 32.1741 64.1319 32.2891C64.1284 32.3046 64.2717 32.429 64.2739 32.4371C64.3525 32.6781 64.0664 32.3101 63.9922 32.2672C63.7231 32.1099 63.5805 32.0256 63.5782 32.2209C63.5787 32.2647 63.9583 32.8204 63.937 32.8915C63.9103 32.9813 63.7748 32.7824 63.7513 32.8797C63.7491 32.8879 63.8468 32.9983 63.8036 33.0268C63.6042 33.1611 63.351 33.2537 63.1656 33.4098C63.1397 33.4307 63.3135 33.5929 63.2777 33.6267C63.1095 33.7854 62.8951 33.9222 62.6506 33.9492C62.5901 33.9552 62.5305 33.799 62.4945 33.7644C62.2779 33.5541 62.4212 33.9679 62.41 33.9842C62.1714 34.3706 61.7178 34.1791 61.4432 34.5192C61.4303 34.5379 61.4697 35.0269 61.2346 34.7024C61.2181 34.6812 60.9855 34.346 61.0388 34.6229C61.0419 34.6403 61.169 34.8102 61.0857 34.8241C61.003 34.8378 60.9343 35.0176 60.7439 34.8498C60.6828 34.7974 60.4608 34.4551 60.4807 34.7899C60.4853 34.8123 60.5834 35.5478 60.355 35.1002C60.3177 35.0263 60.1478 34.5274 60.1236 34.8229C60.1186 34.8803 60.1987 34.9769 60.1632 35.0671C60.1376 35.1323 60.0866 35.1466 60.0362 35.17C59.9841 35.1948 59.9325 35.2315 59.9145 35.3683C59.9093 35.4137 59.9378 35.7806 59.7914 35.5417C59.7686 35.5042 59.735 35.3302 59.6955 35.3219C59.5085 35.2812 59.3713 35.4446 59.1706 35.3735C59.0999 35.3485 59.055 35.0657 58.9747 35.0084C58.8942 34.9512 58.7554 34.9114 58.7225 35.0534C58.6887 35.1957 58.8692 35.6187 58.7764 35.6785C58.3665 35.9387 57.8478 35.7651 57.3616 35.7752C57.2886 35.7765 57.3653 35.9324 57.2561 35.9455C56.8669 36.0009 56.0912 36.1493 55.7405 35.7527C55.4764 35.4414 55.8709 35.2796 55.6683 35.1399C55.5772 35.0735 55.3752 35.5736 55.3423 35.5844C55.0428 35.7004 54.9072 35.4264 54.6521 35.4236C54.5981 35.4225 54.5836 35.6419 54.5371 35.6381C54.3755 35.6259 54.2514 35.4795 54.1061 35.439C54.0403 35.4209 53.9887 35.5763 53.9347 35.5395C53.8053 35.4527 53.7103 35.3311 53.6532 35.1286C53.6488 35.1106 53.8183 34.9701 53.7285 34.9144C53.5814 34.8233 53.4856 34.5912 53.2393 34.6124C53.1668 34.6196 52.9487 34.9236 52.9941 34.6388C53.0036 34.5788 53.2972 34.24 52.9511 34.4636C52.9128 34.4888 52.6672 34.6143 52.5394 34.5827C52.4906 34.579 52.4717 34.54 52.521 34.4365C52.56 34.3535 52.7526 34.0361 52.6769 34.0471C52.6656 34.0496 52.5563 34.2199 52.5114 34.2072C52.3554 34.1594 52.2508 34.039 52.0931 33.9809C52.0505 33.9654 51.9576 34.1612 51.8983 34.133C51.7348 34.0555 51.6108 33.8665 51.5336 33.7006C51.5054 33.6392 51.6567 33.5467 51.6664 33.53C51.8273 33.2621 51.5092 33.5247 51.4745 33.524C51.2648 33.5176 51.3201 33.2982 51.1859 33.2316C51.1491 33.2126 51.0264 33.3675 51.0083 33.3739C50.8279 33.4314 51.1253 33.2342 51.1182 33.1702C51.0996 32.9904 50.981 32.8838 50.8651 32.7899C50.8223 32.7556 50.6921 32.9512 50.6552 32.9181C50.4336 32.7244 50.2523 32.4684 50.1761 32.1595C50.1622 32.1012 50.3228 32.0239 50.3479 31.9908C50.5256 31.7628 50.1526 31.8976 50.1068 31.8959C49.9012 31.8935 49.9996 31.7643 49.9149 31.6916C49.4941 31.3351 49.2369 30.6732 49.0854 30.1496C48.884 29.4615 48.8877 28.8786 48.7516 28.1881C48.7435 28.1436 48.5184 28.2179 48.5084 28.1788C48.39 27.6644 48.4786 27.1372 48.4763 26.605C48.4766 26.5687 48.3249 26.5864 48.2661 26.5539C48.2529 26.5482 48.2442 26.5408 48.2426 26.5311C48.2227 26.4211 48.2527 26.2885 48.3377 26.1918C48.3787 26.1448 48.5559 26.2411 48.5934 26.1936C48.681 26.0838 48.7162 25.958 48.7015 25.8293C48.6949 25.7741 48.4593 25.8173 48.4681 25.7479C48.5237 25.2763 48.5801 24.7982 48.978 24.3955C49.0055 24.3676 49.4571 24.4489 49.3885 24.3611C49.2665 24.3251 49.1213 24.289 48.9901 24.2536C49.0908 23.5547 49.4521 22.9242 49.759 22.2476C49.772 22.2189 49.5268 22.1763 49.5512 22.1194C49.6928 21.7914 49.7907 21.4248 50.1931 21.1959C50.2329 21.1731 50.5949 21.3998 50.5939 21.2712C50.5931 21.2482 50.6292 21.0753 50.5753 20.987C50.5667 20.9743 50.3797 20.8977 50.4052 20.8454C50.5569 20.5436 50.8144 20.259 51.1584 20.0531C51.2141 20.0205 51.3299 20.2098 51.3701 20.1889C51.4651 20.14 51.5437 20.0666 51.6199 19.9911C51.6795 19.9327 51.7446 19.8682 51.8537 19.7834C51.975 19.7012 52.0884 19.5778 52.5368 19.4485C52.758 19.3919 53.1503 19.3399 53.5905 19.5064C54.0317 19.6709 54.3121 19.9971 54.4316 20.1985C54.6672 20.6165 54.6374 20.7817 54.6395 20.9174C54.6125 21.1632 54.4789 21.1758 54.3303 21.217C54.1787 21.2493 53.9977 21.2698 53.8187 21.3212C53.7686 21.3378 53.7615 21.4307 53.5512 21.4341C53.0229 21.4456 52.4441 21.4131 51.881 21.4306C51.7598 21.4299 51.8904 21.5309 51.5973 21.471C51.5777 21.4642 51.4801 21.4045 51.3805 21.4033C51.3116 21.4003 51.0981 21.4108 51.01 21.4069C50.9223 21.4086 51.0998 21.3939 51.0008 21.4489C50.9514 21.4819 50.867 21.5079 50.7945 21.5482C50.7307 21.6068 50.6346 21.5968 50.7318 21.956ZM64.218 30.8947C64.0094 30.8301 64.5876 31.3044 64.5025 31.1229C64.4977 31.1136 64.2285 30.8976 64.218 30.8947ZM59.3486 23.5447C59.2538 23.8739 59.565 23.4966 59.6432 23.2451C59.7196 22.993 59.3772 23.4448 59.3486 23.5447ZM58.3979 23.2509C58.3568 23.5289 58.9144 22.6268 58.7046 22.7516C58.6926 22.7585 58.4001 23.2347 58.3979 23.2509ZM53.0251 20.4487C53.0254 20.454 53.1719 20.4611 53.3102 20.5403C53.4469 20.6169 53.5122 20.7116 53.5187 20.7095C53.6707 20.7297 53.6822 20.5573 53.4275 20.3893C53.149 20.227 52.9025 20.3327 53.0251 20.4487ZM57.4442 22.9983C57.4006 23.1386 57.5693 23.0448 57.6215 22.869C57.663 22.7273 57.4972 22.8229 57.4442 22.9983ZM60.7232 32.7178C60.7172 32.7084 60.676 32.7179 60.7049 32.7738C60.7984 32.9539 60.8251 32.8763 60.7232 32.7178ZM56.0372 22.2169C56.2223 22.3659 55.9243 23.2029 55.7455 22.9897C55.7137 22.9514 55.9695 22.7949 55.9559 22.6968C55.932 22.5187 55.6018 22.9643 55.6463 22.6518C55.6547 22.5947 56.0276 22.2067 56.0381 22.2161C56.0378 22.2164 56.0375 22.2166 56.0372 22.2169ZM63.4842 30.3752C63.4756 30.3702 63.4332 30.4085 63.44 30.4156C63.6057 30.5886 63.6937 30.5085 63.4842 30.3752ZM58.3599 33.0986C58.3516 33.0792 58.2244 33.091 58.2251 33.1107C58.2515 33.5044 58.5187 33.4792 58.3599 33.0986ZM62.2557 27.4698C62.0378 27.5832 61.9748 27.5547 62.1654 27.3187C62.1925 27.3721 62.2291 27.4169 62.2557 27.4698Z" fill="white"/>
<path d="M55.8142 147.903C55.8214 147.968 55.7966 147.9 55.7552 147.81C55.7423 147.782 55.727 147.65 55.7164 147.625C55.6951 147.576 55.6915 147.642 55.6661 147.585C55.6573 147.565 55.6271 147.357 55.6181 147.341C55.5677 147.256 55.5433 147.315 55.4965 147.28C55.2568 147.107 55.0021 147.101 54.7347 147.098C54.6466 147.097 54.4797 146.958 54.4277 147.069C54.4217 147.082 54.4979 147.25 54.5018 147.265C54.5632 147.491 54.4299 147.144 54.3921 147.106C54.2421 146.957 54.1477 146.98 54.1056 147.078C54.0875 147.12 54.2705 147.438 54.1544 147.266C54.1464 147.254 54.0726 147.073 54.0553 147.058C54.0159 147.024 53.9947 147.073 53.9731 147.066C53.9311 147.051 53.9271 147.055 53.8985 147.067C53.8599 147.08 53.7722 147.014 53.7514 147.074C53.7474 147.087 53.8478 147.262 53.8498 147.299C53.8518 147.336 53.8092 147.338 53.7758 147.302C53.7424 147.266 53.676 147.123 53.6575 147.092C53.5007 146.829 53.6513 147.227 53.6514 147.239C53.6374 147.446 53.4425 147.278 53.352 147.329C53.2829 147.368 53.2501 147.478 53.1802 147.507C53.1401 147.522 53.0913 147.518 53.0438 147.516C53.021 147.497 52.9967 147.484 52.9922 147.5C52.9913 147.502 53.1351 147.689 53.1357 147.692C53.1436 147.722 53.1254 147.7 52.9761 147.633C52.9608 147.626 52.7988 147.497 52.7726 147.485C52.6218 147.398 52.2037 147.301 52.9943 147.737C52.9551 147.736 52.9134 147.739 52.7363 147.692C52.6219 147.663 52.4182 147.565 52.4991 147.622C52.5173 147.634 52.7042 147.699 52.7179 147.711C52.7765 147.761 52.7062 147.77 52.7974 147.823C52.8165 147.833 52.9878 147.878 53.0182 147.888C53.266 147.96 52.8488 147.87 52.8169 147.871C52.5835 147.855 52.6666 147.908 52.6569 147.94C52.6546 147.948 52.8917 147.967 52.898 147.975C52.9282 148.011 52.9063 148.036 52.801 148.069C52.777 148.077 52.5744 148.072 52.5526 148.076C52.4591 148.1 52.8416 148.091 52.7597 148.108C52.743 148.112 52.5698 148.121 52.5508 148.122C52.2532 148.153 52.6767 148.135 52.686 148.135C52.8154 148.149 52.3796 148.227 52.4489 148.258C52.4574 148.261 52.6714 148.212 52.6819 148.219C52.736 148.255 52.7218 148.285 52.652 148.349C52.6285 148.367 52.6006 148.391 52.5697 148.422C52.5505 148.442 52.4084 148.526 52.3912 148.537C52.1307 148.719 52.4927 148.495 52.5059 148.486C52.6071 148.431 52.3549 148.685 52.7426 148.358C52.6774 148.54 52.8936 148.359 52.8685 148.832C52.8688 148.838 52.7905 149.032 52.7918 149.043C52.8093 149.175 52.9122 148.865 53.061 148.495C53.0957 148.401 52.9781 148.868 52.9728 148.903C52.9457 149.03 52.8491 149.327 52.8453 149.352C52.824 149.551 53.0961 148.557 53.1197 148.563C53.1202 148.565 53.0694 148.748 53.0672 148.767C53.0607 148.826 53.0868 148.755 53.0794 148.82C53.0611 148.971 52.9641 149.463 53.0605 149.185C53.0721 149.149 53.1851 148.576 53.2038 148.607C53.2118 148.621 53.2584 148.618 53.2662 148.658C53.2741 148.697 53.2386 148.882 53.2382 148.89C53.2459 149.143 53.2169 149.243 53.1985 149.612C53.1852 149.981 53.2756 149.109 53.2945 149.013C53.313 148.917 53.3243 149.124 53.3279 149.196C53.3306 149.268 53.3096 149.386 53.3144 149.427C53.3504 149.695 53.3697 148.995 53.3941 148.858C53.4446 148.531 53.4368 149.181 53.476 149.246C53.4855 149.263 53.4806 149.115 53.4891 149.101C53.5212 149.049 53.5435 149.252 53.5782 149.065C53.5853 149.035 53.5989 148.644 53.6275 148.929C53.6321 148.971 53.631 149.133 53.647 149.168C53.6707 149.222 53.7141 149.255 53.7332 149.199C53.747 149.157 53.706 148.893 53.7329 148.974C53.7453 149.01 53.7415 149.167 53.7647 149.222C53.7882 149.276 53.8354 149.264 53.8527 149.257C53.8701 149.249 53.8345 149.049 53.8344 149.036C53.833 148.957 53.8491 148.856 53.8515 148.856C53.8615 148.853 53.8717 148.852 53.8822 148.852C53.9981 148.86 54.1894 149.104 54.2875 148.963C54.2955 148.952 54.2232 148.751 54.2238 148.747C54.2295 148.651 54.378 149.2 54.4663 149.37C54.3248 148.961 54.3654 149.03 54.3756 148.976C54.3802 148.95 54.3174 148.794 54.3129 148.778C54.2437 148.532 54.3664 148.837 54.3937 148.899C54.492 149.127 54.4025 148.848 54.4695 148.999C54.5373 149.149 54.6032 149.385 54.6304 149.371C54.5812 149.224 54.4161 148.853 54.41 148.785C54.3803 148.531 54.6199 148.771 54.6925 148.77C54.7602 148.772 54.763 148.738 54.8207 148.77C54.9262 148.826 54.7561 148.577 54.7149 148.441C54.672 148.307 55.0456 148.945 55.1336 149.078C55.2227 149.209 55.1426 149.067 55.1957 149.136C55.2492 149.206 55.2908 149.307 55.3256 149.324C55.3615 149.341 55.2536 149.073 55.1655 148.932C54.9807 148.632 54.7593 148.335 54.8633 148.422C54.8696 148.427 54.9732 148.592 54.9918 148.603C55.1379 148.684 55.2078 148.643 55.3534 148.695C55.3738 148.702 55.5043 148.875 55.5181 148.88C55.6641 148.938 55.4091 148.676 55.1653 148.351C55.5167 148.76 55.7519 148.993 55.8003 148.952C55.8285 148.929 55.662 148.762 55.5615 148.628C55.5308 148.588 55.6605 148.688 55.5854 148.606C55.3386 148.341 55.0393 148.067 55.1826 148.151C55.1894 148.155 55.3276 148.298 55.341 148.301C55.4295 148.322 55.156 148.06 55.1463 148.002C55.1379 147.957 55.3518 148.06 55.4065 148.049C55.8922 148.412 55.8131 148.285 55.4764 148.036C55.5054 148.024 55.5001 147.989 55.5624 147.998C55.5837 148.001 55.7306 148.097 55.7474 148.106C56.0125 148.243 55.6704 148.022 55.6588 148.01C55.5529 147.884 55.854 147.97 55.6008 147.796C55.5941 147.792 55.3859 147.702 55.3859 147.697C55.3859 147.695 55.4144 147.704 55.4926 147.732C55.5128 147.739 55.6833 147.828 55.707 147.809C55.7295 147.794 55.9634 147.809 55.7877 147.713C55.7458 147.689 55.4202 147.584 55.6831 147.633C55.7189 147.64 55.8355 147.672 55.9017 147.684C56.1132 147.72 55.6999 147.618 56.0562 147.682C56.4125 147.746 56.6896 147.745 56.4528 147.646C56.446 147.642 56.1146 147.578 56.1219 147.564C56.1341 147.542 56.2081 147.515 56.2085 147.488C56.2085 147.476 55.9992 147.464 55.9955 147.461C55.8852 147.378 56.0739 147.338 56.1543 147.246C56.1694 147.228 55.8828 147.194 56.1068 147.154C56.3517 147.106 57.3819 147.088 57.1295 146.996C57.0275 146.952 55.7258 147.046 56.3905 146.912C56.2102 146.818 56.5318 146.649 56.2725 146.578C56.261 146.574 55.9014 146.635 55.9039 146.623C55.9082 146.604 56.0722 146.558 56.0803 146.543C56.1184 146.479 55.9653 146.465 55.9748 146.411C55.978 146.39 56.1502 146.353 56.1537 146.328C56.157 146.302 55.9291 146.347 56.029 146.287C56.1052 146.242 56.5552 146.092 56.5989 146.043C56.1488 146.169 56.152 146.145 56.0226 146.142C55.9975 146.141 55.8436 146.194 55.8237 146.196C55.7393 146.206 55.8649 146.156 55.7736 146.169C55.7517 146.172 55.5986 146.217 55.5721 146.222C55.3406 146.268 55.6741 146.131 55.7319 146.106C55.9519 146.013 55.7499 146.063 55.8337 146.017C55.9173 145.971 56.0375 145.964 56.085 145.926C56.1831 145.846 56.1401 145.796 56.1325 145.748C56.1285 145.729 55.9297 145.807 55.9244 145.806C55.8611 145.785 56.0643 145.677 55.6542 145.789C56.6887 145.422 55.5458 145.799 55.7373 145.679C55.7528 145.669 56.2437 145.501 56.3214 145.493C56.3991 145.486 56.253 145.561 56.3733 145.547C56.4015 145.543 56.8739 145.424 56.9034 145.419C57.1334 145.382 56.3972 145.625 56.3572 145.64C55.9261 145.801 56.4368 145.678 56.4746 145.677C56.6474 145.674 56.5557 145.746 56.681 145.75C56.7621 145.753 57.2485 145.607 57.2402 145.633C57.2132 145.722 56.54 145.943 57.1495 145.84C57.2796 145.818 57.8093 145.651 57.4049 145.825C57.3795 145.836 57.0058 145.983 57.2556 145.939C57.2871 145.933 57.4432 145.891 57.4573 145.891C57.5494 145.895 57.4298 145.946 57.4972 145.96C57.5645 145.973 57.6632 145.987 57.6187 146.035C57.5921 146.065 57.3057 146.163 57.2362 146.189C57.0359 146.265 57.3821 146.216 57.1352 146.29C56.8866 146.364 56.4967 146.421 56.3425 146.497C56.753 146.407 57.1749 146.317 57.5882 146.228C57.5973 146.338 57.4849 146.47 57.5214 146.578C57.5263 146.592 57.747 146.541 57.7582 146.555C57.8043 146.617 57.6532 146.698 57.7253 146.76C57.782 146.808 58.0267 146.848 58.0921 146.909C57.6161 146.986 57.7848 147.062 57.7432 147.133C57.7288 147.158 57.6003 147.16 57.5589 147.177C57.4053 147.242 57.8295 147.206 57.8967 147.223C58.1828 147.304 57.2209 147.308 57.2425 147.385C57.2435 147.387 57.7535 147.465 57.7847 147.478C57.9894 147.545 57.606 147.477 57.5662 147.507C57.493 147.563 57.3681 147.588 57.5096 147.674C57.5517 147.697 57.8617 147.794 57.6106 147.801C57.5777 147.801 57.4106 147.773 57.4001 147.776C57.2253 147.823 57.7495 147.914 57.9168 148C58.0837 148.088 57.7061 148.091 57.5999 148.079C57.3244 148.052 57.4927 148.023 57.4669 148.015C57.1597 147.922 57.203 147.981 57.1678 148.01C56.66 147.888 56.6802 147.935 57.1334 148.039C57.183 148.05 57.143 148.011 57.1678 148.01C57.6577 148.163 57.6992 148.262 57.2221 148.183C56.9989 148.145 56.7587 148.039 56.8242 148.144C56.853 148.193 57.1964 148.3 57.2751 148.37C57.3371 148.426 57.3337 148.463 57.3039 148.489C57.248 148.539 57.101 148.545 57.1078 148.609C57.1111 148.646 57.3013 148.706 57.309 148.735C57.3287 148.815 57.174 148.791 57.2109 148.879C57.2144 148.887 57.4003 148.977 57.3928 148.995C57.3383 149.138 57.1585 149.171 57.072 149.282C57.0308 149.336 57.0427 149.503 56.9784 149.543C56.8671 149.615 56.5543 149.508 56.5402 149.623C56.5285 149.699 56.6799 149.839 56.7556 149.961C56.8988 150.2 56.4979 149.904 56.4419 149.852C56.4402 149.851 56.4474 149.78 56.3566 149.719C56.1996 149.563 56.4419 149.851 56.4419 149.852C56.4036 149.822 56.2946 149.853 56.3036 149.896C56.3085 149.919 56.4365 150.067 56.4365 150.077C56.4333 150.304 56.3344 150.438 56.1605 150.444C56.1562 150.442 56.0388 150.258 56.0303 150.256C55.9098 150.219 56.0104 150.471 56.03 150.644C56.0501 150.817 55.9685 150.802 55.7521 150.493C55.7299 150.56 55.5872 150.448 55.5067 150.376C55.4264 150.304 55.6108 150.687 55.611 150.696C55.6225 150.99 55.4516 150.801 55.3276 150.812C55.2676 150.817 55.1842 150.916 55.1395 150.982C55.1044 151.034 55.0432 150.95 55.0197 151.025C55.0164 151.035 55.0825 151.213 55.083 151.22C55.1021 151.453 54.9825 151.005 54.9467 150.93C54.8173 150.656 54.7523 150.509 54.7346 150.661C54.732 150.696 54.8742 151.348 54.8536 151.395C54.8287 151.453 54.7806 151.218 54.757 151.284C54.7549 151.29 54.7931 151.432 54.7667 151.432C54.6445 151.435 54.502 151.378 54.3842 151.414C54.3678 151.419 54.4305 151.645 54.4065 151.655C54.3827 151.665 54.3579 151.674 54.3324 151.68C54.2377 151.702 54.1331 151.692 54.0348 151.615C54.0042 151.59 54.0056 151.426 53.9949 151.378C53.9323 151.089 53.9211 151.518 53.9116 151.527C53.7144 151.748 53.5475 151.365 53.3356 151.541C53.3267 151.552 53.2045 152.004 53.1888 151.609C53.1867 151.583 53.1804 151.179 53.1232 151.45C53.1193 151.467 53.127 151.675 53.0842 151.65C53.0428 151.626 52.9524 151.755 52.92 151.521C52.9083 151.448 52.9247 151.046 52.822 151.353C52.8191 151.375 52.602 152.071 52.6566 151.574C52.6659 151.492 52.7699 150.976 52.6537 151.228C52.6305 151.277 52.6308 151.397 52.5813 151.462C52.5026 151.561 52.4653 151.408 52.3386 151.618C52.3177 151.656 52.1696 151.987 52.1983 151.713C52.2032 151.67 52.2633 151.504 52.247 151.479C52.1724 151.359 52.0277 151.436 51.964 151.282C51.9424 151.228 52.0615 150.969 52.0544 150.885C52.047 150.8 52.0093 150.705 51.9213 150.808C51.8311 150.911 51.6901 151.345 51.6113 151.349C51.2586 151.36 51.0959 150.955 50.8582 150.705C50.8216 150.667 50.7509 150.82 50.6873 150.769C50.4569 150.604 49.9367 150.205 50.1022 149.763C50.2416 149.436 50.5531 149.578 50.5824 149.39C50.5856 149.373 50.5697 149.366 50.5416 149.365C50.4252 149.364 50.0855 149.453 50.0668 149.443C49.8397 149.339 50.0218 149.146 49.9149 149.03C49.8926 149.005 49.6943 149.091 49.6773 149.067C49.6168 148.985 49.6892 148.872 49.6567 148.795C49.6416 148.76 49.4822 148.796 49.4885 148.759C49.5018 148.67 49.5596 148.588 49.7032 148.496C49.7163 148.488 49.9229 148.508 49.9245 148.454C49.9266 148.365 50.0702 148.257 49.9118 148.168C49.8643 148.143 49.4908 148.146 49.748 148.079C49.8019 148.065 50.2495 148.084 49.8631 148.011C49.7984 148.004 49.2802 147.852 49.6209 147.807C49.7104 147.796 50.0788 147.784 50.0241 147.748C50.0154 147.743 49.814 147.744 49.7971 147.714C49.741 147.608 49.7757 147.506 49.7314 147.392C49.7194 147.361 49.5075 147.369 49.4965 147.322C49.4659 147.192 49.5523 147.05 49.6468 146.953C49.682 146.918 49.8392 146.993 49.8581 146.995C50.1635 147.033 49.7775 146.892 49.7599 146.867C49.6544 146.723 49.864 146.707 49.8506 146.599C49.8477 146.569 49.6584 146.516 49.6441 146.505C49.5071 146.387 49.818 146.557 49.8672 146.538C50.006 146.487 50.0351 146.384 50.0585 146.281C50.067 146.243 49.8449 146.18 49.8556 146.145C49.9161 145.939 50.0594 145.748 50.2878 145.65C50.331 145.632 50.4559 145.757 50.4927 145.774C50.7465 145.901 50.4942 145.607 50.4805 145.566C50.4097 145.392 50.5515 145.465 50.5828 145.387C50.7074 145.078 51.0518 144.844 51.3724 144.719C51.4122 144.711 51.451 144.705 51.487 144.699C51.7214 144.655 51.9503 144.718 52.117 144.58C52.1277 144.572 52.0068 144.373 52.0147 144.363C52.1251 144.241 52.2996 144.254 52.4103 144.126C52.4196 144.115 52.3066 143.925 52.3185 143.902C52.3419 143.853 52.3971 143.84 52.4663 143.886C52.4998 143.907 52.555 144.09 52.5868 144.109C52.6606 144.152 52.714 144.145 52.745 144.092C52.758 144.069 52.6352 143.877 52.6598 143.863C52.8245 143.764 52.9903 143.651 53.2801 143.851C53.3002 143.864 53.4784 144.286 53.4718 144.195C53.4276 144.076 53.3733 143.936 53.3249 143.809C53.5629 143.638 53.8869 143.694 54.1789 143.635C54.1914 143.633 54.1029 143.405 54.127 143.399C54.2666 143.363 54.3938 143.26 54.5988 143.461C54.6192 143.48 54.7061 143.899 54.7339 143.826C54.7389 143.813 54.7892 143.744 54.7888 143.649C54.7884 143.635 54.7355 143.443 54.7566 143.432C54.8777 143.377 55.0295 143.396 55.1861 143.498C55.2109 143.515 55.2156 143.728 55.2331 143.742C55.3549 143.84 55.4669 143.666 55.5981 143.853C55.6842 143.978 55.6699 144.346 55.716 144.706C55.7224 144.757 55.7624 144.764 55.766 144.974C55.7744 145.503 55.7708 146.081 55.7823 146.645C55.7848 146.766 55.7937 146.635 55.7893 146.928C55.789 146.948 55.7849 147.045 55.7864 147.145C55.7876 147.213 55.7929 147.427 55.7952 147.515C55.7983 147.603 55.7921 147.424 55.7951 147.527C55.7988 147.632 55.8113 147.875 55.8142 147.903ZM55.1573 150.046C55.0432 149.873 55.3458 150.557 55.3078 150.378C55.3056 150.368 55.1631 150.054 55.1573 150.046ZM56.9291 146.573C56.6117 146.67 57.0939 146.613 57.3397 146.54C57.5847 146.464 57.025 146.542 56.9291 146.573ZM56.6081 146.238C56.3664 146.342 57.397 146.093 57.1767 146.096C57.1642 146.096 56.6221 146.232 56.6081 146.238ZM55.5727 144.817C55.574 144.827 55.6006 144.834 55.6005 144.825C55.5989 144.587 55.5416 144.572 55.5727 144.817ZM56.2568 145.956C56.1231 146.01 56.2921 145.997 56.4585 145.931C56.5922 145.877 56.4229 145.889 56.2568 145.956ZM53.469 149.611C53.4688 149.6 53.4536 149.589 53.4522 149.652C53.4477 149.855 53.4726 149.798 53.469 149.611ZM56.0614 145.39C56.0513 145.486 55.2365 145.811 55.3005 145.691C55.3121 145.669 55.5772 145.638 55.6453 145.592C55.7691 145.508 55.239 145.657 55.5056 145.525C55.5544 145.501 56.0638 145.384 56.0626 145.39C56.0622 145.39 56.0618 145.39 56.0614 145.39ZM54.7679 149.236C54.7633 149.227 54.7406 149.227 54.7441 149.237C54.83 149.458 54.8788 149.457 54.7679 149.236ZM52.7538 149.007C52.7606 148.987 52.7335 148.954 52.7245 148.971C52.5438 149.316 52.6181 149.392 52.7538 149.007ZM55.4199 148.058C55.2379 147.902 55.2215 147.877 55.4761 148.036C55.4535 148.041 55.4418 148.053 55.4199 148.058Z" fill="white"/>
<path d="M456.566 259.253C456.651 259.304 456.638 259.23 456.577 259.151C456.559 259.126 456.518 259 456.501 258.978C456.467 258.936 456.474 259.003 456.43 258.954C456.415 258.938 456.343 258.741 456.329 258.728C456.246 258.662 456.22 258.733 456.145 258.72C455.77 258.659 455.392 258.803 455.01 258.964C454.884 259.017 454.633 258.968 454.572 259.123C454.565 259.141 454.688 259.279 454.695 259.293C454.801 259.506 454.582 259.204 454.526 259.186C454.302 259.115 454.176 259.198 454.125 259.334C454.104 259.393 454.383 259.636 454.208 259.515C454.197 259.507 454.079 259.35 454.055 259.344C453.998 259.33 453.973 259.398 453.942 259.404C453.883 259.415 453.879 259.421 453.841 259.452C453.818 259.47 453.78 259.476 453.743 259.485C453.71 259.484 453.679 259.488 453.68 259.522C453.681 259.535 453.831 259.668 453.847 259.701C453.863 259.733 453.832 259.742 453.789 259.719C453.746 259.696 453.63 259.589 453.602 259.567C453.355 259.385 453.65 259.692 453.659 259.699C453.747 259.876 453.507 259.809 453.46 259.907C453.428 259.978 453.474 260.083 453.443 260.15C453.405 260.23 453.281 260.289 453.286 260.39C453.286 260.401 453.521 260.422 453.522 260.434C453.533 260.556 453.502 260.668 453.349 260.811C453.333 260.826 453.126 260.816 453.098 260.832C452.93 260.923 452.546 261.164 453.446 261.078C453.444 261.083 453.442 261.087 453.44 261.092C453.415 261.143 453.383 261.205 453.23 261.291C453.125 261.352 452.898 261.375 453.003 261.395C453.026 261.399 453.214 261.336 453.234 261.345C453.319 261.382 453.277 261.464 453.393 261.485C453.417 261.489 453.583 261.426 453.614 261.419C453.864 261.352 453.48 261.542 453.456 261.565C453.271 261.726 453.382 261.751 453.411 261.822C453.418 261.839 453.622 261.714 453.635 261.726C453.703 261.785 453.727 261.869 453.683 261.998C453.672 262.027 453.491 262.119 453.477 262.139C453.422 262.227 453.749 262.028 453.701 262.106C453.692 262.123 453.545 262.214 453.53 262.226C453.296 262.414 453.66 262.197 453.671 262.196C453.819 262.186 453.493 262.489 453.596 262.52C453.609 262.523 453.768 262.371 453.792 262.387C453.948 262.488 454.022 262.658 454.035 262.912C454.037 262.951 453.909 263.057 453.897 263.073C453.703 263.327 454.007 263.029 454.025 263.023C454.154 262.985 453.98 263.305 454.341 262.946C454.345 262.957 454.349 262.967 454.353 262.977C454.5 263.275 454.838 263.192 454.922 263.703C454.924 263.709 454.836 263.9 454.84 263.912C454.889 264.059 454.997 263.751 455.183 263.395C455.227 263.305 455.111 263.773 455.106 263.808C455.08 263.937 454.967 264.227 454.964 264.253C454.952 264.457 455.257 263.472 455.302 263.485C455.303 263.487 455.243 263.668 455.242 263.687C455.239 263.748 455.273 263.679 455.269 263.746C455.258 263.899 455.152 264.389 455.276 264.119C455.291 264.084 455.416 263.513 455.451 263.549C455.466 263.564 455.543 263.568 455.558 263.609C455.574 263.65 455.531 263.833 455.531 263.842C455.561 264.098 455.521 264.196 455.515 264.568C455.516 264.938 455.604 264.065 455.627 263.97C455.651 263.874 455.68 264.083 455.69 264.156C455.698 264.228 455.672 264.346 455.681 264.387C455.75 264.657 455.744 263.955 455.774 263.818C455.836 263.491 455.857 264.141 455.92 264.204C455.935 264.221 455.921 264.074 455.933 264.06C455.98 264.006 456.023 264.207 456.068 264.017C456.078 263.986 456.081 263.594 456.137 263.876C456.146 263.916 456.152 264.079 456.178 264.112C456.209 264.153 456.259 264.178 456.291 264.154C456.299 264.149 456.305 264.141 456.311 264.129C456.33 264.085 456.255 263.827 456.3 263.904C456.32 263.938 456.322 264.096 456.359 264.147C456.397 264.197 456.468 264.175 456.494 264.163C456.52 264.151 456.457 263.958 456.456 263.945C456.451 263.866 456.471 263.76 456.475 263.759C456.657 263.685 456.981 263.923 457.137 263.717C457.149 263.701 457.04 263.517 457.041 263.512C457.05 263.407 457.273 263.931 457.403 264.077C457.192 263.698 457.252 263.755 457.266 263.693C457.273 263.663 457.181 263.522 457.174 263.506C457.073 263.271 457.253 263.546 457.293 263.601C457.436 263.804 457.306 263.541 457.403 263.676C457.5 263.809 457.597 264.036 457.634 264.009C457.563 263.87 457.326 263.541 457.317 263.469C457.279 263.203 457.624 263.348 457.723 263.311C457.818 263.278 457.823 263.236 457.901 263.243C458.044 263.254 457.819 263.051 457.77 262.91C457.719 262.77 458.2 263.332 458.315 263.443C458.43 263.553 458.327 263.426 458.395 263.481C458.464 263.536 458.518 263.634 458.563 263.637C458.608 263.639 458.47 263.379 458.358 263.255C458.124 262.992 457.841 262.752 457.978 262.798C457.986 262.801 458.116 262.946 458.14 262.949C458.331 262.968 458.423 262.88 458.605 262.867C458.63 262.865 458.788 263.014 458.805 263.014C458.811 263.014 458.816 263.014 458.82 263.014C458.963 263 458.664 262.806 458.384 262.527C458.805 262.864 459.088 263.039 459.144 262.967C459.178 262.924 458.98 262.795 458.862 262.674C458.826 262.638 458.98 262.701 458.891 262.633C458.602 262.414 458.25 262.213 458.422 262.244C458.43 262.245 458.591 262.362 458.607 262.359C458.714 262.338 458.397 262.131 458.391 262.05C458.385 261.987 458.634 262.01 458.696 261.964C459.246 262.222 459.153 262.088 458.775 261.907C458.807 261.874 458.801 261.824 458.869 261.805C458.892 261.798 459.055 261.863 459.074 261.867C459.366 261.931 458.985 261.785 458.972 261.773C458.85 261.643 459.17 261.618 458.882 261.491C458.872 261.485 458.453 261.438 458.761 261.451C458.782 261.45 458.971 261.497 458.989 261.458C459.007 261.426 459.234 261.333 459.034 261.289C458.985 261.275 458.644 261.3 458.904 261.239C458.94 261.229 459.059 261.212 459.124 261.195C459.331 261.135 458.913 261.214 459.261 261.112C459.609 261.012 459.844 260.839 459.573 260.834C459.565 260.832 459.245 260.941 459.242 260.921C459.236 260.885 459.273 260.805 459.25 260.77C459.239 260.755 459.067 260.875 459.062 260.875C459.028 260.869 459.008 260.858 458.995 260.843C458.953 260.79 459.005 260.655 458.967 260.536C458.955 260.505 458.729 260.689 458.829 260.483C458.931 260.252 459.583 259.45 459.295 259.552C459.17 259.588 458.456 260.681 458.71 260.05C458.475 260.112 458.461 259.729 458.2 259.883C458.189 259.89 458.034 260.221 458.02 260.21C457.998 260.193 458.044 260.028 458.029 260.011C457.97 259.934 457.85 260.047 457.784 260.001C457.759 259.984 457.824 259.82 457.792 259.799C457.761 259.779 457.668 259.993 457.655 259.871C457.646 259.779 457.749 259.315 457.715 259.247C457.579 259.694 457.549 259.675 457.457 259.777C457.439 259.797 457.405 259.956 457.395 259.974C457.351 260.048 457.369 259.913 457.324 259.995C457.313 260.015 457.269 260.168 457.257 260.193C457.16 260.409 457.204 260.049 457.211 259.986C457.238 259.747 457.165 259.942 457.162 259.844C457.158 259.746 457.232 259.645 457.213 259.582C457.175 259.449 457.079 259.45 457.01 259.425C456.982 259.416 456.948 259.627 456.943 259.63C456.871 259.668 456.869 259.433 456.732 259.836C456.964 258.763 456.671 259.93 456.643 259.696C456.641 259.678 456.76 259.172 456.804 259.105C456.848 259.038 456.846 259.205 456.91 259.098C456.925 259.074 457.094 258.615 457.108 258.588C457.218 258.379 457.031 259.131 457.023 259.173C456.937 259.626 457.127 259.134 457.152 259.103C457.266 258.962 457.298 259.083 457.389 258.985C457.448 258.922 457.587 258.434 457.615 258.458C457.709 258.537 457.547 259.228 457.819 258.667C457.877 258.548 458.014 258.01 457.969 258.452C457.966 258.479 457.907 258.879 458.015 258.648C458.029 258.619 458.077 258.465 458.087 258.453C458.151 258.381 458.139 258.513 458.199 258.467C458.26 258.422 458.342 258.352 458.373 258.421C458.393 258.462 458.333 258.76 458.322 258.835C458.289 259.048 458.449 258.736 458.386 258.986C458.32 259.238 458.141 259.591 458.14 259.769C458.289 259.375 458.445 258.973 458.597 258.579C458.742 258.649 458.838 258.835 459.001 258.89C459.022 258.897 459.097 258.683 459.123 258.685C459.232 258.697 459.24 258.881 459.369 258.879C459.469 258.876 459.681 258.722 459.808 258.733C459.601 259.171 459.815 259.119 459.887 259.233C459.912 259.272 459.829 259.37 459.825 259.421C459.809 259.61 460.046 259.254 460.116 259.226C460.426 259.122 459.775 259.829 459.888 259.917C459.89 259.917 460.354 259.671 460.394 259.671C460.631 259.635 460.266 259.796 460.277 259.873C460.279 259.885 460.28 259.898 460.28 259.91C460.287 260.039 460.25 260.145 460.432 260.192C460.489 260.203 460.829 260.167 460.637 260.348C460.611 260.371 460.452 260.431 460.447 260.443C460.347 260.638 460.846 260.459 461.051 260.508C461.257 260.562 460.934 260.806 460.833 260.847C460.577 260.969 460.708 260.817 460.68 260.818C460.358 260.847 460.432 260.921 460.416 260.989C459.903 261.086 459.943 261.147 460.4 261.058C460.45 261.048 460.394 261.006 460.416 260.989C460.93 260.956 461.016 261.104 460.543 261.241C460.321 261.302 460.06 261.268 460.156 261.393C460.199 261.451 460.559 261.436 460.654 261.502C460.871 261.662 460.514 261.803 460.541 261.93C460.551 261.98 460.753 261.974 460.765 262.011C460.798 262.113 460.636 262.151 460.685 262.253C460.69 262.262 460.893 262.301 460.888 262.329C460.849 262.542 460.662 262.658 460.578 262.833C460.538 262.917 460.563 263.118 460.496 263.19C460.38 263.319 460.027 263.316 460.016 263.459C460.007 263.554 460.185 263.658 460.278 263.77C460.454 263.992 459.985 263.803 459.917 263.767C459.915 263.766 459.92 263.68 459.813 263.645C459.625 263.527 459.917 263.765 459.917 263.767C459.891 263.754 459.838 263.777 459.801 263.806C459.774 263.827 459.756 263.852 459.761 263.871C459.768 263.897 459.923 264.015 459.924 264.026C459.934 264.286 459.831 264.473 459.626 264.547C459.62 264.547 459.47 264.388 459.46 264.389C459.314 264.397 459.448 264.637 459.482 264.82C459.517 265.002 459.419 265.017 459.136 264.765C459.112 264.846 458.93 264.781 458.824 264.735C458.72 264.689 458.971 265.032 458.972 265.042C459.003 265.355 458.778 265.217 458.618 265.276C458.541 265.305 458.438 265.441 458.383 265.526C458.34 265.594 458.254 265.528 458.227 265.615C458.223 265.627 458.32 265.789 458.321 265.797C458.36 266.033 458.176 265.607 458.124 265.54C457.937 265.299 457.841 265.169 457.824 265.334C457.822 265.372 458.049 266.001 458.024 266.055C457.994 266.123 457.915 265.897 457.887 265.972C457.884 265.979 457.944 266.113 457.908 266.122C457.742 266.162 457.541 266.147 457.376 266.214C457.353 266.223 457.454 266.436 457.421 266.453C457.265 266.531 457.069 266.572 456.877 266.499C456.83 266.481 456.824 266.315 456.806 266.269C456.699 265.991 456.701 266.424 456.687 266.434C456.677 266.443 456.668 266.451 456.658 266.458C456.377 266.663 456.117 266.328 455.817 266.503C455.804 266.514 455.645 266.968 455.603 266.571C455.598 266.545 455.569 266.141 455.498 266.411C455.493 266.428 455.515 266.637 455.451 266.61C455.389 266.584 455.265 266.71 455.207 266.472C455.187 266.397 455.19 265.993 455.06 266.295C455.056 266.317 454.787 267.002 454.84 266.503C454.849 266.421 454.967 265.908 454.819 266.152C454.79 266.199 454.796 266.321 454.732 266.381C454.631 266.474 454.572 266.313 454.418 266.512C454.392 266.548 454.215 266.869 454.242 266.592C454.246 266.549 454.316 266.386 454.294 266.359C454.194 266.227 454.019 266.288 453.939 266.123C453.912 266.065 454.043 265.811 454.031 265.723C454.018 265.635 453.968 265.532 453.87 265.629C453.77 265.726 453.624 266.159 453.537 266.157C453.151 266.144 452.992 265.736 452.76 265.521C452.725 265.488 452.662 265.643 452.602 265.603C452.534 265.558 452.443 265.51 452.353 265.452C452.157 265.328 451.964 265.148 452.025 264.875C452.099 264.56 452.395 264.557 452.387 264.391C452.386 264.314 451.962 264.634 451.939 264.633C451.714 264.641 451.818 264.407 451.679 264.354C451.65 264.343 451.504 264.501 451.481 264.49C451.399 264.45 451.418 264.322 451.356 264.271C451.328 264.249 451.203 264.354 451.193 264.32C451.167 264.239 451.18 264.141 451.26 263.991C451.268 263.977 451.459 263.896 451.433 263.846C451.39 263.766 451.455 263.593 451.269 263.59C451.213 263.59 450.896 263.786 451.079 263.592C451.117 263.551 451.509 263.334 451.138 263.469C451.078 263.494 450.554 263.633 450.814 263.407C450.883 263.348 451.185 263.135 451.117 263.13C451.106 263.13 450.939 263.242 450.907 263.223C450.796 263.153 450.762 263.035 450.655 262.952C450.626 262.929 450.457 263.059 450.42 263.021C450.315 262.917 450.298 262.731 450.313 262.58C450.319 262.524 450.493 262.5 450.51 262.49C450.778 262.337 450.38 262.439 450.35 262.426C450.175 262.353 450.333 262.205 450.255 262.109C450.234 262.081 450.05 262.152 450.031 262.15C449.849 262.125 450.202 262.088 450.23 262.038C450.308 261.898 450.266 261.777 450.221 261.661C450.205 261.619 449.989 261.706 449.977 261.666C449.974 261.659 449.972 261.652 449.97 261.644C449.902 261.437 449.902 261.205 450.013 260.99C450.035 260.948 450.211 260.966 450.25 260.955C450.527 260.889 450.144 260.821 450.108 260.8C449.941 260.713 450.095 260.676 450.068 260.597C449.929 260.203 450.099 259.697 450.267 259.334C450.485 258.852 450.798 258.55 451.036 258.1C451.051 258.072 450.839 257.972 450.851 257.944C451.015 257.597 451.329 257.363 451.571 257.066C451.573 257.062 451.576 257.058 451.578 257.055C451.589 257.038 451.422 256.892 451.433 256.861C451.457 256.795 451.522 256.753 451.615 256.765C451.66 256.77 451.754 256.939 451.797 256.942C451.897 256.949 451.961 256.914 451.994 256.84C452.007 256.808 451.826 256.667 451.855 256.639C452.048 256.445 452.239 256.239 452.641 256.3C452.668 256.304 452.959 256.658 452.937 256.564C452.863 256.461 452.772 256.342 452.691 256.233C452.974 255.927 453.403 255.821 453.787 255.617C453.803 255.608 453.65 255.417 453.681 255.399C453.863 255.294 454.021 255.127 454.339 255.237C454.37 255.248 454.552 255.634 454.58 255.548C454.585 255.532 454.65 255.438 454.634 255.343C454.632 255.329 454.53 255.156 454.558 255.136C454.726 255.025 454.954 254.979 455.214 255.021C455.256 255.028 455.285 255.242 455.315 255.249C455.517 255.301 455.69 255.087 455.952 255.243C456.121 255.351 456.11 255.723 456.207 256.077C456.219 256.127 456.294 256.13 456.304 256.341C456.323 256.869 456.333 257.447 456.359 258.01C456.365 258.131 456.335 258.001 456.356 258.294C456.357 258.314 456.385 258.41 456.398 258.509C456.408 258.577 456.412 258.791 456.431 258.878C456.452 258.965 456.448 258.785 456.473 258.886C456.5 258.988 456.529 259.23 456.566 259.253ZM458.363 264.518C458.207 264.379 458.629 264.996 458.571 264.818C458.568 264.808 458.37 264.525 458.363 264.518ZM458.616 259.356C458.538 259.681 458.774 259.256 458.836 259.005C458.895 258.753 458.638 259.257 458.616 259.356ZM457.975 259.373C457.952 259.639 458.303 258.639 458.164 258.818C458.157 258.829 457.976 259.357 457.975 259.373ZM455.964 256.216C455.966 256.226 456.012 256.227 456.011 256.217C455.992 255.979 455.893 255.979 455.964 256.216ZM457.371 259.464C457.351 259.607 457.448 259.463 457.474 259.285C457.495 259.141 457.396 259.286 457.371 259.464ZM455.927 264.569C455.926 264.558 455.902 264.548 455.903 264.611C455.906 264.814 455.941 264.757 455.927 264.569ZM456.485 259.246C456.606 259.317 456.47 260.186 456.354 260.055C456.333 260.031 456.477 259.798 456.463 259.713C456.439 259.559 456.266 260.082 456.277 259.781C456.279 259.726 456.479 259.24 456.486 259.245C456.486 259.245 456.485 259.245 456.485 259.246ZM457.823 263.8C457.817 263.792 457.786 263.803 457.791 263.811C457.911 264.017 457.977 263.994 457.823 263.8ZM454.773 263.861C454.78 263.841 454.729 263.796 454.719 263.813C454.517 264.147 454.636 264.247 454.773 263.861ZM458.711 261.97C458.506 261.845 458.489 261.813 458.775 261.907C458.75 261.926 458.737 261.951 458.711 261.97Z" fill="white"/>
</svg>
