<svg width="31" height="34" viewBox="0 0 31 34" fill="none" xmlns="http://www.w3.org/2000/svg">
<path d="M16.7016 17.2328C16.4459 17.2405 16.1258 17.1291 15.8912 17.013C15.8166 16.9767 15.8736 16.8786 15.8229 16.8488C15.7237 16.7908 15.6176 16.8263 15.5222 16.7614C15.4907 16.7394 15.5596 16.5803 15.5259 16.561C15.3387 16.4562 15.1417 16.4691 14.9485 16.4041C13.9799 16.0819 13.011 15.8969 12.0161 15.7377C11.6867 15.6852 11.2948 15.5063 10.9508 15.5575C10.9104 15.5636 10.9276 15.7119 10.9195 15.7237C10.7933 15.9043 10.8455 15.6088 10.77 15.5662C10.4707 15.398 10.1228 15.3777 9.83342 15.436C9.7072 15.4613 9.83534 15.7532 9.70837 15.5899C9.6995 15.5789 9.72967 15.4221 9.69509 15.4057C9.61587 15.3689 9.47248 15.3998 9.41105 15.3892C9.29352 15.3678 9.27437 15.3701 9.16606 15.3727C9.01918 15.375 8.83468 15.3075 8.67973 15.3549C8.6462 15.3656 8.70332 15.5221 8.65172 15.5535C8.59987 15.5847 8.45997 15.5836 8.41028 15.5507C8.35906 15.5178 8.36635 15.3903 8.35497 15.3624C8.25753 15.1267 8.13127 15.4818 8.11393 15.4927C7.75725 15.6814 7.4139 15.5479 7.07711 15.6338C6.82406 15.6991 6.58711 15.8436 6.37229 15.925C6.11774 16.0208 5.87511 16.0534 5.67955 16.2118C5.6594 16.2281 5.79433 16.3632 5.77158 16.3825C5.71151 16.4338 5.65248 16.4859 5.59675 16.5356C5.3858 16.7249 5.16812 16.902 4.91185 17.0638C4.87715 17.0857 4.78115 16.9415 4.73832 16.9578C4.48098 17.0516 3.96676 17.22 4.50325 17.7269C4.39391 17.847 4.27291 18.0001 4.07594 18.0634C3.9489 18.1052 3.83111 17.9393 3.84508 18.0818C3.8483 18.1137 4.0052 18.1532 3.99979 18.195C3.97773 18.3693 3.85606 18.5151 3.86971 18.6991C3.87292 18.7364 4.00781 18.7807 4.02803 18.7987C4.19161 18.9448 3.82804 18.9432 3.79441 18.9639C3.54568 19.1098 3.56457 19.2934 3.50518 19.492C3.49141 19.5383 3.68982 19.5333 3.68346 19.579C3.64859 19.814 3.58108 20.047 3.45798 20.2642C3.43017 20.3127 3.2786 20.2378 3.25711 20.2599C3.16435 20.3599 3.46307 20.4311 3.38273 20.5261C3.36622 20.5465 3.23057 20.515 3.21491 20.517C2.96891 20.5502 3.29788 20.651 3.3034 20.6676C3.38033 20.8854 3.01611 20.9876 3.05283 21.2014C3.05772 21.2264 3.2361 21.1817 3.23926 21.2506C3.26182 21.7091 3.22278 22.186 3.12494 22.6582C3.11003 22.7316 2.97407 22.693 2.95828 22.6989C2.71251 22.798 3.05633 22.8129 3.07151 22.8343C3.18262 23.0059 2.9248 23.2207 3.34479 23.2823C3.34338 23.3399 3.34442 23.397 3.3475 23.4536C3.37893 24.104 3.81748 24.5997 3.97206 25.3523C3.97468 25.3627 3.83092 25.4506 3.83695 25.471C3.91237 25.7199 4.08948 25.522 4.42849 25.4304C4.5121 25.4056 4.30137 25.748 4.28815 25.7751C4.23675 25.8733 4.02447 26.0101 4.01829 26.0333C3.97745 26.2233 4.5722 25.6527 4.66789 25.7533C4.67001 25.7575 4.54724 25.8487 4.54465 25.8678C4.53668 25.9281 4.60574 25.9127 4.59381 25.9751C4.56559 26.1186 4.30694 26.4271 4.56677 26.3542C4.59975 26.3437 4.90698 25.9912 4.98254 26.093C5.01167 26.134 5.18607 26.2816 5.21292 26.3444C5.24054 26.4088 5.10892 26.4939 5.10792 26.5017C5.10947 26.7666 5.00596 26.7861 4.88513 27.0705C4.76808 27.3559 5.19697 26.8005 5.27427 26.7631C5.35095 26.7255 5.34679 26.934 5.33693 26.9991C5.32649 27.0639 5.23508 27.1135 5.23756 27.1569C5.25869 27.4432 5.51956 26.9362 5.6363 26.8864C5.90887 26.7647 5.68433 27.2465 5.76475 27.3689C5.78589 27.4015 5.83203 27.2885 5.86451 27.2986C5.99171 27.3389 5.96209 27.5172 6.16736 27.4791C6.20118 27.4732 6.47302 27.2811 6.40694 27.5133C6.39741 27.5467 6.29908 27.6367 6.32857 27.6916C6.37313 27.7743 6.48053 27.8793 6.57857 27.8911C6.65082 27.8997 6.70395 27.6799 6.73667 27.7799C6.75135 27.8245 6.62673 27.8929 6.66037 27.9682C6.69455 28.044 6.84456 28.1319 6.90387 28.1633C6.9629 28.1945 7.01678 28.0375 7.02711 28.031C7.0874 27.9949 7.2363 27.9942 7.24586 28.0001C7.73435 28.2722 8.05979 28.7644 8.5942 28.9407C8.63603 28.9547 8.68892 28.7898 8.69611 28.7904C8.86084 28.795 8.54847 29.1447 8.57191 29.3277C8.71688 29.0125 8.74245 29.0964 8.8531 29.1099C8.90655 29.1161 8.9426 28.984 8.95292 28.9738C9.11118 28.8255 9.03923 29.0838 9.02734 29.1381C8.98323 29.3375 9.13677 29.1525 9.10771 29.2859C9.07969 29.4186 8.92322 29.5586 9.01511 29.6012C9.09528 29.5025 9.17197 29.1788 9.26332 29.1653C9.60695 29.1142 9.98223 29.5723 10.1827 29.6922C10.3828 29.8125 10.4603 29.8219 10.5652 29.9178C10.7556 30.0908 10.7715 29.8348 10.9536 29.7944C11.1356 29.7537 10.8327 30.2671 10.8019 30.3925C10.7711 30.5177 10.8448 30.407 10.8417 30.4819C10.8387 30.5567 10.7509 30.613 10.7986 30.6621C10.8465 30.7115 11.0951 30.5718 11.1674 30.4579C11.3209 30.2169 11.3657 29.9147 11.4767 30.0746C11.4831 30.084 11.3942 30.2153 11.4216 30.2439C11.6422 30.4671 11.9181 30.5887 12.1483 30.7956C12.1798 30.8242 12.082 30.9714 12.0997 30.9899C12.284 31.1831 12.3121 30.8799 12.5547 30.6275C12.4124 30.9249 12.3614 31.1539 12.4217 31.2772C12.4266 31.2797 12.4426 31.2839 12.4478 31.2857C12.4712 31.3217 12.5041 31.3462 12.5467 31.3578C12.6544 31.3874 12.6827 31.2001 12.7849 31.0891C12.8155 31.0556 12.859 31.2002 12.8944 31.1178C13.0111 30.8484 13.0194 30.5162 13.1708 30.6874C13.1773 30.6953 13.1133 30.8428 13.1387 30.859C13.3027 30.9646 13.3966 30.6757 13.5985 30.6869C13.7549 30.6951 13.9833 30.9386 14.1502 31.0071C14.039 31.4793 14.2301 31.4086 14.368 31.0964C14.4773 31.1346 14.6046 31.1428 14.7029 31.2109C14.7369 31.2342 14.6834 31.3664 14.685 31.3822C14.7088 31.6306 14.8259 31.3226 14.8527 31.3151C15.1407 31.248 15.3096 31.5325 15.6087 31.3427C15.6193 31.3358 15.6945 31.0071 15.7171 31.2613C15.7185 31.2788 15.608 31.4146 15.7241 31.4476C15.8423 31.4812 16.0362 31.6982 16.2288 31.5711C16.2754 31.5405 16.4177 31.2863 16.467 31.51C16.4734 31.5404 16.4469 31.6341 16.4545 31.6896C16.48 31.8669 16.5581 31.5342 16.5751 31.8292C16.5911 32.124 16.6927 32.3579 16.889 32.1825C16.8954 32.1775 16.9714 31.9153 17.0242 31.9264C17.1088 31.9444 17.2215 32.0147 17.3123 32.0232C17.3552 32.0272 17.3466 31.8575 17.3544 31.8553C17.6482 31.7935 17.8364 31.9618 18.1402 32.0485C18.1971 32.0649 18.3702 31.8468 18.4704 32.0324C18.5818 32.2352 18.4169 33.0532 18.7185 32.8674C18.8423 32.7924 18.9956 31.7519 19.1961 32.2916C19.5845 32.1546 19.9709 32.411 20.3485 32.1693C20.3659 32.1585 20.3801 31.8625 20.42 31.8605C20.4804 31.8581 20.5346 31.9872 20.579 31.9889C20.7682 31.9983 20.9066 31.8497 21.0783 31.8228C21.1438 31.8118 21.1579 31.9542 21.239 31.939C21.2926 31.9285 21.309 31.8406 21.3492 31.7973L21.3349 31.8059C21.3438 31.7767 21.3626 31.7556 21.4094 31.7489C21.5092 31.7394 21.8746 31.8885 21.9892 31.7843C21.6714 31.5865 21.7224 31.5209 21.6876 31.3573C21.6803 31.3265 21.5505 31.2984 21.5407 31.2815C21.4968 31.2146 21.6124 31.2157 21.559 31.1491C21.5461 31.1332 21.426 31.0897 21.4083 31.0752C21.2522 30.9552 21.5563 30.9333 21.6108 30.921C21.815 30.8884 21.6618 30.811 21.7474 30.7653C21.8332 30.7159 21.9062 30.8305 21.9655 30.7626C22.0886 30.619 22.0946 30.4029 22.1139 30.2398C22.1209 30.1742 21.9473 30.2053 21.9444 30.1955C21.9121 30.061 22.1 29.9336 21.7639 29.8457C22.6445 29.789 21.6827 29.7627 21.8629 29.5815C21.8774 29.5671 22.2929 29.5561 22.3525 29.6164C22.412 29.6772 22.2797 29.7626 22.3712 29.8485C22.3929 29.8679 22.776 30.0008 22.7984 30.0196C22.975 30.158 22.3542 30.1348 22.3199 30.138C21.9486 30.182 22.354 30.3515 22.3783 30.3946C22.4922 30.5806 22.3842 30.7181 22.4482 30.885C22.4886 30.9949 22.8825 31.0945 22.8492 31.1806C22.7257 31.4844 22.1755 31.3565 22.4935 31.8361C22.5553 31.9423 22.9872 32.0929 22.5391 32.1655C22.508 32.1757 22.1403 32.1549 22.2205 32.37C22.2302 32.3981 22.3294 32.4812 22.3234 32.505C22.2994 32.5932 22.2398 32.6339 22.1792 32.6758C22.0895 32.749 21.8418 32.9218 21.7291 32.9485C21.6907 32.9511 21.6514 32.9556 21.6126 32.9902C21.5232 33.0693 21.4185 33.1745 21.289 33.1607C21.212 33.1526 21.0705 32.9368 21.0266 32.8857C20.904 32.738 20.8599 33.0298 20.7672 32.8369C20.679 32.642 20.725 32.3156 20.5708 32.2058C20.6199 32.5384 20.6628 32.8811 20.7066 33.2165C20.3709 33.2576 20.0433 33.1789 19.7271 33.2102C19.6877 33.2144 19.7375 33.3929 19.6947 33.402C19.5136 33.4392 19.354 33.3142 19.1717 33.3664C19.0289 33.4075 18.8704 33.5969 18.7193 33.6409C18.639 33.2541 18.4206 33.3764 18.2637 33.3318C18.2095 33.3165 18.2198 33.2142 18.1835 33.1783C18.047 33.0453 18.092 33.3888 18.048 33.4395C17.855 33.6546 17.9034 32.8866 17.7038 32.8881C17.694 32.8881 17.5279 33.2845 17.5066 33.308C17.376 33.4624 17.5019 33.1641 17.434 33.1268C17.31 33.0582 17.235 32.9515 17.0696 33.0528C17.0227 33.0831 16.8858 33.3239 16.8253 33.1165C16.8174 33.0894 16.8411 32.9557 16.8331 32.9467C16.6893 32.7942 16.6292 33.2157 16.5149 33.3454C16.3994 33.4749 16.2997 33.1627 16.2836 33.0745C16.2409 32.8462 16.3555 32.9906 16.3627 32.9698C16.448 32.7236 16.3393 32.7521 16.2639 32.7185C16.3161 32.304 16.2037 32.3117 16.1854 32.6853C16.1836 32.7262 16.251 32.6973 16.2639 32.7185C16.1318 33.1129 16.0006 33.1454 15.9296 32.7454C15.8972 32.5579 15.9883 32.3613 15.7908 32.4052C15.7006 32.4246 15.6839 32.7137 15.5946 32.7776C15.3896 32.9232 15.2132 32.6174 15.0312 32.6249C14.9643 32.6275 14.9965 32.7942 14.9496 32.8013C14.824 32.8202 14.7448 32.6837 14.6165 32.7192C14.6047 32.7225 14.5975 32.8893 14.5606 32.8839C14.2791 32.8452 14.0633 32.6904 13.7786 32.6229C13.6408 32.5904 13.3739 32.6215 13.2363 32.5696C12.9965 32.4808 12.7531 32.1733 12.5308 32.1765C12.3862 32.178 12.3747 32.3451 12.288 32.4388C12.2324 32.4991 12.1836 32.4919 12.143 32.453C12.1103 32.4414 12.0102 32.415 11.9791 32.3995C11.9081 32.3123 11.8863 32.1019 11.8842 32.0576C11.8842 32.0555 12.0106 32.0639 11.982 31.9615C12.0125 31.7838 11.8858 32.0574 11.8842 32.0576C11.8816 32.0147 11.6723 31.8905 11.6162 31.9017C11.5856 31.9079 11.5405 32.0581 11.5256 32.0586C11.1732 32.0667 10.8561 31.9782 10.582 31.7822C10.5779 31.777 10.6544 31.6197 10.6439 31.6095C10.4991 31.4633 10.3031 31.6113 10.1078 31.6644C9.91175 31.7171 9.81303 31.6267 9.8506 31.315C9.72728 31.3013 9.6253 31.1095 9.57016 30.9957C9.51493 30.8818 9.36026 31.1849 9.34952 31.1874C9.01351 31.269 8.95283 31.0253 8.71289 30.876C8.59801 30.804 8.33968 30.7319 8.19142 30.6987C8.07473 30.6736 8.04911 30.5711 7.93181 30.5682C7.91597 30.5678 7.85965 30.7091 7.8531 30.7123C7.66386 30.8186 7.88453 30.5158 7.89307 30.4458C7.92435 30.1913 7.93603 30.0532 7.75039 30.0831C7.70798 30.09 7.36798 30.5128 7.29497 30.5089C7.2017 30.5036 7.32057 30.3507 7.22115 30.3494C7.21274 30.3491 7.15776 30.4534 7.1124 30.4227C6.90259 30.2824 6.69402 30.0861 6.45983 29.9625C6.42789 29.9452 6.3736 30.1301 6.32567 30.1074C6.10225 30.0019 5.8699 29.8522 5.71353 29.6495C5.67443 29.5985 5.77656 29.5083 5.78638 29.4685C5.84583 29.2277 5.56726 29.4545 5.5476 29.4494C5.08292 29.3421 4.97534 28.8922 4.51894 28.734C4.49432 28.7266 4.11365 28.8969 4.23784 28.5946C4.24541 28.574 4.37716 28.2687 4.18044 28.3924C4.16801 28.4001 4.10697 28.5634 4.04326 28.4904C3.98036 28.418 3.79 28.4041 3.80668 28.1789C3.81121 28.1074 3.94975 27.8038 3.6887 27.9134C3.67246 27.9233 3.13476 28.216 3.35436 27.8749C3.39073 27.8188 3.68797 27.5202 3.43233 27.5753C3.38234 27.5854 3.35543 27.6902 3.25902 27.6788C3.10957 27.6603 3.08131 27.4726 2.84257 27.4946C2.80114 27.4996 2.51314 27.6119 2.61196 27.3976C2.62766 27.3643 2.74946 27.2889 2.72969 27.2437C2.6362 27.0281 2.41221 26.9095 2.3437 26.6621C2.32049 26.576 2.52642 26.4704 2.52523 26.3677C2.52453 26.266 2.47461 26.0961 2.33992 26.0826C2.20401 26.0676 1.95869 26.3536 1.85688 26.2531C1.40849 25.8019 1.29829 25.1089 1.14478 24.4684C1.12205 24.3718 1.01894 24.4874 0.977748 24.3438C0.941178 24.2137 0.896414 24.0589 0.858379 23.8898C0.758068 23.4777 0.682999 22.9656 0.871173 22.6624C1.07098 22.3455 1.26416 22.711 1.33908 22.479C1.37521 22.3697 0.948703 22.2713 0.934363 22.2435C0.789497 21.9828 0.975032 21.7952 0.921569 21.5573C0.910626 21.5078 0.738664 21.5529 0.731314 21.5103C0.704808 21.3639 0.787397 21.2135 0.781712 21.0743C0.778848 21.0116 0.647776 21.0148 0.661742 20.9573C0.693871 20.8203 0.759275 20.7013 0.894754 20.5808C0.90708 20.5702 1.06037 20.6672 1.07672 20.5685C1.10307 20.4074 1.24794 20.2271 1.15388 20.024C1.12554 19.9639 0.831093 19.912 1.05498 19.827C1.102 19.809 1.44849 19.9046 1.16912 19.7121C1.12172 19.6826 0.759739 19.3599 1.04984 19.3013C1.12594 19.2859 1.42902 19.2768 1.39995 19.2017C1.39499 19.1911 1.23039 19.189 1.22864 19.1305C1.22548 18.9247 1.29813 18.7269 1.31213 18.5143C1.31573 18.4571 1.13231 18.4868 1.14323 18.4022C1.17322 18.1684 1.31297 17.9061 1.44701 17.7155C1.49673 17.6452 1.60195 17.7512 1.61814 17.751C1.87927 17.7555 1.59896 17.5767 1.59459 17.5384C1.57047 17.3064 1.77679 17.2303 1.82362 17.0462C1.8373 16.9952 1.68111 16.957 1.67333 16.9415C1.60162 16.7821 1.81482 16.9826 1.87343 16.9368C2.0384 16.8097 2.12918 16.6227 2.21192 16.4483C2.24226 16.3841 2.04572 16.3574 2.0753 16.3002C2.24835 15.9589 2.49747 15.6383 2.80942 15.4134C2.86834 15.3714 2.94883 15.4939 2.98267 15.503C3.21618 15.5699 3.07592 15.2657 3.0773 15.2203C3.07859 15.0181 3.21262 15.055 3.28706 14.9422C3.39873 14.7739 3.53894 14.6116 3.69758 14.4596C4.16378 14.0144 4.73993 13.7429 5.18386 13.582C6.01957 13.2853 6.64028 13.2832 7.34316 13.1256C7.3886 13.1161 7.31231 12.9401 7.35159 12.9296C7.85468 12.8035 8.34872 12.8298 8.83199 12.7493C8.87225 12.7431 8.80411 12.5702 8.86899 12.5542C9.00317 12.5203 9.16712 12.5234 9.30406 12.5759C9.37028 12.6012 9.2869 12.7548 9.35307 12.7772C9.50399 12.83 9.66136 12.8402 9.81661 12.8113C9.8809 12.7986 9.78324 12.6186 9.86695 12.6163C10.4454 12.5975 11.0095 12.5872 11.5594 12.8551C11.5973 12.8735 11.6093 13.2415 11.6942 13.1767C11.7071 13.0756 11.7148 12.9562 11.7247 12.8479C12.5395 12.8441 13.3196 13.0525 14.1088 13.1716C14.1424 13.1766 14.1084 12.9766 14.1737 12.9854C14.548 13.0357 14.9197 13.0326 15.2724 13.2795C15.3076 13.3037 15.2386 13.6388 15.3574 13.6042C15.3778 13.5977 15.5496 13.5775 15.6039 13.5108C15.6115 13.5007 15.6051 13.3384 15.6595 13.342C15.9786 13.3664 16.2953 13.4541 16.5919 13.6025C16.6388 13.6266 16.5581 13.7852 16.5912 13.8038C16.8248 13.9343 17.1258 13.8554 17.3353 14.0492C17.4772 14.1798 17.3664 14.4583 17.4003 14.7579C17.405 14.8001 17.5029 14.8244 17.4781 14.9907C17.4158 15.409 17.2859 15.8559 17.2252 16.3028C17.212 16.399 17.3614 16.3199 17.2421 16.5366C17.2338 16.5511 17.1256 16.6106 17.0884 16.6848C17.0626 16.736 17.0612 16.9095 17.016 16.9729C16.9709 17.0362 16.9602 16.8887 16.8916 16.9605C16.823 17.0334 16.8125 17.229 16.7016 17.2328ZM9.32336 30.4845C9.31192 30.2985 9.04364 30.8333 9.1936 30.7459C9.20116 30.741 9.32415 30.4937 9.32336 30.4845ZM20.01 32.7242C19.8685 32.4712 19.809 32.8632 19.9123 33.0605C20.019 33.2571 20.0548 32.8006 20.01 32.7242ZM21.2519 32.3198C21.0612 32.1554 21.2381 32.9855 21.3628 32.7754C21.3702 32.7634 21.2634 32.3292 21.2519 32.3198ZM16.9953 14.7697C16.9951 14.7777 17.0639 14.7976 17.0669 14.7902C17.1373 14.6096 16.9994 14.5698 16.9953 14.7697ZM22.0249 31.0625C21.9037 31.0745 21.9914 31.2367 22.1444 31.2256C22.2698 31.212 22.1782 31.0421 22.0249 31.0625ZM5.59487 27.6064C5.59895 27.5984 5.56291 27.5619 5.53354 27.6028C5.44 27.7355 5.52491 27.7411 5.59487 27.6064ZM22.1872 28.9973C22.1548 29.2985 21.452 29.4692 21.5332 29.1497C21.5478 29.0914 21.7561 29.2765 21.8196 29.2025C21.9354 29.0662 21.4954 28.9751 21.7312 28.8355C21.7743 28.8102 22.1906 28.98 22.1881 28.9978C22.1878 28.9977 22.1875 28.9975 22.1872 28.9973ZM9.58359 29.8128C9.58535 29.8049 9.52462 29.7678 9.51974 29.7742C9.40343 29.9292 9.5264 30.0044 9.58359 29.8128ZM3.73439 25.3068C3.74518 25.2938 3.66847 25.1568 3.65337 25.1613C3.34705 25.265 3.51146 25.5577 3.73439 25.3068ZM14.1501 31.0203C14.2674 30.8511 14.3603 30.8488 14.3677 31.0961C14.2967 31.0673 14.2225 31.0488 14.1501 31.0203Z" fill="white"/>
<path d="M17.1223 13.5525C16.9909 12.9952 17.0819 12.618 17.1746 12.3201C17.2047 12.232 17.3071 12.2854 17.333 12.2253C17.3842 12.1031 17.3421 11.9983 17.4036 11.8856C17.4245 11.8489 17.5862 11.9148 17.6043 11.8762C17.701 11.6771 17.6841 11.4776 17.7499 11.2736C18.073 10.2978 18.3313 9.3775 18.6265 8.43489C18.723 8.12802 18.9633 7.78078 18.9791 7.44212C18.9807 7.40286 18.8321 7.38948 18.8221 7.37943C18.6696 7.22228 18.949 7.33167 19.0058 7.26791C19.2309 7.0127 19.3275 6.69341 19.3453 6.40393C19.3529 6.27911 19.0383 6.32311 19.229 6.24539C19.2419 6.23991 19.3851 6.31038 19.41 6.28201C19.4661 6.21711 19.4765 6.07034 19.5036 6.01751C19.5569 5.91486 19.5603 5.8963 19.5904 5.79259C19.6335 5.64893 19.7538 5.5054 19.7622 5.34327C19.7635 5.30861 19.5969 5.30863 19.5851 5.24934C19.5732 5.1902 19.6254 5.05457 19.6744 5.02029C19.7237 4.98485 19.8396 5.03857 19.8697 5.03834C20.1232 5.03847 19.8429 4.78861 19.8408 4.76561C19.8099 4.35486 20.0878 4.08947 20.1891 3.74574C20.2137 3.66169 20.2331 3.57353 20.2508 3.48407C20.2943 3.27424 20.3363 3.06535 20.417 2.87569C20.5579 2.54961 20.7699 2.30531 20.9537 1.98884C20.9737 1.95529 20.7896 1.89232 20.8157 1.84861C21.0828 1.39501 21.5487 0.935162 22.1697 0.788757C22.2301 0.775168 22.23 0.95739 22.2916 0.954464C22.6943 0.918312 23.139 1.19476 23.3396 0.480911C23.5247 0.502375 23.7292 0.544689 23.8806 0.646935C23.9807 0.653434 24.1954 0.772476 24.2773 0.830408C24.2951 0.875013 24.3081 0.921988 24.3145 0.971339C24.3322 1.11268 24.1345 1.17721 24.282 1.20731C24.3152 1.2146 24.3939 1.07215 24.4363 1.09254C24.6184 1.18242 24.7216 1.35836 24.9107 1.44081C24.9494 1.45727 25.0459 1.35319 25.0721 1.34395C25.2873 1.2717 25.1349 1.61382 25.1366 1.65378C25.162 1.96447 25.3233 2.04811 25.4609 2.23376C25.4925 2.27679 25.605 2.11082 25.6411 2.14867C25.8218 2.3404 25.9727 2.58272 26.0405 2.8382C26.0557 2.89613 25.8918 2.94195 25.892 2.97402C25.8937 3.11345 26.1652 2.96993 26.172 3.10408C26.1736 3.13208 26.0489 3.1943 26.0384 3.20619C25.8713 3.38958 26.1891 3.25949 26.2049 3.27096C26.4077 3.40601 26.1787 3.71509 26.3225 3.86774C26.3404 3.88659 26.4654 3.75073 26.5065 3.80942C26.7859 4.20876 26.9669 4.67799 27.034 5.16131C27.0449 5.23686 26.9032 5.24411 26.8904 5.25512C26.6903 5.42831 27.0194 5.33062 27.0406 5.34664C27.2002 5.47672 27.0062 5.74758 27.429 5.70729C27.6047 6.48464 28.0862 7.14543 27.9788 7.99499C27.9778 8.00554 27.8129 8.04039 27.8116 8.06114C27.7931 8.31201 28.0273 8.18987 28.3786 8.24632C28.467 8.26139 28.1348 8.48976 28.1105 8.50686C28.0221 8.57327 27.7722 8.6083 27.7566 8.62623C27.6355 8.77127 28.4199 8.51664 28.4614 8.65509C28.4614 8.65979 28.3105 8.68485 28.2995 8.7007C28.2647 8.75001 28.3331 8.76862 28.2933 8.81862C28.201 8.9337 27.8244 9.07287 28.0838 9.13198C28.1173 9.13908 28.5606 8.98778 28.5744 9.11764C28.5794 9.1686 28.6474 9.38404 28.6348 9.45376C28.6223 9.52309 28.4654 9.52038 28.4603 9.5265C28.3125 9.7433 28.2158 9.70229 27.9526 9.86042C27.6903 10.0177 28.3619 9.81564 28.4466 9.82973C28.5314 9.84502 28.4032 10.0054 28.3554 10.0489C28.3075 10.0924 28.2054 10.0799 28.1808 10.1139C28.02 10.3382 28.5373 10.1033 28.6597 10.1332C28.9497 10.2049 28.472 10.4381 28.453 10.5749C28.4479 10.6121 28.5562 10.5563 28.5743 10.584C28.645 10.6958 28.5032 10.8005 28.6798 10.9016C28.7086 10.9177 29.0387 10.9568 28.8315 11.0798C28.8016 11.0973 28.6688 11.0977 28.6522 11.1551C28.6272 11.2408 28.6306 11.3844 28.6912 11.4578C28.7356 11.5102 28.929 11.3959 28.8808 11.4852C28.8592 11.5249 28.7237 11.4901 28.6933 11.5623C28.6628 11.6341 28.7028 11.7927 28.72 11.8531C28.7373 11.9133 28.8886 11.8462 28.9003 11.8488C28.9678 11.8657 29.0692 11.9682 29.0711 11.9788C29.2006 12.5026 29.0262 13.0426 29.2055 13.535C29.2194 13.5741 29.3828 13.5174 29.3866 13.5231C29.4816 13.6494 29.0152 13.619 28.8825 13.7416C29.2214 13.668 29.1696 13.7358 29.224 13.8274C29.2504 13.8716 29.3782 13.8231 29.3925 13.8251C29.6056 13.8617 29.3542 13.9537 29.3032 13.975C29.1156 14.0534 29.3547 14.0642 29.2293 14.1172C29.1048 14.1698 28.9008 14.1307 28.9186 14.2223C29.0453 14.228 29.3536 14.106 29.4172 14.1679C29.658 14.402 29.4857 14.9483 29.4906 15.1638C29.4963 15.3824 29.5288 15.4494 29.5025 15.582C29.4546 15.8227 29.6807 15.7036 29.8092 15.8292C29.9375 15.955 29.3418 15.9665 29.2185 16.0038C29.0952 16.0406 29.2278 16.0445 29.1618 16.0784C29.0959 16.1121 29.003 16.0709 28.9848 16.1318C28.9665 16.1924 29.2116 16.3204 29.3462 16.324C29.6313 16.3311 29.9153 16.2207 29.8323 16.3893C29.8273 16.399 29.6693 16.39 29.6581 16.4261C29.5747 16.7162 29.6004 16.9875 29.5269 17.2707C29.5165 17.3095 29.3407 17.2964 29.3327 17.3192C29.2486 17.5561 29.5293 17.4424 29.8655 17.5302C29.4336 17.5505 29.1793 17.6496 29.195 17.8164C29.2044 17.9174 29.3898 17.8796 29.529 17.931C29.5709 17.9465 29.4499 18.0322 29.5394 18.0359C29.8321 18.0485 30.1474 17.9459 30.0375 18.1357C30.0322 18.1441 29.8719 18.1359 29.8651 18.1636C29.8205 18.3428 30.1241 18.3327 30.1794 18.518C30.2226 18.6613 30.0634 18.9369 30.0487 19.1065C29.5653 19.1474 29.6902 19.2937 30.029 19.3284C30.025 19.4377 30.0543 19.5564 30.0169 19.6623C30.0042 19.6992 29.8623 19.6877 29.8475 19.6935C29.6161 19.7821 29.9442 19.8014 29.9589 19.8236C30.1033 20.0648 29.8736 20.2901 30.1322 20.5154C30.1415 20.5233 30.4786 20.5124 30.238 20.5959C30.2214 20.6011 30.0627 20.5331 30.0592 20.6469C30.0556 20.7602 29.8905 20.985 30.0569 21.1319C30.097 21.1673 30.3764 21.246 30.1682 21.338C30.1399 21.3502 30.0427 21.3452 29.9901 21.3636C29.8222 21.423 30.1638 21.4275 29.8787 21.5029C29.5935 21.5781 29.3848 21.7101 29.5934 21.8538C29.5995 21.8584 29.8712 21.8795 29.8699 21.9293C29.8675 22.0089 29.8179 22.1247 29.8243 22.2077C29.8274 22.2474 29.9934 22.2126 29.9968 22.2193C30.1054 22.4812 29.9665 22.6868 29.9153 22.9718C29.9056 23.0245 30.1411 23.1645 29.9651 23.2746C29.7724 23.3952 28.9453 23.3167 29.1522 23.5638C29.2188 23.6441 29.9114 23.7174 29.9007 23.8532C29.8947 23.8852 29.8472 23.9168 29.7396 23.9456C29.8486 24.3143 29.5446 24.6221 29.6965 24.9972C29.7032 25.0143 29.9872 25.098 29.9789 25.136C29.9661 25.1915 29.8271 25.2076 29.8133 25.2469C29.7525 25.4103 29.8477 25.5804 29.8065 25.7413C29.7911 25.8023 29.655 25.7596 29.6363 25.8324C29.6178 25.9044 29.7936 25.9816 29.6894 26.0672C29.61 26.132 29.224 26.1443 29.1638 26.2345C29.5317 26.3007 29.5128 26.3674 29.5885 26.5055C29.6032 26.5321 29.7357 26.53 29.7493 26.5438C29.8072 26.6009 29.6936 26.6234 29.7576 26.6791C29.7729 26.6927 29.8984 26.7162 29.918 26.7286C30.0896 26.8358 29.7848 26.9028 29.7318 26.9136C29.5304 26.9564 29.6865 27.0239 29.6016 27.0697C29.5166 27.1152 29.442 27.0084 29.3841 27.0693C29.264 27.1956 29.2479 27.3847 29.2134 27.5302C29.2004 27.5886 29.3755 27.5812 29.3776 27.5904C29.3964 27.7192 29.1947 27.8073 29.5152 27.9388C28.6372 27.8569 29.5846 28.0282 29.3798 28.1671C29.3632 28.1781 28.9519 28.1196 28.9019 28.0554C28.8519 27.9915 28.9946 27.9353 28.9152 27.8449C28.8965 27.8241 28.5338 27.6502 28.5133 27.6324C28.3531 27.4913 28.965 27.5944 28.9995 27.5955C29.3725 27.6032 28.9849 27.4019 28.9627 27.3648C28.8609 27.1945 28.9706 27.0885 28.9008 26.9504C28.8558 26.8602 28.4582 26.7762 28.482 26.7177C28.5605 26.5244 29.1315 26.5535 28.6811 26.2778C28.5849 26.2192 28.1407 26.1833 28.5092 26.0995C28.5324 26.0944 28.8655 26.0397 28.676 25.9447C28.6521 25.9329 28.5243 25.9127 28.5152 25.9009C28.4564 25.8226 28.5655 25.7921 28.5278 25.7114C28.4902 25.6295 28.43 25.5315 28.4851 25.4532C28.518 25.407 28.7658 25.3718 28.8275 25.3552C29.0052 25.3077 28.738 25.1966 28.9476 25.1791C29.1584 25.1594 29.46 25.2853 29.6069 25.182C29.2735 25.1384 28.9318 25.0883 28.5967 25.0424C28.6373 24.7961 28.7697 24.5603 28.7761 24.3051C28.7766 24.2736 28.5938 24.2906 28.5896 24.2566C28.5726 24.112 28.7103 23.9979 28.6691 23.8471C28.6623 23.8223 28.6488 23.7965 28.6314 23.7699L28.6297 23.9028C28.5542 23.8084 28.4227 23.7119 28.3805 23.6161C28.7618 23.5244 28.6233 23.3465 28.6523 23.2128C28.6623 23.1659 28.7651 23.1642 28.7971 23.1297C28.915 22.9995 28.5781 23.0739 28.5231 23.0425C28.2879 22.9076 29.0562 22.8603 29.0282 22.6848C29.0269 22.6754 28.6114 22.5837 28.585 22.5698C28.4135 22.4802 28.7268 22.5459 28.7537 22.4826C28.803 22.3671 28.8965 22.2834 28.769 22.159C28.7313 22.1226 28.4708 22.0462 28.6638 21.9607C28.6891 21.9494 28.8247 21.9467 28.8322 21.9384C28.9558 21.7884 28.5303 21.8116 28.3813 21.7389C28.2322 21.6659 28.5176 21.5211 28.6005 21.4898C28.815 21.4082 28.6974 21.5353 28.7191 21.5376C28.9774 21.5643 28.9275 21.4744 28.9445 21.4024C29.3607 21.3649 29.3291 21.2674 28.9604 21.3279C28.9201 21.3347 28.9626 21.387 28.9445 21.4024C28.5314 21.3671 28.4719 21.2636 28.8459 21.1185C29.0211 21.0505 29.2336 21.0885 29.1454 20.9246C29.1054 20.8503 28.8206 20.9004 28.7376 20.8387C28.5482 20.7005 28.8003 20.4742 28.7457 20.318C28.7258 20.2611 28.5733 20.33 28.5543 20.2916C28.5034 20.19 28.6137 20.0882 28.5448 19.9883C28.5383 19.9793 28.376 20.016 28.3712 19.9837C28.3319 19.7412 28.418 19.5125 28.3972 19.2536C28.3872 19.1283 28.2756 18.9149 28.2812 18.7856C28.2899 18.5586 28.4996 18.2555 28.4212 18.0713C28.3707 17.9511 28.2097 17.9962 28.0923 17.9555C27.8649 17.8784 28.2319 17.6527 28.289 17.6205C28.2909 17.6194 28.3418 17.7234 28.4193 17.6561C28.5907 17.6025 28.2899 17.6216 28.289 17.6205C28.326 17.5997 28.3383 17.3799 28.3019 17.3412C28.282 17.3201 28.1285 17.3514 28.121 17.34C27.9485 17.0709 27.8741 16.7948 27.9084 16.4941C27.9108 16.4886 28.0851 16.4735 28.0887 16.4608C28.1436 16.2829 27.9173 16.2045 27.7729 16.0858C27.6287 15.9685 27.655 15.8516 27.9402 15.7275C27.8879 15.6283 27.9973 15.4603 28.0641 15.3628C28.1309 15.2653 27.7928 15.3041 27.785 15.2976C27.5374 15.099 27.7083 14.9314 27.699 14.6833C27.6952 14.5651 27.6089 14.3458 27.5513 14.2296C27.5049 14.1357 27.573 14.0619 27.5069 13.9796C27.4981 13.9685 27.3511 14.007 27.3447 14.0043C27.1485 13.9346 27.5216 13.919 27.583 13.8866C27.8064 13.7689 27.924 13.6987 27.7893 13.5895C27.7584 13.564 27.2183 13.5737 27.1778 13.5263C27.126 13.4639 27.3189 13.4561 27.2596 13.3906C27.2547 13.3849 27.1391 13.4079 27.1356 13.3612C27.1178 13.1445 27.1404 12.9023 27.0852 12.6894C27.0781 12.6603 26.9025 12.735 26.8893 12.6936C26.8265 12.4959 26.7868 12.2735 26.8302 12.0619C26.8415 12.0096 26.9759 12.0115 27.0116 11.9929C27.2274 11.8786 26.8739 11.8627 26.8641 11.8489C26.6229 11.522 26.8631 11.1917 26.6289 10.8582C26.6156 10.84 26.2228 10.7797 26.5103 10.636C26.5295 10.6265 26.8238 10.4802 26.596 10.477C26.5817 10.4769 26.4321 10.559 26.43 10.4837C26.4282 10.4097 26.2901 10.3189 26.4392 10.1734C26.4861 10.1275 26.7754 9.96849 26.5033 9.94288C26.4843 9.94072 25.8883 9.95415 26.2582 9.79672C26.3189 9.7704 26.7281 9.66642 26.4879 9.6126C26.4415 9.60265 26.3621 9.66725 26.2895 9.62712C26.1778 9.56617 26.2534 9.42115 26.0425 9.37105C26.0051 9.3622 25.7082 9.36843 25.898 9.24523C25.9277 9.22585 26.068 9.20322 26.0734 9.16645C26.0996 8.99203 25.9576 8.85302 26.0007 8.66882C26.0156 8.60322 26.2415 8.56158 26.2808 8.48494C26.32 8.40805 26.338 8.27475 26.2182 8.24482C26.099 8.21662 25.7771 8.39824 25.7192 8.31732C25.4692 7.97128 25.5326 7.52172 25.4128 7.1321C25.3949 7.07406 25.2926 7.16817 25.2576 7.08691C25.1297 6.7876 24.8018 6.33653 24.9305 5.96527C25.0348 5.6686 25.3079 5.85233 25.315 5.65744C25.3173 5.56229 24.8992 5.66793 24.8785 5.65585C24.6709 5.53964 24.777 5.33697 24.6464 5.21301C24.6189 5.18661 24.4846 5.29822 24.463 5.27519C24.388 5.19776 24.4034 5.06705 24.3439 4.98983C24.3169 4.95551 24.2072 5.02681 24.1966 4.98791C24.171 4.89731 24.1741 4.79377 24.2318 4.65178C24.2369 4.6386 24.4061 4.60488 24.3745 4.54037C24.3231 4.43675 24.3508 4.25245 24.1726 4.20691C24.1196 4.19419 23.8695 4.35684 23.9963 4.1749C24.0227 4.13708 24.3327 3.95522 24.0219 4.04839C23.9699 4.06292 23.5372 4.17083 23.7122 3.95335C23.7583 3.89589 23.9648 3.68069 23.9001 3.67061C23.8906 3.67006 23.7758 3.78466 23.7412 3.764C23.6234 3.69244 23.5491 3.56835 23.4286 3.50009C23.3961 3.48209 23.2998 3.62636 23.2561 3.59702C23.1351 3.51538 23.0552 3.36018 23.0026 3.2285C22.9829 3.17912 23.1062 3.10962 23.1147 3.09682C23.2499 2.88567 22.9882 3.08778 22.962 3.08828C22.7992 3.08608 22.8446 2.9155 22.7379 2.87298C22.7092 2.8615 22.619 2.99114 22.6054 2.99761C22.4715 3.06053 22.6916 2.88035 22.6846 2.83241C22.6788 2.79266 22.6662 2.75886 22.6491 2.72993L23.4873 3.11764C23.4416 3.08411 23.3962 3.09019 23.3648 3.10295C23.3491 3.10991 23.3579 3.29193 23.3471 3.29627C23.2843 3.32859 23.3298 3.3094 23.3011 3.20977C23.2949 3.19154 23.236 3.06476 23.2227 3.03571C23.1182 2.83783 23.2438 3.11646 23.2635 3.13886C23.3305 3.25328 23.2614 3.15059 23.2639 3.17796C23.3005 3.28144 23.0615 3.46433 22.8929 3.74937C22.804 3.89306 22.7131 4.04017 22.6314 4.19664C22.4959 4.48223 22.3766 4.75223 22.3033 5.07908C22.2953 5.11388 22.484 5.13104 22.4794 5.16165C22.4123 5.5554 22.2353 5.9147 22.1824 6.30975C22.1777 6.3419 22.3601 6.34382 22.3584 6.39704C22.3554 6.50905 22.3104 6.63788 22.228 6.72708C22.1881 6.77069 22.0604 6.66325 22.0233 6.70801C21.9369 6.81033 21.8893 6.93973 21.8843 7.06942C21.8825 7.12487 22.0776 7.09218 22.0617 7.16049C21.9566 7.6292 21.8724 8.08613 21.5314 8.50186C21.5081 8.52989 21.145 8.47209 21.1972 8.55608C21.2949 8.58483 21.4113 8.61259 21.5164 8.64018C21.4113 9.33124 21.1399 9.96614 20.991 10.6359C20.9848 10.6641 21.1848 10.6518 21.1738 10.7064C21.1114 11.0185 21.1108 11.3308 20.8721 11.6153C20.8488 11.6433 20.5131 11.577 20.5508 11.6758C20.5578 11.6922 20.5824 11.8427 20.6515 11.8863C20.662 11.8925 20.8233 11.8894 20.8221 11.9332C20.8121 12.1916 20.7484 12.4442 20.6394 12.6592C20.6216 12.6939 20.4539 12.6473 20.4398 12.6723C20.3381 12.8487 20.4803 13.0537 20.3277 13.0464C20.2113 13.0096 19.9286 13.0981 19.6521 13.1911C19.6322 13.1974 19.6113 13.1822 19.5641 13.1708C19.5154 13.1555 19.4343 13.1568 19.393 13.2311C19.2852 13.4127 19.195 13.617 19.0496 13.7915C18.9119 13.9707 18.7246 14.1165 18.65 14.3404C18.6271 14.388 18.867 14.5394 19.082 14.5827C19.2774 14.6212 19.4278 14.6658 19.0357 14.7421C19.0133 14.7485 18.7284 14.7123 18.5031 14.5908C18.2613 14.465 18.1183 14.3276 18.0453 14.2959C17.9416 14.2415 17.9085 14.5019 17.7265 14.3507C17.5482 14.1881 17.6269 13.995 17.4962 13.8494C17.3768 13.7282 17.189 13.8005 17.1223 13.5525ZM28.361 14.9236C28.5098 14.8175 27.917 14.8985 28.0719 14.9631C28.0801 14.9661 28.3538 14.929 28.361 14.9236ZM29.2177 24.6025C29.4901 24.5234 29.1098 24.4172 28.9004 24.4722C28.6913 24.5252 29.1351 24.6266 29.2177 24.6025ZM29.2819 25.6998C29.5053 25.6071 28.6676 25.4722 28.8194 25.6226C28.828 25.6313 29.269 25.7051 29.2819 25.6998ZM19.5585 13.0769C19.5506 13.0793 19.5474 13.1264 19.5558 13.1281C19.7467 13.1286 19.7535 13.0429 19.5585 13.0769ZM29.3082 26.8045C29.4282 26.7874 29.3184 26.6535 29.1693 26.6747C29.0495 26.6914 29.159 26.8253 29.3082 26.8045ZM28.1701 10.6475C28.1785 10.6441 28.1749 10.5958 28.1262 10.6087C27.9694 10.6505 28.0296 10.704 28.1701 10.6475ZM28.9695 28.6462C29.0487 28.3771 29.7682 28.3395 29.6379 28.6182C29.6144 28.6688 29.4382 28.4646 29.3639 28.5215C29.2285 28.6256 29.6478 28.7825 29.3939 28.8705C29.3473 28.8867 28.9634 28.6609 28.9686 28.6456C28.9689 28.6458 28.9692 28.646 28.9695 28.6462ZM29.0637 14.7661C29.0712 14.7632 29.0684 14.6966 29.0604 14.6963C28.8672 14.6905 28.8728 14.8243 29.0637 14.7661ZM27.7687 7.87821C27.784 7.87039 27.7502 7.71823 27.7336 7.71815C27.414 7.74104 27.4803 8.04471 27.7687 7.87821ZM30.036 19.1103C30.2329 19.1646 30.2631 19.2493 30.0292 19.328C30.0355 19.2552 30.0309 19.1831 30.036 19.1103Z" fill="white"/>
</svg>
