<svg width="90" height="99" viewBox="0 0 90 99" fill="none" xmlns="http://www.w3.org/2000/svg">
<path d="M83.1432 3.1929C82.6543 3.39078 81.952 3.54069 81.4296 3.61706C81.2624 3.64225 81.313 3.51649 81.1957 3.5295C80.9662 3.55516 80.7797 3.66546 80.5531 3.68243C80.4779 3.68755 80.517 3.50037 80.4393 3.50942C80.018 3.5589 79.6376 3.719 79.2192 3.80948C77.1523 4.257 75.1365 4.82727 73.0936 5.42805C72.4101 5.6295 71.5529 5.7602 70.8892 6.06252C70.8108 6.09825 70.9077 6.22058 70.8963 6.23742C70.7172 6.49706 70.6989 6.18822 70.5296 6.20577C69.8642 6.27414 69.169 6.50972 68.5931 6.78318C68.3513 6.89889 68.7033 7.08068 68.3956 7.0196C68.3744 7.01565 68.3828 6.84549 68.3089 6.85519C68.1409 6.8775 67.8482 7.01731 67.7245 7.05103C67.4822 7.11652 67.4512 7.13004 67.2253 7.21481C66.9171 7.32924 66.5441 7.3913 66.228 7.55529C66.1622 7.59016 66.3124 7.703 66.2132 7.77197C66.1126 7.8413 65.8262 7.94211 65.7124 7.94775C65.5997 7.95277 65.594 7.81894 65.5656 7.79927C65.3289 7.6321 65.1263 8.08172 65.0886 8.1067C64.3629 8.56418 63.6316 8.67443 62.9173 9.0073C62.3682 9.26404 61.8372 9.59557 61.3282 9.85296C60.7283 10.1563 60.1994 10.3542 59.6577 10.7104C59.6023 10.7469 59.7686 10.8651 59.7014 10.91C59.0796 11.3268 58.479 11.7436 57.9239 12.1534C57.8253 12.2282 57.7261 12.3023 57.6263 12.3756C57.5547 12.4281 57.5189 12.2305 57.4402 12.2764C56.9597 12.5542 56.1207 12.9928 56.4634 13.7079C56.2057 13.965 55.9059 14.2909 55.5919 14.4629C55.3889 14.575 55.3695 14.3013 55.2732 14.5576C55.2516 14.6153 55.424 14.6483 55.3826 14.7271C55.2086 15.0584 54.9337 15.361 54.7994 15.7111C54.7724 15.7827 54.9018 15.8437 54.9116 15.8752C54.9877 16.1339 54.5444 16.1953 54.4888 16.2381C54.0725 16.5563 53.9523 16.9071 53.7275 17.3055C53.6754 17.3981 53.9024 17.3796 53.8588 17.4715C53.6306 17.947 53.3726 18.4257 53.0791 18.8607C53.0134 18.9575 52.9105 18.7934 52.8715 18.8364C52.7017 19.0279 52.9588 19.2031 52.8056 19.3894C52.7737 19.4291 52.6573 19.3488 52.6397 19.351C52.3638 19.3867 52.6278 19.6337 52.6211 19.6692C52.5408 20.1295 52.1051 20.274 51.9978 20.7127C51.9856 20.7648 52.1913 20.7123 52.1473 20.8548C51.8556 21.8052 51.5125 22.7934 51.1475 23.7235C51.0912 23.8679 50.988 23.7311 50.97 23.7367C50.8916 23.7632 50.8584 23.7961 50.8517 23.8307C50.8339 23.9215 50.9969 24.0218 50.9984 24.0583C51.0072 24.452 50.6666 24.7713 51.0328 25.0871C50.6728 26.6949 50.9817 28.3132 50.9254 29.9928C50.9251 30.0144 50.7534 30.0076 50.7536 30.0507C50.7582 30.5708 50.9968 30.4258 51.3784 30.6802C51.474 30.7426 51.1585 31.0789 51.1371 31.1089C51.0559 31.2144 50.7932 31.1895 50.7803 31.2215C50.6836 31.4876 51.4731 31.2497 51.5515 31.5446C51.5527 31.5543 51.3956 31.5545 51.3877 31.5834C51.3629 31.6736 51.4422 31.735 51.4131 31.8251C51.3455 32.031 50.9789 32.208 51.283 32.41C51.3224 32.4349 51.7536 32.249 51.814 32.5178C51.8369 32.6256 51.9959 33.085 52.0129 33.224C52.0287 33.3629 51.8558 33.3236 51.8527 33.3349C51.7866 33.7504 51.6628 33.6455 51.4485 33.9225C51.2369 34.201 51.8776 33.9111 51.9772 33.9553C52.0764 33.9996 52.0182 34.3118 51.9895 34.3957C51.9603 34.4792 51.8407 34.4349 51.8321 34.5027C51.7795 34.9515 52.2195 34.5388 52.3705 34.6193C52.7275 34.8052 52.3358 35.2203 52.3991 35.5022C52.4161 35.578 52.501 35.4745 52.5376 35.5328C52.6522 35.7166 52.6221 35.8903 52.7372 36.0646C52.7664 36.109 52.805 36.1533 52.8576 36.1972C52.9007 36.2345 53.2851 36.3241 53.1449 36.5621C53.1247 36.5964 52.9803 36.595 53.0029 36.7093C53.0362 36.8801 53.1514 37.1731 53.2743 37.3128C53.3651 37.4163 53.4823 37.1815 53.5021 37.3599C53.5112 37.4396 53.335 37.3755 53.3628 37.5227C53.3906 37.6711 53.5736 37.9846 53.6469 38.099C53.7202 38.2146 53.8216 38.0677 53.8365 38.0716C53.9245 38.0986 54.1268 38.2805 54.1388 38.2994C54.7608 39.2625 55.2051 40.2851 56.0583 41.0516C56.1248 41.1112 56.2071 40.9501 56.2185 40.958C56.4793 41.1246 55.9872 41.2699 56.0301 41.5302C56.2543 41.2639 56.2984 41.3992 56.4796 41.5222C56.567 41.5809 56.6195 41.445 56.6358 41.4417C56.8859 41.3996 56.7816 41.6618 56.7655 41.7205C56.7057 41.9354 56.9463 41.8379 56.9089 41.9823C56.8733 42.1268 56.622 42.1637 56.781 42.3021C56.9068 42.2479 57.0073 41.904 57.1588 41.9678C57.7207 42.2096 58.4289 43.0691 58.8153 43.3575C59.193 43.6468 59.3363 43.7083 59.5471 43.894C59.9322 44.2264 59.9011 43.9245 60.2219 43.9869C60.5439 44.0468 60.1193 44.4841 60.0947 44.6169C60.0703 44.7496 60.1779 44.6603 60.1919 44.7485C60.206 44.8368 60.0581 44.8526 60.1597 44.9401C60.2619 45.0285 60.6864 45.0023 60.7894 44.906C61.0082 44.7031 61.007 44.3685 61.2575 44.6178C61.272 44.6323 61.1436 44.7408 61.2028 44.7895C61.6771 45.1721 62.2348 45.4488 62.7387 45.7929C62.8078 45.8404 62.6693 45.9678 62.7088 45.9972C63.1231 46.3037 63.0793 45.9641 63.4582 45.776C63.2302 46.147 63.2633 46.4507 63.6168 46.603C63.829 46.694 63.8647 46.5045 64.0524 46.4387C64.1086 46.4187 64.2093 46.6001 64.2703 46.5292C64.4694 46.2975 64.4517 45.9408 64.7638 46.2064C64.7774 46.2185 64.6676 46.3452 64.7189 46.3762C65.0509 46.5771 65.2066 46.3128 65.6037 46.4286C65.9162 46.5198 66.3896 46.8983 66.7259 47.0566C66.5474 47.5078 66.9157 47.5275 67.1662 47.2639C67.3861 47.3606 67.6373 47.4338 67.8398 47.5582C67.9093 47.6008 67.8112 47.7142 67.8154 47.732C67.8777 48.009 68.0892 47.7404 68.1424 47.7465C68.7154 47.8267 69.06 48.2174 69.6498 48.1814C69.6693 48.1802 69.7988 47.916 69.856 48.1069L69.7954 48.0879C69.801 48.1014 69.8065 48.1174 69.8119 48.1362C69.8134 48.1421 69.7933 48.157 69.7731 48.1768L69.8238 48.1926C69.7914 48.2172 69.7576 48.2518 69.7861 48.2925L69.7471 48.2803C69.7632 48.2987 69.7945 48.3168 69.8492 48.3332C70.0903 48.4058 70.5116 48.6936 70.8888 48.6202C70.9797 48.6026 71.2484 48.3835 71.3693 48.6295C71.3854 48.6628 71.3398 48.7517 71.3605 48.8114C71.4275 49.0018 71.5583 48.682 71.6193 48.9915C71.6801 49.3008 71.8945 49.5692 72.2839 49.4457C72.2963 49.4423 72.4326 49.1949 72.5412 49.2212C72.7139 49.2635 72.9509 49.3678 73.1341 49.4012C73.2216 49.4171 73.1973 49.2417 73.213 49.2416C73.817 49.2613 74.2071 49.4832 74.8293 49.6515C74.944 49.6829 75.3115 49.5102 75.5089 49.7226C75.7265 49.955 75.3495 50.7325 75.9543 50.6213C76.2003 50.5767 76.6268 49.5816 76.9716 50.1692C77.3341 50.1541 77.6749 50.2135 78.0156 50.2736C78.4453 50.3494 78.8764 50.4263 79.3362 50.3504C79.3736 50.3444 79.5072 50.0612 79.5916 50.0703C79.7173 50.0843 79.7791 50.224 79.8692 50.2377C80.2471 50.2982 80.5985 50.1935 80.963 50.2172C81.1015 50.2257 81.0516 50.3661 81.2178 50.3752C81.3844 50.3838 81.4939 50.1985 81.7193 50.2856C81.8887 50.3518 82.0681 50.7275 82.2997 50.7642C82.2967 50.39 82.452 50.3936 82.7225 50.2816C82.7743 50.2599 82.7114 50.1327 82.7354 50.1158C82.8327 50.0438 82.933 50.1462 83.024 50.0675C83.0462 50.0486 83.0394 49.9211 83.057 49.8984C83.206 49.7011 83.4893 49.9677 83.5408 50.0135C83.7308 50.1886 83.801 50.0155 83.9414 50.0774C84.0831 50.139 83.8902 50.2514 84.0527 50.2813C84.3903 50.343 84.812 50.2727 85.1449 50.2326C85.2781 50.2159 85.164 50.0596 85.1825 50.0532C85.4477 49.973 85.7529 50.1087 85.849 49.7491C86.1789 50.5841 85.9997 49.6393 86.4133 49.744C86.4462 49.7525 86.5602 50.1538 86.452 50.2352C86.3439 50.3165 86.1419 50.2199 85.9926 50.3406C85.9587 50.369 85.7928 50.7892 85.7648 50.8171C85.5498 51.0364 85.4233 50.4271 85.4066 50.3953C85.2119 50.0523 84.9954 50.5041 84.9257 50.5419C84.6082 50.7161 84.316 50.6602 84.044 50.7816C83.8677 50.8597 83.8835 51.2661 83.7361 51.2661C83.2416 51.2645 83.0451 50.7086 82.612 51.2209C82.5182 51.3294 82.6332 51.7706 82.2648 51.4336C82.2408 51.4125 81.9716 51.1003 81.8242 51.3043C81.8056 51.33 81.8081 51.4594 81.7831 51.4707C81.6139 51.5432 81.5012 51.4408 81.3164 51.4899C81.1324 51.5389 80.9086 51.6099 80.6985 51.561C80.5719 51.5319 80.417 51.2858 80.3595 51.2246C80.1969 51.0489 80.0035 51.3194 79.9084 51.1084C79.8141 50.8964 80.0324 50.5931 79.7684 50.4453C79.7401 50.7805 79.6978 51.1238 79.6623 51.4605C79.0713 51.4159 78.5029 51.2667 77.9201 51.2141C77.8997 51.2122 77.8792 51.2105 77.8587 51.2089C77.7837 51.2034 77.8417 51.3911 77.7605 51.3897C77.4177 51.3827 77.1369 51.2209 76.7806 51.2285C76.5047 51.235 76.1822 51.3854 75.8912 51.3932C75.7713 50.9882 75.3353 51.0566 75.0368 50.9739C74.9322 50.9452 74.9554 50.8448 74.8853 50.7997C74.6211 50.6317 74.6997 50.9886 74.6129 51.0287C74.2396 51.1985 74.3383 50.435 73.9448 50.3854C73.9242 50.3826 73.5982 50.741 73.5579 50.7595C73.305 50.8827 73.5466 50.6124 73.4131 50.557C73.1686 50.4554 73.0124 50.3261 72.6919 50.3856C72.5989 50.4037 72.3404 50.6129 72.2109 50.3845C72.194 50.3546 72.2334 50.2243 72.2172 50.2129C71.9228 50.0172 71.8279 50.4321 71.6128 50.534C71.3979 50.6359 71.1751 50.2859 71.1363 50.1903C71.0333 49.9429 71.2718 50.1244 71.285 50.1052C71.4359 49.876 71.22 49.874 71.0677 49.8176C71.1358 49.4049 70.9129 49.3801 70.9095 49.7607C70.9095 49.8024 71.0401 49.7919 71.0677 49.8176C70.8403 50.1867 70.5836 50.1824 70.4042 49.7469C70.3207 49.5427 70.4861 49.3674 70.0917 49.3516C69.9132 49.344 69.911 49.6394 69.7407 49.6785C69.628 49.7046 69.5131 49.6907 69.4015 49.6574C69.3781 49.6505 69.3081 49.6307 69.2856 49.6212C69.0284 49.511 68.7907 49.2878 68.5401 49.2265C68.4117 49.1951 68.4766 49.3872 68.387 49.3709C68.1489 49.3279 67.9951 49.1448 67.7486 49.118C67.7263 49.1158 67.7187 49.2888 67.6482 49.2648C67.1131 49.0868 66.6876 48.8167 66.1327 48.6048C65.8659 48.5032 65.3522 48.4051 65.0796 48.2797C64.6068 48.0642 64.1034 47.6054 63.6697 47.4886C63.3874 47.4119 63.3832 47.5883 63.2239 47.6434C62.9144 47.7499 62.6754 47.221 62.6474 47.1424C62.6469 47.1401 62.8922 47.2046 62.8035 47.0737C62.803 46.8811 62.6503 47.1428 62.6474 47.1424C62.6277 47.0919 62.1846 46.8531 62.081 46.8393C62.0243 46.8323 61.9869 46.987 61.9584 46.9805C61.2854 46.8252 60.6475 46.5565 60.0675 46.1616C60.0582 46.153 60.1573 46.0079 60.1344 45.9896C59.8184 45.7304 59.4914 45.7905 59.1359 45.7291C58.7818 45.6678 58.5711 45.4867 58.5646 45.1273C58.3302 45.024 58.0993 44.7115 57.9745 44.5271C57.8498 44.3432 57.6306 44.6036 57.6113 44.5985C57.0131 44.4363 56.8559 44.0728 56.4107 43.6678C56.1975 43.4743 55.7369 43.1349 55.4839 42.945C55.2834 42.7968 55.232 42.6351 55.0346 42.5089C55.0081 42.4918 54.9224 42.6205 54.9116 42.6179C54.6021 42.5616 54.9536 42.3908 54.9643 42.3073C55.0054 42.0035 55.0195 41.8342 54.7212 41.674C54.6537 41.6383 54.1095 41.8283 53.9934 41.7406C53.8451 41.6279 54.0345 41.556 53.879 41.4422C53.8658 41.4322 53.7772 41.5104 53.707 41.4168C53.3785 40.9809 53.0793 40.4645 52.7589 40.01C52.715 39.9469 52.6151 40.1335 52.5488 40.0431C52.238 39.6189 51.9447 39.1218 51.7769 38.638C51.7357 38.5178 51.8884 38.5233 51.9093 38.4808C52.0353 38.2226 51.6277 38.1823 51.6036 38.1499C51.2744 37.7225 51.136 37.2855 50.9834 36.8349C50.8781 36.5179 50.7622 36.1962 50.5589 35.866C50.5324 35.825 50.0497 35.6089 50.2804 35.335C50.2954 35.3161 50.5345 35.0452 50.2768 34.9858C50.2606 34.982 50.1432 35.139 50.0941 34.9621C50.0452 34.786 49.8387 34.546 49.926 34.2471C49.9531 34.1519 50.1944 33.872 49.8768 33.7291C49.8553 33.7225 49.1893 33.5479 49.5298 33.2997C49.5861 33.2591 49.9945 33.155 49.7046 32.9476C49.6487 32.9078 49.5873 33.0301 49.4894 32.9092C49.3387 32.723 49.3664 32.4109 49.1141 32.195C49.0697 32.1584 48.7397 32.0309 48.9104 31.8171C48.9372 31.7839 49.0856 31.797 49.0801 31.7094C49.0549 31.2936 48.8698 30.8919 48.8873 30.4603C48.8936 30.3081 49.1312 30.3409 49.164 30.1797C49.1966 30.0183 49.2052 29.7076 49.0795 29.5642C48.9535 29.4199 48.619 29.6475 48.5564 29.4077C48.2868 28.3576 48.4401 27.2585 48.5212 26.1815C48.5339 26.0207 48.3966 26.1481 48.4081 25.9091C48.4365 25.2231 48.5067 24.1247 48.7936 23.3543C48.8682 23.1544 48.9548 22.9742 49.0516 22.8372C49.4089 22.3327 49.3915 23.0758 49.5879 22.6751C49.6817 22.4855 49.3362 22.1526 49.3373 22.0996C49.3437 21.5786 49.6251 21.2989 49.7103 20.853C49.7282 20.7607 49.537 20.7942 49.5543 20.7158C49.6122 20.4464 49.7788 20.1999 49.8543 19.9513C49.8881 19.8391 49.7581 19.8143 49.8052 19.716C49.9162 19.4822 50.0506 19.2867 50.2573 19.1001C50.2761 19.0833 50.3698 19.2859 50.446 19.1125C50.5695 18.8309 50.8273 18.5313 50.858 18.1584C50.8666 18.0482 50.5962 17.9203 50.8784 17.8005C50.9377 17.7755 51.2363 17.9815 51.0677 17.6132C51.0383 17.5533 50.8578 16.9669 51.1988 16.8926C51.2883 16.8725 51.6154 16.8772 51.6326 16.7452C51.6341 16.7266 51.46 16.7131 51.4949 16.613C51.6212 16.2603 51.8238 15.9296 51.9732 15.5743C52.0131 15.479 51.7927 15.5267 51.857 15.3873C52.034 15.0029 52.3505 14.577 52.6222 14.2632C52.7228 14.1473 52.7787 14.3113 52.7973 14.3103C53.0969 14.2998 52.8837 14.0305 52.9017 13.9704C53.0158 13.6028 53.3053 13.465 53.4738 13.1713C53.5212 13.0901 53.3563 13.049 53.3563 13.0257C53.3646 12.7883 53.5016 13.0733 53.6003 12.9947C53.8765 12.7771 54.1026 12.4737 54.3094 12.1955C54.3849 12.0937 54.1542 12.0861 54.2241 11.9957C54.6374 11.4565 55.1325 10.9451 55.6722 10.5497C55.7738 10.476 55.8167 10.6303 55.8575 10.6349C56.0913 10.6638 56.1128 10.396 56.129 10.2666C56.1336 10.2386 56.1376 10.217 56.1425 10.2056C56.273 9.90271 56.4544 9.91019 56.6352 9.72947C57.5562 8.81625 58.8564 8.14168 59.8429 7.67158C61.1194 7.06616 62.1565 6.73623 63.3449 6.18163C63.4196 6.14721 63.2697 6.00931 63.3333 5.97737C64.1767 5.56545 65.0388 5.29404 65.8827 4.9074C65.9518 4.87616 65.786 4.75145 65.895 4.6957C66.1184 4.58004 66.4219 4.4739 66.674 4.43857C66.7983 4.4205 66.6981 4.62022 66.822 4.59919C67.111 4.55048 67.4085 4.45274 67.6716 4.32548C67.7848 4.27047 67.5449 4.16677 67.6972 4.10837C68.7347 3.70722 69.7625 3.31151 70.8913 3.17202C70.9695 3.16221 71.1525 3.48693 71.2853 3.36753C71.264 3.26734 71.2248 3.15427 71.1948 3.04964C72.7002 2.47601 74.2539 2.10454 75.795 1.63903C75.8596 1.61951 75.69 1.46936 75.8148 1.43058C76.5431 1.2042 77.229 0.934936 78.0332 0.890318C78.1119 0.885962 78.1741 1.22415 78.375 1.1087C78.4101 1.08807 78.7238 0.9448 78.7876 0.847946C78.7959 0.833728 78.6894 0.699422 78.7942 0.662731C79.4032 0.452383 80.0555 0.29428 80.6948 0.205501C80.7976 0.191595 80.7414 0.385508 80.8151 0.377019C81.337 0.315646 81.8508 0.0292513 82.3669 0.0384555C82.7156 0.0443422 82.68 0.36071 82.9314 0.58817C82.9668 0.620255 83.1677 0.56828 83.2252 0.726628C83.3701 1.12469 83.4035 1.59715 83.5694 2.01811C83.6048 2.10885 83.8421 1.93072 83.7499 2.20192C83.7432 2.22022 83.5722 2.35125 83.5473 2.44144C83.5298 2.50387 83.6371 2.6506 83.5897 2.73783C83.5423 2.82499 83.4283 2.70903 83.3408 2.82092C83.2537 2.93374 83.3568 3.10615 83.1432 3.1929ZM57.4314 43.6909C57.3805 43.4466 56.9917 43.9021 57.2449 43.9156C57.2576 43.9157 57.4344 43.7032 57.4314 43.6909ZM78.5083 50.8031C78.2913 50.5188 78.0895 50.8885 78.241 51.1078C78.3943 51.3268 78.5753 50.8892 78.5083 50.8031ZM81.0318 50.7434C80.7536 50.5311 80.6889 51.3781 81.001 51.2118C81.0193 51.2023 81.0483 50.7556 81.0318 50.7434ZM82.1699 0.897499C82.1745 0.904417 82.3176 0.870358 82.3188 0.861807C82.3402 0.657448 82.054 0.725722 82.1699 0.897499ZM83.5112 50.4537C83.4145 50.3465 83.173 50.4958 83.2913 50.6307C83.3871 50.7395 83.6325 50.5874 83.5112 50.4537ZM52.133 35.6226C52.14 35.6165 52.1063 35.5153 52.0606 35.5367C51.9136 35.606 52.0135 35.7253 52.133 35.6226ZM87.6686 49.8187C87.0519 49.9187 86.5547 49.2995 87.2208 49.2459C87.3418 49.2355 87.0114 49.5172 87.1749 49.548C87.475 49.6037 87.5637 49.1344 87.8961 49.3009C87.9573 49.3316 87.704 49.8149 87.6677 49.8199C87.668 49.8195 87.6683 49.8191 87.6686 49.8187ZM57.7822 43.0547C57.784 43.0463 57.6727 42.9506 57.6652 42.9545C57.4848 43.0549 57.7115 43.25 57.7822 43.0547ZM50.6979 29.6417C50.7125 29.6311 50.6768 29.2979 50.6606 29.2893C50.3262 29.1582 50.3987 29.8441 50.6979 29.6417ZM66.7268 47.0708C66.9432 46.9481 67.13 46.994 67.1656 47.2634C67.0211 47.1958 66.8717 47.1379 66.7268 47.0708Z" fill="white"/>
<path d="M75.4355 78.687C74.2523 79.6224 72.5942 80.712 71.2835 81.4716C70.874 81.7095 71.0188 81.4892 70.7323 81.6486C70.1708 81.9599 69.6933 82.3193 69.1277 82.6043C68.9387 82.6989 69.0761 82.4198 68.8804 82.5218C67.8129 83.0768 66.8429 83.6751 65.7415 84.2096C61.7269 86.1607 57.4476 87.6397 52.9504 88.137C51.2605 88.3365 49.5058 88.0936 47.9337 87.489C45.8772 86.7282 43.9136 85.0944 42.3601 83.6854C42.1749 83.5187 42.1797 83.7275 42.137 83.7033C41.484 83.3242 41.868 83.2832 41.5615 82.9133C40.3527 81.439 39.0952 79.8215 38.0116 78.3973C37.5531 77.7918 37.7532 78.5856 37.4458 77.8585C37.4243 77.808 37.664 77.8792 37.5578 77.6964C37.3239 77.295 36.7986 76.558 36.6146 76.25C36.2577 75.6539 36.1871 75.545 35.8404 74.9875C35.365 74.218 34.8799 73.2561 34.363 72.431C34.2535 72.2571 34.2503 72.5733 34.0629 72.3022C33.8758 72.0332 33.4512 71.2529 33.3457 70.9836C33.2364 70.7088 33.4074 70.7568 33.4075 70.6974C33.4129 70.206 32.6339 69.4787 32.5669 69.3699C31.3212 67.3498 30.5775 65.4499 29.6017 63.4598C28.8583 61.9426 28.0354 60.3583 27.3632 58.8959C27.0877 58.2961 26.8351 57.7188 26.5885 57.1474C26.128 56.0793 25.718 55.0403 25.2599 53.9148C25.1863 53.7327 25.0955 54.0161 25.0055 53.7938C24.0422 51.4128 23.2755 48.9776 22.6902 46.5132C22.6317 46.2665 22.8824 46.5344 22.8331 46.2838C22.5307 44.7574 22.1854 42.3125 21.2258 41.6535C20.9862 40.7726 20.6797 39.7412 20.4799 38.8898C20.4527 38.7737 20.4279 38.6616 20.4059 38.5539C20.2836 37.9702 20.6584 38.4372 20.3211 37.7889C20.2435 37.6413 20.1771 37.8994 20.0718 37.6755C19.6318 36.7412 19.2046 35.6926 18.6595 34.8263C18.5487 34.651 18.449 34.7664 18.3992 34.7266C17.991 34.3908 17.8847 33.5169 17.8118 33.3477C17.2756 32.0784 16.6492 31.2789 15.9092 30.2298C15.7359 29.9855 15.7868 30.3833 15.6152 30.1538C15.0404 29.3822 14.439 28.5859 13.8813 27.7488C13.8098 27.6409 13.7476 27.5543 13.698 27.4896C13.6328 27.4056 13.5843 27.3586 13.585 27.3533C13.5963 27.3539 13.6049 27.3733 13.7385 27.4004C13.8543 27.4289 14.1002 27.3835 14.2186 27.2801C14.4195 27.0912 14.3329 27.1034 14.3229 27.1608C14.2608 27.3373 14.1428 27.127 14.1039 27.2257C13.9457 27.7888 14.2656 27.9714 14.2053 28.5963C14.195 28.7285 14.0546 28.6582 14.0399 28.6828C13.8122 29.0915 14.1709 29.4021 14.1846 29.5098C14.3667 30.7648 14.1017 31.6331 14.2752 32.8726C14.2966 33.0212 14.4371 32.6669 14.4867 33.0859C14.6539 35.3334 15.2748 37.2638 14.6018 40.111C14.2421 40.787 13.451 41.4214 12.6235 41.4588C12.0722 41.4778 12.4619 41.3181 12.4228 41.3059C11.9139 41.0711 11.5866 41.3144 11.408 41.2884C10.1513 41.0307 9.42051 40.164 8.54628 40.0638C7.51138 39.296 6.56174 38.4755 5.62247 37.6657C5.15378 37.2615 4.68998 36.8577 4.22383 36.4753C3.99027 36.2845 3.76372 36.1046 3.53112 35.9408C3.41875 35.8621 3.31126 35.7916 3.20725 35.7353C3.13253 35.681 2.97769 35.6727 3.163 35.678C3.10554 35.6829 3.14838 35.6942 3.21405 35.6233C3.2751 35.5487 3.25388 35.523 3.25269 35.5835C3.24506 35.7055 3.29579 35.9531 3.36647 36.1885C3.51056 36.6703 3.71674 37.1851 3.91452 37.7008C4.31524 38.7351 4.70995 39.806 4.96985 40.9185C4.98407 40.9777 4.79175 40.9244 4.82045 41.0418C5.12446 42.419 5.28385 42.1386 5.74482 42.972C5.75759 42.9913 5.77076 43.011 5.78438 43.0312C5.87032 43.1766 5.72685 43.857 5.75027 43.9361C5.75879 44.1716 5.4343 44.0952 5.45123 44.1689C5.65523 44.8114 6.26043 44.2554 6.77326 44.8209C6.78972 44.84 6.60725 44.8689 6.64307 44.9282C6.756 45.1141 6.95217 45.2177 7.07509 45.3988C7.35907 45.8138 7.24975 46.2375 8.0011 46.5506C8.09909 46.5971 8.27039 46.1103 8.88394 46.6815C8.97768 46.7756 9.21475 46.9829 9.46628 47.3133C9.59706 47.4861 9.73181 47.743 9.74405 48.0543C9.75868 48.3647 9.63991 48.6379 9.52916 48.8075C9.29521 49.1539 9.08016 49.2883 8.96173 49.3748C8.57065 49.6204 8.74231 49.3104 8.71084 49.326C7.64967 49.753 7.97954 49.4322 7.38012 49.4145C6.78893 49.3716 7.21417 49.9434 7.05376 50.1046C6.88943 50.2656 6.14145 50.4298 5.95792 50.4683C5.77341 50.5024 5.92685 50.3107 5.76693 50.3609C5.54802 50.4315 5.41192 50.5126 5.34122 50.5863C5.07397 50.8884 5.55256 50.9443 5.47384 51.1572C5.43613 51.3095 5.43732 51.373 5.41958 51.4246C5.40249 51.4745 5.3752 51.5658 5.38845 51.7025C5.41342 51.9767 5.56485 52.3442 5.83838 52.6056C5.9849 52.744 5.93133 52.5481 6.08003 52.6523C6.67711 53.0549 6.96923 53.4228 7.76982 53.7262C7.90393 53.7783 8.64443 53.8435 8.92187 54.2617C8.96022 54.3212 8.74125 54.3468 9.00334 54.5274C9.39738 54.7984 10.1324 55.2431 10.5977 55.4648C10.9418 55.6289 10.6738 55.2238 11.0534 55.5247C11.2212 55.6591 10.8189 55.5644 11.1384 55.808C11.4577 56.0475 12.3173 56.5888 12.6351 56.8146C12.9521 57.0345 12.8745 56.7811 12.9063 56.7901C13.1013 56.8464 13.7511 57.2569 13.799 57.3049C14.1719 57.6157 14.5216 57.9531 14.8292 58.3345C16.5998 60.5479 17.7247 62.9575 19.1202 65.32C19.2471 65.5363 19.3161 65.3077 19.337 65.3398C19.8136 66.0582 19.0892 65.6828 19.245 66.2821C19.5072 66.0394 19.6221 66.3799 19.9465 66.8899C20.1036 67.136 20.1444 66.9322 20.1692 66.9488C20.5554 67.2265 20.4717 67.6165 20.4622 67.71C20.4287 68.0564 20.7846 68.2113 20.7654 68.4458C20.7472 68.6797 20.3566 68.3874 20.6452 68.8891C20.8334 68.9683 20.9019 68.4352 21.1652 68.7896C21.892 69.7717 22.831 71.514 23.6191 72.7809C23.9026 73.2413 24.1562 73.6454 24.3531 73.9383C25.096 75.0404 25.3679 75.3742 25.7852 76.0288C26.5426 77.2093 26.4355 76.6523 27.038 77.2884C27.6432 77.9255 26.9157 77.9349 26.8876 78.1114C26.8582 78.2858 27.0437 78.3167 27.0785 78.4816C27.113 78.646 26.8469 78.4313 27.0393 78.7359C27.2322 79.0413 27.9987 79.6955 28.1819 79.7191C28.5689 79.7678 28.5421 79.2352 29.0256 80.0615C29.0532 80.1091 28.8226 80.0594 28.9346 80.2368C29.8296 81.6448 30.8534 83.0404 31.7332 84.4562C31.8542 84.6514 31.5943 84.585 31.6629 84.6996C32.3717 85.893 32.3232 85.3201 33.0249 85.7622C32.5719 85.8677 32.5978 86.359 33.1772 87.2311C33.2704 87.372 33.3446 87.4607 33.4105 87.5207C33.5935 87.6881 33.7112 87.6361 33.9595 87.8286C34.0608 87.9077 34.2101 88.3477 34.3304 88.3624C34.7228 88.4086 34.7341 87.8878 35.2663 88.8172C35.2897 88.8582 35.073 88.8351 35.1636 88.9702C35.7588 89.8382 36.0719 89.7473 36.8421 90.5576C37.4433 91.1929 38.4368 92.4125 39.2069 93.0648C38.8778 93.4273 39.7141 93.9485 40.224 93.8957C40.7455 94.2893 41.3462 94.658 41.8671 95.018C42.0469 95.1416 41.8529 95.1907 41.8688 95.2176C42.1182 95.6384 42.532 95.4904 42.6608 95.5447C44.0676 96.148 45.1428 96.8526 46.6139 97.0761C46.6662 97.0833 46.8477 96.7898 47.1454 97.1361C47.1658 97.1595 46.657 97.169 47.3153 97.3757C47.3562 97.3882 47.3993 97.402 47.4444 97.4167L47.3234 97.406C48.0508 97.3645 49.2733 97.3838 50.1515 97.1273C50.3826 97.0613 50.9348 96.7159 51.428 96.8642C51.4951 96.8844 51.4389 96.9896 51.5376 97.0304C51.8563 97.1596 51.9689 96.8 52.3529 97.0368C52.7325 97.2737 53.494 97.3814 54.4266 97.0206C54.4566 97.0096 54.6407 96.7047 54.9426 96.6554C55.4208 96.5783 56.125 96.5028 56.6224 96.4001C56.8643 96.3502 56.6759 96.2173 56.7173 96.2057C58.3086 95.7811 59.4806 95.6607 61.1997 95.2461C61.5193 95.1697 62.3388 94.6889 62.99 94.6661C63.7034 94.6371 63.2928 95.6552 64.7458 94.9388C65.3386 94.6414 65.7134 93.3897 66.9746 93.4438C68.9709 92.4498 70.9416 91.7484 72.7612 90.4162C72.8428 90.3567 72.9589 89.9429 73.1593 89.8209C73.458 89.6398 73.6932 89.6496 73.9067 89.5208C74.8083 88.9786 75.5222 88.3333 76.3419 87.7438C76.6536 87.5179 76.6296 87.7132 76.9981 87.4411C77.3665 87.1666 77.4916 86.8338 78.0284 86.515C78.4372 86.2711 79.036 86.2678 79.5447 85.8908C79.3216 85.5889 79.6483 85.3232 80.1522 84.7425C80.2489 84.6305 80.0449 84.6381 80.0862 84.5802C80.2527 84.3415 80.5124 84.2519 80.6601 84.0177C80.6959 83.9611 80.6119 83.865 80.6361 83.8134C80.8424 83.3701 81.5695 83.0773 81.6977 83.0231C81.9093 82.9357 82.0385 82.8319 82.1436 82.7257C82.2631 82.5867 82.3469 82.442 82.519 82.3125C82.8235 82.0831 82.5213 82.563 82.8459 82.2665C83.5191 81.6512 84.2674 80.7554 84.8668 80.0559C85.1056 79.7762 84.8133 79.8577 84.8445 79.8151C85.3015 79.2079 85.9318 78.7322 85.9378 78.1914C86.9498 78.3431 86.1643 77.7848 86.9853 77.0558C87.0502 76.9985 87.4411 77.1758 87.2808 77.4693C87.1203 77.7628 86.7044 78.0665 86.4875 78.4788C86.4363 78.5764 86.3406 79.3018 86.3041 79.3821C86.0205 80.0104 85.4839 79.6831 85.4355 79.6881C84.8995 79.7555 84.73 80.602 84.6215 80.7726C84.1285 81.5524 83.5514 82.0794 83.1139 82.7131C82.9103 83.0068 82.9863 83.2463 82.9499 83.4632C82.9409 83.4728 82.9138 83.5015 82.9042 83.5106C82.8826 83.599 82.8423 83.6822 82.7562 83.76C81.7721 84.6429 81.0591 84.5286 80.4553 85.7204C80.3232 85.9742 80.8197 86.1364 79.8623 86.4979C79.8 86.523 79.058 86.7319 78.8661 87.1483C78.8422 87.2007 78.9253 87.3 78.8791 87.3516C78.5665 87.6963 78.2696 87.8016 77.9033 88.1496C77.5401 88.4949 77.105 88.9162 76.617 89.2167C76.3253 89.3971 75.8236 89.4567 75.6562 89.5013C75.1822 89.6257 74.9273 90.1338 74.5737 90.1205C74.2203 90.1051 74.5129 89.5383 73.8162 89.8334C73.9759 90.1306 74.1097 90.4551 74.254 90.7643C72.8407 91.6589 71.3578 92.3799 69.8671 93.1395C69.6821 93.2338 69.953 93.3014 69.7558 93.4066C68.921 93.8484 68.1194 94.0726 67.2403 94.4981C66.5607 94.8275 65.8574 95.308 65.1254 95.6238C64.5413 95.4288 63.482 95.9298 62.6555 96.1434C62.3689 96.2183 62.358 96.1139 62.1467 96.142C61.3487 96.2469 61.8002 96.468 61.604 96.5804C60.7631 97.0525 60.4814 96.3331 59.4275 96.6157C59.3709 96.6314 58.7764 97.1948 58.6849 97.241C58.1121 97.5424 58.5526 97.1252 58.1642 97.1814C57.4603 97.2803 56.9515 97.2867 56.163 97.5613C55.9321 97.6422 55.4012 98.0012 54.9041 97.8865C54.8385 97.8716 54.8491 97.7321 54.7986 97.7328C53.8816 97.7552 53.9364 98.1751 53.4445 98.3989C52.9472 98.6231 52.1245 98.4435 51.9491 98.3817C51.4971 98.2229 52.2593 98.244 52.2781 98.219C52.5083 97.9272 51.9408 98.0539 51.4978 98.0913C51.3797 97.6861 50.775 97.7905 51.0434 98.1305C51.0741 98.1676 51.4083 98.0843 51.4978 98.0913C51.1758 98.5485 50.4877 98.6909 49.7073 98.3964C49.3386 98.2579 49.6429 98.0152 48.5939 98.2074C48.1203 98.2927 48.3354 98.5592 47.918 98.6811C47.7725 98.7233 47.6186 98.7557 47.4585 98.7806C47.375 98.7876 47.1485 98.7699 47.0682 98.7458C46.166 98.5461 45.2076 98.0209 44.3828 97.7235C44.0291 97.5957 44.3083 97.8804 44.064 97.7967C43.4102 97.5697 42.9087 97.2069 42.2669 96.9448C42.2084 96.9208 42.2697 97.1385 42.0761 97.0402C40.6103 96.289 39.4593 95.4108 38.136 94.3308C37.4915 93.8148 36.347 92.8705 35.7795 92.2288C34.7735 91.1318 33.8566 89.56 33.1135 88.5692C32.8253 88.1873 32.6981 88.1107 32.5802 88.0668C32.5009 88.0396 32.427 88.0272 32.3139 87.94C31.7844 87.5313 31.4633 86.3802 31.4238 86.22C31.4228 86.2143 31.8354 86.7418 31.7018 86.4002C31.7281 86.1285 31.4288 86.2259 31.4238 86.22C31.3999 86.1141 30.6581 85.0005 30.4761 84.8043C30.3776 84.6967 30.2981 84.8537 30.2491 84.7959C29.0911 83.4261 27.9839 82.0054 26.9518 80.4908C26.9351 80.463 27.1044 80.398 27.0634 80.3339C26.4945 79.4362 25.9183 79.0167 25.2966 78.3843C24.6751 77.7519 24.299 77.1611 24.238 76.5634C23.8191 76.0475 23.3749 75.1934 23.1267 74.6979C22.8785 74.2026 22.5561 74.3329 22.5229 74.297C22.3699 74.132 22.2325 73.9728 22.1068 73.8172C21.3692 72.8961 21.0352 72.1058 20.3622 70.9378C19.9859 70.2873 19.2071 69.0234 18.7865 68.3386C18.4517 67.7976 18.3378 67.4241 18.0136 66.9399C17.9697 66.8741 17.8753 67.0168 17.8586 66.9985C17.3878 66.5175 17.8624 66.6128 17.856 66.4639C17.833 65.9235 17.8023 65.5993 17.3018 64.9357C17.186 64.7814 16.4518 64.5653 16.2548 64.287C15.9987 63.9238 16.2481 63.9715 15.9731 63.5964C15.9496 63.5644 15.8531 63.6315 15.7114 63.3849C15.0537 62.2444 14.3333 61.0243 13.4999 59.9988C13.3866 59.859 13.3846 60.1549 13.2189 59.957C13.1716 59.9008 13.1238 59.8445 13.0756 59.7882C12.5183 59.136 11.5139 58.4022 10.6066 57.7415C10.3662 57.5662 10.593 57.553 10.5586 57.4859C10.3417 57.0749 9.66779 57.0774 9.58294 57.0362C8.55824 56.5376 7.67088 56.0187 6.75535 55.4366C5.83304 54.7753 4.93979 54.4899 3.6424 52.8968C3.59875 52.7861 3.09742 52.398 3.05382 51.3202C3.04922 50.2142 3.77825 49.4819 4.13112 49.379C4.14481 49.3737 4.20415 49.351 4.2919 49.3157C4.62571 49.1531 5.06325 49.0753 5.28639 48.7778C5.30438 48.7544 4.94994 48.7432 5.44721 48.518C5.93361 48.3017 6.5807 47.9037 7.13079 47.8094C7.21719 47.7948 7.38813 47.8082 7.54538 47.7709C7.69092 47.7548 7.87294 47.5772 7.66444 47.6333C7.65923 47.6449 7.55732 47.6292 7.42527 47.8943C7.27168 48.1646 7.37517 48.7169 7.45304 48.8346C7.38485 48.8185 7.30122 48.7141 7.34007 48.5425C7.34709 48.4641 7.7156 48.2052 7.05277 47.9289C6.92313 47.8761 7.05291 48.1047 6.73956 47.9232C6.25299 47.6393 5.68471 47.0564 4.9491 46.5634C4.8271 46.4875 4.13727 46.169 3.9849 45.5294C3.96357 45.4323 4.17379 45.5053 4.02422 45.2333C3.72733 44.6806 3.46584 44.0314 3.36019 43.3354C3.27971 42.8198 3.14406 42.2896 3.03743 41.7419C2.96879 41.4035 3.24019 41.5046 3.18299 41.1359C3.12705 40.7677 2.9134 40.0347 2.6646 39.7022C2.41715 39.3704 2.24769 39.9127 1.99162 39.3688C1.70328 38.7556 1.41291 38.131 1.14197 37.386C1.01007 36.9991 0.864853 36.6218 0.786977 35.965C0.771343 35.6317 0.681144 35.1553 1.07634 34.384C1.27827 34.0072 1.65695 33.6554 2.01402 33.4814C2.36518 33.3056 2.65113 33.2546 2.90173 33.2285C3.16584 33.2023 3.38161 33.228 3.55971 33.2642C3.74264 33.3036 3.82482 33.3339 3.93594 33.3745C4.1562 33.4597 4.27071 33.5241 4.39947 33.5964C4.64232 33.7368 4.82212 33.8678 4.97428 33.9821C5.30268 34.2309 5.55591 34.4512 5.8246 34.6859C6.33826 35.1385 6.81655 35.5811 7.30119 36.0055C7.5947 36.2623 7.43523 35.9567 7.87284 36.3243C8.67859 36.9961 9.80083 37.8788 10.8407 38.4884C11.3541 38.7928 11.8575 39.0087 12.1337 39.0773C12.4329 39.1356 12.323 39.1615 12.4037 39.2105C12.4684 39.2318 12.5658 39.1905 12.6124 39.2067C12.6639 39.217 12.6869 39.2628 12.7018 39.3104C12.7309 39.3988 12.7176 39.5434 12.9282 39.3154C12.9477 39.2914 12.9642 39.2627 12.9778 39.2305C12.8851 39.4192 12.8765 39.1312 12.7813 39.0019C12.7009 38.8379 12.6125 38.7155 12.6077 38.6591C12.4758 37.5267 12.5663 36.5924 12.4056 35.4459C12.3712 35.2101 12.2231 35.4591 12.1955 35.2575C12.0989 34.5639 12.0987 33.8204 12.0166 33.1462C11.9795 32.8443 11.8551 32.9131 11.8372 32.6318C11.7936 31.9616 11.7909 31.3558 11.8588 30.6811C11.8651 30.6195 12.0601 31.0166 12.0254 30.5099C11.9746 29.6825 12.0125 28.6877 11.9388 27.6045C11.9289 27.4492 11.8541 27.3328 11.8164 27.186C11.7982 27.1109 11.7885 27.0253 11.8135 26.8791C11.8425 26.7331 11.8772 26.5874 12.0529 26.2538C12.1342 26.1119 12.1985 26.205 12.3472 26.0392C12.4376 25.9535 12.4824 25.8273 12.824 25.5163C13.0114 25.3495 13.399 25.1386 13.8098 25.117C14.0113 25.102 14.2199 25.1242 14.4097 25.1733C14.6226 25.2336 14.6986 25.2601 14.8355 25.3178C15.1288 25.4439 15.688 25.8149 16.0538 26.2242C16.2956 26.4576 16.5291 26.7439 16.5794 27.0227C16.6077 27.1821 16.5936 27.659 16.8257 27.8976C16.8579 27.9292 16.882 27.6906 17.0553 27.9008C17.6674 28.6474 18.2574 29.4974 18.8632 30.3227C19.0256 30.544 18.9393 30.1107 19.177 30.4454C19.8312 31.3636 20.5168 32.6111 20.9801 33.6214C21.1503 33.9925 20.8984 33.8049 20.8989 33.8382C20.9 34.3721 21.3158 34.479 21.4019 34.6125C21.9328 35.452 22.0926 36.209 22.4643 37.0317C22.5657 37.2592 22.6467 37.0378 22.6779 37.0788C22.9931 37.5136 22.5921 37.2563 22.6793 37.5713C22.7209 37.7243 22.766 37.8807 22.8137 38.0398C23.0373 38.7873 23.3042 39.5595 23.5426 40.2686C23.6486 40.5843 23.7111 40.1728 23.8041 40.4575C24.3535 42.137 24.8085 43.873 25.1778 45.4978C25.2473 45.8051 25.0578 45.6543 25.0455 45.7262C24.9563 46.22 25.4375 46.7658 25.509 46.901C25.835 47.5194 25.7958 47.8092 26.0006 48.3769C26.8724 50.8053 27.9148 53.6903 28.961 56.0561C29.1152 56.4078 29.2645 56.7476 29.4082 57.0728C30.8959 60.4281 32.0177 63.0717 33.6478 66.1591C33.7522 66.3564 33.8139 66.0711 33.9059 66.2398C35.0827 68.4093 36.1833 70.5702 37.4916 72.6363C37.6003 72.8081 37.5997 72.4668 37.7789 72.7384C38.146 73.2924 38.5777 74.0005 38.8917 74.5876C39.0439 74.8717 38.6822 74.593 38.8383 74.8772C39.2095 75.5499 39.6518 76.2248 40.1281 76.8446C40.3288 77.104 40.1884 76.5981 40.4371 76.9414C42.161 79.2898 44 81.4259 46.0658 83.248C46.2046 83.3687 46.1299 83.7699 46.5094 83.9368C46.5906 83.8685 46.6546 83.7673 46.7249 83.6834C48.5821 84.8656 50.5661 85.4999 52.5898 85.2663C54.3842 85.0667 56.1654 84.7017 57.9164 84.1614C58.0848 84.109 57.7363 84.0158 58.0611 83.9132C59.9442 83.3108 61.6999 82.5149 63.6232 81.7679C63.8138 81.6925 63.8771 82.0462 64.3903 81.723C64.4829 81.6665 65.2658 81.1973 65.4373 81.0154C65.4597 80.9902 65.2382 80.9307 65.4912 80.7853C66.9702 79.9372 68.516 79.0228 70 78.1505C70.2394 78.0099 70.088 78.3153 70.2598 78.216C71.4804 77.5084 72.6585 76.5137 73.836 75.8347C74.6215 75.3813 74.529 75.8149 75.0915 75.7542C75.1699 75.7467 75.622 75.4121 75.7476 75.5273C76.064 75.8178 76.1249 76.3531 76.4878 76.6432C76.565 76.707 77.1142 76.1549 76.894 76.6189C76.8779 76.6513 76.482 77.0506 76.4216 77.1956C76.379 77.2967 76.6186 77.33 76.5064 77.5029C76.3935 77.6761 76.133 77.6927 75.9237 77.9517C75.714 78.2117 75.9477 78.2819 75.4355 78.687ZM22.0287 72.446C21.8884 71.9284 21.3431 72.1858 21.7657 72.5767C21.7868 72.5953 22.0362 72.4723 22.0287 72.446ZM71.1366 91.9513C70.4263 92.0379 70.1988 92.5887 70.7131 92.5506C71.2305 92.5081 71.354 91.923 71.1366 91.9513ZM76.8251 88.0377C76.0789 88.3359 76.4786 89.0943 77.0533 88.4526C77.0869 88.4153 76.8683 88.0203 76.8251 88.0377ZM73.3329 77.1536C73.3438 77.1558 73.6769 76.924 73.6793 76.9122C73.7419 76.6322 73.078 77.0945 73.3329 77.1536ZM81.871 83.4609C81.6186 83.5439 81.2034 84.112 81.52 84.0118C81.7741 83.9331 82.1873 83.3572 81.871 83.4609ZM5.66671 52.8426C5.6691 52.8356 5.44496 52.6276 5.41855 52.669C5.31877 52.8035 5.67635 53.0475 5.66671 52.8426ZM89.3339 74.6492C88.2445 75.9585 87.0514 76.3205 88.2735 74.9273C88.4946 74.6747 87.9951 75.6309 88.3116 75.3376C88.8908 74.8002 88.8714 74.1201 89.5538 73.6445C89.6776 73.5588 89.3975 74.5753 89.3328 74.6521C89.3332 74.6511 89.3336 74.6502 89.3339 74.6492ZM22.473 71.81C22.4737 71.7972 22.2636 71.4534 22.2517 71.4485C21.9733 71.3647 22.399 72.062 22.473 71.81ZM4.45618 39.9312C4.46763 39.9031 4.13634 39.0133 4.10849 38.9937C3.64261 38.6555 4.3033 40.4313 4.45618 39.9312ZM39.2109 93.0848C39.6668 93.2112 40.0824 93.4985 40.2226 93.8943C39.8813 93.6325 39.5386 93.3672 39.2109 93.0848Z" fill="white"/>
<path d="M59.6669 24.2542C59.6744 24.1986 59.7143 24.2461 59.7529 24.3153C59.7649 24.3367 59.7874 24.4403 59.7969 24.4598C59.8154 24.4976 59.8107 24.4452 59.831 24.4908C59.8378 24.5064 59.8751 24.6701 59.8814 24.6828C59.9153 24.7508 59.9201 24.7055 59.9449 24.7361C60.0673 24.887 60.1609 24.9286 60.2601 24.9827C60.2928 25.0004 60.3621 25.1401 60.3734 25.0686C60.3747 25.0601 60.337 24.9176 60.3347 24.9057C60.2991 24.7228 60.3681 25.0123 60.384 25.0491C60.4466 25.1943 60.4775 25.2006 60.4875 25.1395C60.4917 25.113 60.4105 24.8315 60.4606 24.9884C60.464 24.999 60.4994 25.1515 60.5062 25.167C60.5217 25.2019 60.5269 25.1717 60.5348 25.1825C60.5502 25.2041 60.5514 25.2022 60.5607 25.2017C60.5738 25.2023 60.6072 25.2742 60.6117 25.2365C60.6125 25.228 60.5699 25.0733 60.5677 25.0457C60.5656 25.0181 60.5807 25.0284 60.5938 25.0641C60.607 25.0998 60.6359 25.2226 60.6436 25.2504C60.7086 25.4857 60.6402 25.1545 60.64 25.1459C60.6374 24.9998 60.7116 25.1797 60.7415 25.1716C60.7641 25.1651 60.7731 25.0974 60.7969 25.1004C60.8254 25.1046 60.8684 25.1835 60.8899 25.1627C60.8922 25.1607 60.8433 24.9784 60.8461 24.9756C60.8751 24.9457 60.9143 24.9571 60.9794 25.0721C60.986 25.0838 61.0217 25.2456 61.0307 25.2669C61.0847 25.3937 61.1973 25.7027 61.0348 24.9999C61.0559 25.0236 61.0802 25.0475 61.1282 25.1854C61.1591 25.2741 61.1949 25.4512 61.1863 25.374C61.1844 25.3567 61.1432 25.2042 61.1432 25.19C61.1435 25.1302 61.1717 25.1762 61.1661 25.0934C61.1649 25.0762 61.1297 24.939 61.1244 24.9141C61.0812 24.712 61.1754 25.0403 61.1839 25.0638C61.2478 25.2385 61.244 25.1644 61.2628 25.1643C61.2672 25.1644 61.2162 24.9811 61.2188 24.9745C61.2327 24.9429 61.2579 24.9535 61.2985 25.0304C61.3076 25.0479 61.3428 25.2061 61.3492 25.2225C61.3768 25.293 61.3047 24.9956 61.3297 25.0575C61.3349 25.0702 61.3675 25.205 61.3715 25.2197C61.4349 25.4503 61.3575 25.1204 61.3571 25.1128C61.35 25.0093 61.4471 25.3496 61.452 25.2967C61.4525 25.2901 61.4053 25.1209 61.4093 25.1126C61.4358 25.056 61.488 25.0927 61.5599 25.2194C61.5711 25.2389 61.5988 25.3678 61.6031 25.3835C61.6708 25.6284 61.5922 25.2973 61.591 25.2844C61.5837 25.1911 61.6671 25.4644 61.5791 25.0687C61.6774 25.1891 61.686 24.9523 61.8377 25.2886C61.8395 25.2925 61.8787 25.4554 61.8822 25.4625C61.9245 25.5489 61.8576 25.2972 61.7932 24.9849C61.777 24.9065 61.8801 25.2772 61.8878 25.3043C61.9162 25.4043 61.9734 25.6469 61.9793 25.6662C62.0264 25.8172 61.825 25.0178 61.8368 25.0145C61.8376 25.0158 61.8728 25.1634 61.8775 25.1778C61.892 25.223 61.8805 25.1637 61.8962 25.2136C61.9324 25.3291 62.0321 25.7172 61.9861 25.4883C61.9801 25.4586 61.8646 25.0055 61.8806 25.0242C61.8871 25.0321 61.9038 25.0197 61.9164 25.0477C61.929 25.0758 61.9619 25.2229 61.9639 25.2291C62.0263 25.4189 62.041 25.5004 62.1196 25.7849C62.198 26.0682 62.026 25.3886 62.0099 25.312C61.9939 25.2356 62.0441 25.3925 62.0605 25.4473C62.0769 25.5022 62.097 25.5959 62.1071 25.6267C62.1733 25.8281 62.0293 25.2875 62.0072 25.1783C61.955 24.9198 62.0901 25.4219 62.1131 25.4687C62.1193 25.4813 62.0883 25.367 62.0882 25.3556C62.0881 25.312 62.1335 25.4679 62.109 25.3207C62.105 25.2967 62.0386 24.9911 62.1003 25.2122C62.1091 25.244 62.1381 25.3703 62.1495 25.3974C62.1665 25.438 62.1851 25.4626 62.1815 25.4188C62.1789 25.3865 62.1212 25.1809 62.1438 25.2436C62.1538 25.2716 62.1788 25.3941 62.1951 25.4366C62.2115 25.4791 62.2239 25.4703 62.2281 25.4648C62.2322 25.4593 62.1901 25.3029 62.1878 25.2922C62.1752 25.2309 62.1663 25.1527 62.1672 25.1526C62.2071 25.1223 62.3144 25.3768 62.3359 25.2783C62.3377 25.2708 62.294 25.1057 62.2938 25.1029C62.2881 25.0305 62.3891 25.4733 62.4341 25.6187C62.3488 25.2828 62.3689 25.3425 62.3679 25.3036C62.3673 25.2845 62.3326 25.1549 62.3297 25.1415C62.2861 24.9423 62.354 25.1966 62.3682 25.2486C62.4201 25.4398 62.3676 25.2117 62.4023 25.3395C62.4368 25.4663 62.478 25.6568 62.4853 25.6524C62.4574 25.5315 62.3729 25.2185 62.3662 25.1661C62.3406 24.9676 62.4444 25.2038 62.469 25.2249C62.4935 25.246 62.4938 25.2223 62.5152 25.2632C62.554 25.3371 62.4886 25.1055 62.4738 24.9957C62.459 24.886 62.5967 25.4615 62.6293 25.5845C62.6618 25.7074 62.6319 25.58 62.6509 25.6473C62.6699 25.7145 62.6864 25.7996 62.6977 25.8238C62.7089 25.848 62.6674 25.6252 62.6369 25.4958C62.5722 25.2215 62.4944 24.936 62.5326 25.0336C62.5348 25.0394 62.5702 25.191 62.5768 25.2055C62.6285 25.3161 62.6538 25.3174 62.7021 25.4145C62.7088 25.4281 62.748 25.5967 62.7524 25.6065C62.7981 25.7092 62.7206 25.4278 62.6523 25.1107C62.7546 25.5298 62.8243 25.7845 62.8392 25.7834C62.8482 25.7829 62.8011 25.6004 62.7744 25.4702C62.7664 25.4309 62.8038 25.5549 62.7834 25.4687C62.7168 25.1867 62.6324 24.8735 62.6785 24.9951C62.6806 25.0009 62.717 25.1553 62.7216 25.164C62.7513 25.2214 62.6795 24.927 62.6862 24.8875C62.6915 24.8565 62.7581 25.0303 62.7793 25.056C62.8967 25.5267 62.8829 25.4156 62.8071 25.0898C62.8195 25.1008 62.8247 25.08 62.8446 25.1227C62.8515 25.1372 62.8835 25.274 62.8876 25.2886C62.9512 25.5181 62.8762 25.2015 62.875 25.1886C62.8661 25.063 62.9432 25.2979 62.9049 25.0591C62.9035 25.0505 62.823 24.7233 62.888 24.9606C62.8925 24.977 62.923 25.1274 62.9354 25.1365C62.9478 25.1457 63.0095 25.3164 62.9848 25.1617C62.9789 25.1244 62.9206 24.857 62.9789 25.0627C62.9868 25.0907 63.0093 25.1846 63.0236 25.2365C63.0692 25.4017 62.9888 25.0708 63.0637 25.3503C63.1386 25.6298 63.201 25.8376 63.1659 25.6406C63.1649 25.6348 63.1026 25.3722 63.1078 25.3753C63.1162 25.3804 63.1393 25.4326 63.1459 25.4292C63.149 25.4274 63.1062 25.2653 63.106 25.2622C63.1057 25.1655 63.1579 25.3064 63.1977 25.3634C63.2051 25.3741 63.1623 25.1492 63.2147 25.3224C63.272 25.5119 63.462 26.3127 63.436 26.1171C63.4256 26.0389 63.1834 25.0233 63.3302 25.5441C63.328 25.4065 63.4231 25.6681 63.4071 25.4748C63.4064 25.4663 63.3401 25.1825 63.3442 25.1855C63.3506 25.1906 63.3862 25.3221 63.3918 25.3299C63.416 25.3662 63.4008 25.2499 63.4189 25.264C63.4257 25.2691 63.4581 25.4062 63.4662 25.4122C63.4743 25.4182 63.4335 25.2373 63.4636 25.322C63.4866 25.3867 63.5848 25.7528 63.604 25.7935C63.5137 25.4307 63.5213 25.4368 63.5077 25.3384C63.5051 25.3194 63.4714 25.1937 63.4685 25.1781C63.456 25.1121 63.4857 25.2159 63.4716 25.1441C63.4683 25.1269 63.4373 25.003 63.4328 24.9819C63.3934 24.798 63.4731 25.0741 63.487 25.1222C63.5397 25.3047 63.5025 25.1429 63.5258 25.2141C63.549 25.2854 63.5641 25.378 63.581 25.4205C63.6161 25.5085 63.6269 25.4845 63.6409 25.4871C63.6462 25.4874 63.6015 25.3229 63.6013 25.3191C63.6012 25.2746 63.6556 25.4478 63.579 25.117C63.799 25.9668 63.5645 25.0329 63.6219 25.1997C63.6265 25.2132 63.7287 25.6155 63.739 25.6757C63.7493 25.7359 63.7111 25.6117 63.7279 25.7054C63.7319 25.7274 63.8178 26.1069 63.8224 26.13C63.858 26.3109 63.7063 25.7094 63.6976 25.6765C63.603 25.3212 63.6944 25.7303 63.6987 25.759C63.7185 25.8908 63.6868 25.8088 63.6994 25.9033C63.7075 25.9644 63.8054 26.3587 63.7971 26.348C63.7694 26.3125 63.6258 25.7642 63.7284 26.2451C63.7502 26.3477 63.8615 26.7776 63.764 26.4421C63.7578 26.4209 63.6709 26.1134 63.7144 26.3108C63.7199 26.3356 63.7513 26.4612 63.753 26.472C63.764 26.5417 63.7349 26.4427 63.7402 26.4923C63.7456 26.5418 63.7555 26.6153 63.7372 26.5746C63.7263 26.5502 63.662 26.3178 63.6455 26.261C63.5981 26.0976 63.6591 26.3698 63.6053 26.1709C63.5512 25.9711 63.4825 25.6643 63.44 25.5371C63.5212 25.8634 63.604 26.1984 63.6854 26.5266C63.6604 26.5207 63.6122 26.4206 63.5936 26.4406C63.5914 26.4434 63.638 26.6181 63.6368 26.6256C63.6313 26.6566 63.5892 26.5343 63.5887 26.5873C63.5885 26.629 63.6239 26.8174 63.6252 26.8668C63.5254 26.4951 63.5416 26.6257 63.5218 26.5945C63.5149 26.5837 63.4902 26.4839 63.4793 26.4521C63.4386 26.3344 63.5261 26.663 63.5361 26.7157C63.5791 26.9404 63.3913 26.194 63.3812 26.2161C63.3806 26.217 63.4706 26.6174 63.4755 26.6425C63.5076 26.8062 63.4395 26.5043 63.4269 26.4762C63.404 26.4249 63.3736 26.3315 63.3916 26.4508C63.397 26.4862 63.4512 26.7362 63.3969 26.5459C63.3898 26.521 63.3573 26.3893 63.3547 26.3818C63.3105 26.2564 63.4135 26.6698 63.4416 26.8115C63.4697 26.9532 63.3876 26.6706 63.3649 26.5889C63.306 26.3776 63.3465 26.4969 63.3416 26.4759C63.2831 26.2266 63.286 26.2713 63.2748 26.2518C63.1726 25.8467 63.1704 25.8731 63.2636 26.2332C63.2738 26.2725 63.269 26.2336 63.2748 26.2518C63.369 26.6507 63.3726 26.704 63.2695 26.3349C63.2213 26.1619 63.175 25.9577 63.1792 26.0356C63.181 26.0708 63.2533 26.3492 63.2666 26.4267C63.2968 26.6036 63.2146 26.3476 63.2113 26.392C63.2101 26.4081 63.2531 26.5597 63.2536 26.5759C63.255 26.6196 63.2184 26.507 63.2241 26.5679C63.2247 26.5737 63.2667 26.7331 63.2644 26.7358C63.2479 26.7597 63.2039 26.6619 63.1811 26.6645C63.1701 26.6659 63.173 26.7589 63.1575 26.7439C63.1309 26.7189 63.0492 26.4923 63.047 26.5529C63.0453 26.5917 63.0877 26.751 63.1103 26.8611C63.1543 27.0746 63.0441 26.7001 63.0273 26.6421C63.0268 26.6401 63.0266 26.6001 63.0011 26.5193C62.9555 26.3489 63.0273 26.6413 63.0273 26.6421C63.0165 26.6046 62.9891 26.5728 62.9931 26.6043C62.9953 26.6215 63.0343 26.7728 63.0347 26.7789C63.044 26.9206 63.0291 26.9653 62.9865 26.9007C62.9853 26.8977 62.9436 26.7281 62.9413 26.7232C62.908 26.6515 62.9506 26.8611 62.9695 26.9872C62.9884 27.1132 62.9687 27.0744 62.8889 26.7851C62.8891 26.824 62.8441 26.6986 62.8171 26.6224C62.7902 26.5462 62.8717 26.8764 62.8727 26.8831C62.9045 27.0969 62.8456 26.911 62.8172 26.8869C62.8035 26.8748 62.7956 26.9277 62.7938 26.9665C62.7925 26.9977 62.768 26.9216 62.7724 26.9731C62.773 26.9799 62.8108 27.1266 62.8119 27.1323C62.847 27.3103 62.7615 26.9501 62.7436 26.8864C62.6787 26.6548 62.6436 26.5316 62.6597 26.6441C62.6634 26.6699 62.7851 27.1889 62.7879 27.2203C62.7913 27.2602 62.7473 27.0743 62.7521 27.1208C62.7524 27.1246 62.7811 27.239 62.7759 27.2349C62.7519 27.2176 62.7151 27.1561 62.6987 27.1724C62.6964 27.1742 62.7451 27.3547 62.7424 27.3603C62.73 27.3862 62.7088 27.3844 62.6702 27.3039C62.6606 27.2835 62.6315 27.1558 62.6211 27.1183C62.5584 26.8916 62.6332 27.2251 62.6334 27.2318C62.6415 27.399 62.5422 27.1051 62.5455 27.256C62.5458 27.2648 62.6211 27.6236 62.5388 27.3203C62.5333 27.3002 62.4494 26.9899 62.4974 27.2044C62.5004 27.2178 62.5443 27.3774 62.5337 27.3627C62.5231 27.348 62.5394 27.4578 62.4863 27.2836C62.4696 27.2288 62.3851 26.9194 62.4387 27.1695C62.4425 27.1869 62.5696 27.7508 62.4682 27.3652C62.4515 27.3017 62.35 26.8922 62.3923 27.1046C62.4006 27.1457 62.4269 27.2362 62.4361 27.2944C62.4503 27.3843 62.4126 27.2772 62.4486 27.4619C62.455 27.4946 62.5173 27.7743 62.4589 27.5648C62.4498 27.532 62.4173 27.3949 62.4105 27.3804C62.3778 27.3106 62.3857 27.4057 62.3475 27.3148C62.3341 27.2829 62.2815 27.0613 62.2613 27.0034C62.2411 26.9456 62.2161 26.8914 62.2357 26.9937C62.2553 27.0961 62.3495 27.4467 62.3481 27.477C62.3422 27.6085 62.2543 27.411 62.2102 27.3899C62.2037 27.3868 62.2397 27.5116 62.2323 27.516C62.2052 27.5327 62.1839 27.6636 62.0915 27.4022C62.0174 27.1929 62.0023 27.0232 61.9649 26.9399C61.9469 26.9002 62.0411 27.3116 62.0425 27.3249C62.0574 27.4603 61.9997 27.282 61.9976 27.3416C61.9972 27.354 62.0419 27.5191 62.0411 27.5278C62.0387 27.559 62.0101 27.4875 62.0043 27.5033C62.0018 27.5108 62.0342 27.6373 62.028 27.6285C62.0134 27.6088 61.9921 27.5576 61.9535 27.441C61.95 27.4304 61.9161 27.2714 61.9079 27.2672C61.8948 27.2609 61.852 27.1471 61.8697 27.2712C61.8751 27.3085 61.9474 27.5982 61.8894 27.4002C61.8773 27.3588 61.7925 27.0105 61.8583 27.3133C61.8692 27.3636 61.955 27.7728 61.882 27.5135C61.8628 27.4452 61.7865 27.162 61.7932 27.2078C61.7944 27.2151 61.8357 27.37 61.8358 27.3861C61.8355 27.4402 61.8177 27.427 61.8165 27.479C61.8162 27.4933 61.8618 27.6529 61.8601 27.6689C61.8557 27.7133 61.8271 27.6769 61.8002 27.6301C61.7902 27.6125 61.7605 27.4783 61.7565 27.4638C61.6913 27.2293 61.7673 27.5489 61.7699 27.5679C61.785 27.6824 61.7378 27.5351 61.736 27.5777C61.7354 27.589 61.7757 27.7404 61.7784 27.7541C61.8048 27.8881 61.7416 27.614 61.7298 27.585C61.6966 27.5028 61.6865 27.5184 61.6793 27.5408C61.6767 27.5492 61.7257 27.7241 61.7229 27.7297C61.7071 27.7659 61.6785 27.7551 61.6313 27.6637C61.6224 27.6462 61.5912 27.5099 61.5825 27.4791C61.5222 27.2639 61.587 27.5618 61.592 27.5905C61.6146 27.7215 61.581 27.6025 61.5782 27.6269C61.5651 27.7486 61.4948 27.6818 61.4439 27.6424C61.3778 27.5918 61.3064 27.4726 61.2668 27.5181C61.2643 27.5208 61.3125 27.7004 61.3108 27.7051C61.2878 27.7571 61.2367 27.6949 61.2157 27.7556C61.2139 27.7602 61.2607 27.9303 61.2593 27.9435C61.2566 27.9718 61.2426 27.9654 61.2197 27.9131C61.2085 27.8879 61.1779 27.7396 61.1675 27.7173C61.1431 27.6649 61.1287 27.6556 61.1246 27.6857C61.123 27.6989 61.1737 27.8721 61.1682 27.8756C61.1314 27.9033 61.0986 27.9435 61.0004 27.7273C60.9937 27.7125 60.9023 27.3576 60.9133 27.4273C60.9375 27.5261 60.9665 27.6421 60.9927 27.7476C60.9471 27.8194 60.857 27.711 60.7923 27.7069C60.7895 27.7068 60.841 27.8941 60.836 27.8948C60.8069 27.8991 60.7924 27.9582 60.7166 27.7782C60.7092 27.7606 60.6278 27.4288 60.6318 27.481C60.6326 27.4905 60.6309 27.5379 60.6456 27.6107C60.6479 27.6217 60.6889 27.7758 60.6859 27.7813C60.6678 27.8108 60.6339 27.7817 60.5864 27.6932C60.5787 27.6786 60.5416 27.5128 60.5358 27.501C60.4944 27.4184 60.5046 27.549 60.4486 27.404C60.4109 27.3064 60.3443 27.0205 60.2677 26.7419C60.2568 26.7025 60.2476 26.6982 60.2064 26.5352C60.1028 26.1254 59.9943 25.6754 59.8835 25.2386C59.8596 25.1446 59.8747 25.2486 59.8239 25.0195C59.8205 25.0042 59.8091 24.9268 59.7917 24.8491C59.7796 24.7955 59.7358 24.6302 59.7214 24.5612C59.7069 24.4923 59.7446 24.6306 59.7288 24.5493C59.7129 24.4669 59.6638 24.2787 59.6669 24.2542ZM62.6966 26.2818C62.6501 26.1251 62.7942 26.7057 62.7669 26.565C62.7654 26.5575 62.6989 26.2895 62.6966 26.2818ZM63.5029 25.9829C63.43 25.7291 63.5179 26.107 63.5737 26.3032C63.6294 26.499 63.5251 26.0598 63.5029 25.9829ZM63.5491 25.7728C63.4882 25.5736 63.6923 26.3969 63.6619 26.2277C63.6602 26.2182 63.5527 25.7843 63.5491 25.7728ZM60.2784 26.6544C60.2764 26.6467 60.2689 26.6406 60.2707 26.6482C60.3138 26.8333 60.3287 26.8454 60.2784 26.6544ZM63.5905 25.5463C63.5594 25.4358 63.5821 25.5666 63.6207 25.704C63.6519 25.8146 63.6292 25.6837 63.5905 25.5463ZM62.1842 25.7519C62.182 25.7432 62.176 25.7364 62.1883 25.7853C62.228 25.9427 62.2224 25.8969 62.1842 25.7519ZM63.7448 25.4976C63.7139 25.4724 63.5299 24.7962 63.5743 24.8666C63.5823 24.8793 63.6187 25.0858 63.6398 25.1456C63.6783 25.2546 63.5787 24.826 63.6467 25.052C63.6592 25.0934 63.7469 25.5006 63.745 25.4986C63.7449 25.4982 63.7449 25.4979 63.7448 25.4976ZM62.5184 25.5858C62.5163 25.5781 62.509 25.5722 62.5108 25.5799C62.5539 25.7649 62.5686 25.7769 62.5184 25.5858ZM61.8627 25.451C61.8583 25.4347 61.8417 25.4226 61.845 25.4378C61.9137 25.7407 61.9475 25.7661 61.8627 25.451ZM62.7827 25.0685C62.7423 24.8816 62.7441 24.858 62.807 25.0896C62.798 25.0787 62.7915 25.0784 62.7827 25.0685Z" fill="white"/>
<path d="M79.8701 20.728C79.8074 20.7192 79.8356 20.6508 79.8874 20.583C79.9034 20.5619 80.0011 20.5203 80.0164 20.5036C80.0463 20.4711 79.993 20.4806 80.03 20.4446C80.0428 20.4324 80.1964 20.3642 80.2063 20.3532C80.2596 20.2935 80.2085 20.2863 80.227 20.2426C80.3184 20.0272 80.3091 19.8577 80.3144 19.6724C80.3157 19.6108 80.4322 19.4921 80.3494 19.4623C80.3396 19.4588 80.2034 19.5153 80.1916 19.5184C80.0103 19.5651 80.2908 19.4656 80.3231 19.4392C80.4505 19.3346 80.4444 19.2777 80.374 19.2478C80.3437 19.2351 80.0736 19.3501 80.222 19.276C80.232 19.271 80.3821 19.2262 80.396 19.2152C80.4273 19.1906 80.3928 19.1753 80.4014 19.1615C80.4186 19.1347 80.4161 19.1321 80.4121 19.1135C80.4079 19.0874 80.4734 19.0354 80.4316 19.019C80.4222 19.0155 80.2705 19.0685 80.2415 19.0667C80.2126 19.0649 80.2183 19.0355 80.2524 19.0168C80.2864 18.998 80.4089 18.9677 80.4363 18.9584C80.6681 18.8816 80.3348 18.9437 80.3256 18.9414C80.1695 18.909 80.3417 18.8019 80.3275 18.739C80.3161 18.6907 80.2433 18.6496 80.2433 18.5997C80.2441 18.5402 80.3226 18.479 80.3005 18.4264C80.2984 18.4207 80.1123 18.4524 80.1092 18.4452C80.0771 18.3691 80.0893 18.2841 80.2112 18.1981C80.2235 18.1895 80.3895 18.1881 80.4118 18.1792C80.5443 18.1219 80.8687 18.0521 80.1472 18.0434C80.1673 18.0189 80.1882 17.9905 80.2562 17.966C80.2804 17.9573 80.3104 17.9492 80.3485 17.942C80.4421 17.9246 80.6225 17.9421 80.5456 17.921C80.5285 17.9162 80.3704 17.9213 80.3567 17.9139C80.2991 17.882 80.3512 17.8496 80.2706 17.8165C80.2538 17.8097 80.1122 17.8066 80.0868 17.8039C79.881 17.7804 80.2232 17.7679 80.2482 17.7644C80.4348 17.7326 80.3638 17.7013 80.3708 17.6647C80.3726 17.6563 80.1821 17.6531 80.177 17.6442C80.1529 17.5983 80.1732 17.5536 80.2613 17.5203C80.2813 17.513 80.4417 17.5374 80.4596 17.5349C80.5361 17.524 80.2322 17.4882 80.2999 17.4765C80.3138 17.4741 80.4515 17.4912 80.4667 17.4922C80.7055 17.5076 80.3698 17.4613 80.3627 17.4574C80.2653 17.4094 80.6192 17.4297 80.5737 17.3914C80.5679 17.3866 80.3927 17.3729 80.3871 17.3606C80.3491 17.2783 80.4094 17.2035 80.5602 17.1559C80.5834 17.1484 80.7119 17.179 80.728 17.181C80.9801 17.2136 80.6462 17.1478 80.6343 17.1417C80.5487 17.0962 80.8339 17.1234 80.4395 17.0279C80.6006 16.934 80.4066 16.7588 80.7891 16.7282C80.7935 16.7278 80.9552 16.7719 80.9633 16.771C81.0632 16.7607 80.8094 16.7018 80.5082 16.5952C80.4327 16.5678 80.8088 16.6499 80.8365 16.6557C80.9383 16.6772 81.1771 16.749 81.1971 16.7524C81.3535 16.7793 80.558 16.5626 80.5643 16.539C80.5658 16.5387 80.7111 16.5827 80.7261 16.5849C80.7734 16.592 80.7169 16.5702 80.7688 16.5785C80.889 16.5981 81.2747 16.7061 81.0563 16.6224C81.0281 16.6112 80.5781 16.4835 80.6058 16.4679C80.6173 16.4615 80.6208 16.423 80.6535 16.4203C80.6858 16.4186 80.827 16.4719 80.8335 16.4731C81.0319 16.5071 81.107 16.5432 81.3911 16.6237C81.6737 16.7054 81.0078 16.4863 80.9356 16.4555C80.8637 16.4244 81.0259 16.4585 81.0816 16.4725C81.1372 16.4868 81.2254 16.5246 81.2573 16.5314C81.4651 16.5785 80.9343 16.4013 80.8336 16.3528C80.5978 16.231 81.0924 16.394 81.1472 16.3966C81.163 16.3949 81.0523 16.3524 81.0457 16.3402C81.0339 16.3157 81.0669 16.3158 81.0945 16.3019C81.108 16.2966 81.1186 16.2847 81.1453 16.2459C81.1593 16.2459 81.1619 16.1425 81.4034 16.1354C81.6639 16.1759 81.6891 16.3864 81.7099 16.3704C81.7225 16.3846 81.7751 16.4117 81.8214 16.4416C81.9013 16.4725 81.9698 16.5218 81.8242 16.5189C81.791 16.5186 81.6626 16.5002 81.6326 16.5097C81.5872 16.5259 81.5561 16.5421 81.5966 16.5634C81.6267 16.5784 81.8394 16.6001 81.7717 16.6032C81.7415 16.6044 81.6201 16.5735 81.5737 16.5768C81.5272 16.5809 81.5285 16.605 81.5309 16.6159C81.5334 16.6265 81.6936 16.6509 81.7041 16.6536C81.7645 16.6709 81.8379 16.703 81.8373 16.705C81.84 16.7947 81.5576 16.8084 81.6293 16.9028C81.6347 16.9102 81.8023 16.9432 81.8048 16.9448C81.8701 16.9809 81.4305 16.8661 81.279 16.8471C81.6177 16.9204 81.5545 16.9158 81.5885 16.9377C81.6051 16.9484 81.7369 16.9742 81.7501 16.9778C81.9467 17.0326 81.6883 16.9819 81.6354 16.9718C81.4407 16.9348 81.6673 16.9938 81.5371 16.9692C81.4079 16.9447 81.2203 16.8911 81.2196 16.9052C81.3397 16.9366 81.6582 16.9981 81.707 17.0203C81.892 17.103 81.6273 17.1189 81.5943 17.144C81.5613 17.1692 81.5814 17.1837 81.5335 17.1916C81.4469 17.2057 81.6837 17.2494 81.7861 17.2946C81.8885 17.34 81.315 17.194 81.1905 17.1676C81.0661 17.1411 81.1927 17.1743 81.1239 17.1617C81.0551 17.1491 80.9727 17.1217 80.9452 17.1238C80.9178 17.1258 81.1325 17.2007 81.2612 17.2345C81.5338 17.3059 81.824 17.3642 81.7176 17.3622C81.7114 17.362 81.5609 17.322 81.5445 17.3231C81.419 17.333 81.402 17.3723 81.29 17.385C81.2743 17.3868 81.1071 17.3416 81.0961 17.3422C80.9808 17.3481 81.2673 17.405 81.5782 17.4987C81.1598 17.3935 80.9007 17.3417 80.8925 17.3647C80.8874 17.3786 81.0712 17.4204 81.198 17.461C81.2363 17.4732 81.108 17.453 81.1937 17.4758C81.4738 17.5501 81.7913 17.6167 81.6597 17.6115C81.6535 17.6112 81.5002 17.5703 81.49 17.5718C81.4228 17.5819 81.7167 17.6557 81.7459 17.6909C81.7689 17.7184 81.5802 17.7123 81.5454 17.7282C81.0742 17.6127 81.1768 17.6611 81.4994 17.7496C81.4824 17.7616 81.4966 17.783 81.4481 17.7867C81.4316 17.7879 81.296 17.7512 81.2811 17.7482C81.0475 17.7013 81.3619 17.7853 81.3735 17.7917C81.4853 17.8567 81.2384 17.8278 81.4642 17.9189C81.4723 17.9222 81.7991 18.0047 81.5579 17.955C81.5413 17.9515 81.3952 17.9036 81.3797 17.9168C81.3643 17.9299 81.1813 17.9173 81.3275 17.9768C81.3627 17.9911 81.6249 18.0702 81.4147 18.0299C81.3862 18.0244 81.2927 17.9997 81.24 17.9889C81.072 17.9546 81.4017 18.0399 81.1188 17.9785C80.836 17.9171 80.6215 17.8818 80.8097 17.9522C80.8152 17.9543 81.0759 18.0243 81.0701 18.0303C81.0605 18.0398 81.0019 18.0422 81.0007 18.0544C81.0003 18.0602 81.1639 18.0969 81.1666 18.0986C81.2483 18.1592 81.0967 18.1501 81.0237 18.1749C81.01 18.1794 81.2265 18.2559 81.0475 18.2268C80.8516 18.1949 80.057 17.9803 80.2383 18.0636C80.3108 18.097 81.3194 18.3675 80.7879 18.2633C80.9053 18.3466 80.6249 18.3268 80.7979 18.4242C80.8055 18.4285 81.0865 18.5062 81.0813 18.5107C81.073 18.5171 80.9398 18.4886 80.9296 18.4921C80.8839 18.5062 80.9914 18.5565 80.9681 18.5752C80.9595 18.5824 80.8236 18.5452 80.8134 18.5537C80.8033 18.5623 80.9814 18.6142 80.891 18.6067C80.8221 18.6009 80.4517 18.5198 80.4053 18.5233C80.7679 18.6144 80.7579 18.6224 80.8493 18.6636C80.8671 18.6716 80.9942 18.6996 81.0091 18.705C81.0726 18.7276 80.9665 18.7074 81.0358 18.7312C81.0524 18.7369 81.1763 18.768 81.1969 18.7744C81.3767 18.8303 81.0939 18.7777 81.0446 18.7685C80.8576 18.7336 81.0174 18.7791 80.9427 18.7696C80.868 18.76 80.7805 18.7245 80.734 18.7236C80.6377 18.7216 80.6511 18.7532 80.6401 18.7728C80.6365 18.7808 80.8033 18.8164 80.8066 18.8185C80.8442 18.8464 80.6639 18.82 80.9909 18.912C80.1363 18.7112 81.0708 18.9432 80.8942 18.9254C80.8799 18.9239 80.4766 18.8257 80.4193 18.8034C80.3621 18.7812 80.4909 18.8012 80.4013 18.7678C80.3803 18.7599 80.0065 18.6514 79.9841 18.6438C79.8093 18.584 80.4116 18.7323 80.4448 18.7397C80.8038 18.8198 80.4016 18.7009 80.3746 18.6894C80.2511 18.6364 80.3401 18.6399 80.2526 18.5995C80.1961 18.5733 79.8022 18.4737 79.8165 18.4678C79.8638 18.448 80.4163 18.575 79.9464 18.428C79.8462 18.3966 79.4139 18.295 79.7581 18.3581C79.7798 18.3621 80.0937 18.4235 79.8999 18.3653C79.8755 18.358 79.7499 18.3267 79.7398 18.3225C79.6741 18.2952 79.7758 18.3134 79.7307 18.2903C79.6856 18.2672 79.6174 18.2361 79.6632 18.234C79.6906 18.2326 79.927 18.2811 79.9852 18.2918C80.1528 18.3225 79.885 18.2439 80.0865 18.2873C80.2889 18.3309 80.5907 18.4197 80.7247 18.435C80.3986 18.353 80.0641 18.2681 79.7363 18.1853C79.757 18.1512 79.8716 18.1406 79.8665 18.0998C79.8655 18.0947 79.6889 18.0557 79.6834 18.0491C79.6607 18.0213 79.7903 18.0343 79.7459 18.0001C79.7109 17.9735 79.5297 17.9089 79.4872 17.8798C79.8633 17.962 79.743 17.9047 79.7818 17.8941C79.7953 17.8903 79.8949 17.9156 79.9286 17.9189C80.0533 17.931 79.7213 17.8574 79.6705 17.8397C79.4541 17.7638 80.2015 17.9473 80.1891 17.9182C80.1887 17.9168 79.7945 17.8022 79.7702 17.7938C79.612 17.7397 79.9094 17.8258 79.941 17.8243C79.9987 17.8216 80.0966 17.834 79.9846 17.7865C79.9514 17.7725 79.7064 17.6981 79.901 17.7351C79.9264 17.7399 80.0579 17.7732 80.0659 17.774C80.1993 17.7857 79.7859 17.6826 79.6487 17.6364C79.5115 17.5902 79.8015 17.6429 79.8847 17.6595C80.0999 17.7026 79.9738 17.6893 79.9946 17.695C80.2417 17.7625 80.2022 17.7388 80.2256 17.734C80.6316 17.8327 80.6107 17.8128 80.2483 17.7287C80.2087 17.7195 80.2447 17.7366 80.2256 17.734C79.8299 17.627 79.7826 17.5993 80.1587 17.6742C80.3349 17.7092 80.5363 17.7668 80.4679 17.7242C80.4371 17.7049 80.1567 17.6404 80.083 17.612C79.9147 17.547 80.1821 17.5832 80.1467 17.55C80.1339 17.5381 79.979 17.5086 79.9649 17.4991C79.9271 17.4739 80.0451 17.4889 79.99 17.4596C79.9848 17.4569 79.8239 17.4209 79.823 17.4158C79.8129 17.3765 79.9231 17.3701 79.9349 17.3344C79.9404 17.3172 79.86 17.2636 79.8822 17.2496C79.9197 17.2251 80.1622 17.2425 80.1122 17.2014C80.0802 17.1749 79.9191 17.1401 79.8117 17.1062C79.6035 17.0408 79.9889 17.1063 80.0485 17.1168C80.0504 17.1172 80.0845 17.1417 80.1688 17.1533C80.3413 17.1898 80.0492 17.1172 80.0485 17.1168C80.087 17.1236 80.1307 17.1019 80.1015 17.0886C80.0855 17.0813 79.9332 17.0466 79.9277 17.0435C79.8014 16.9709 79.7726 16.9209 79.8533 16.8972C79.8565 16.8972 80.0262 16.9387 80.0317 16.9382C80.113 16.9321 79.9086 16.8678 79.7896 16.8196C79.6707 16.7712 79.7157 16.7654 80.0104 16.8225C79.9771 16.7992 80.1109 16.8095 80.1922 16.815C80.2734 16.821 79.9425 16.7422 79.9362 16.7397C79.7342 16.6582 79.9281 16.6837 79.9655 16.6565C79.9837 16.6443 79.9429 16.6012 79.9104 16.5762C79.8842 16.5562 79.9635 16.5666 79.9167 16.5425C79.9104 16.5393 79.7622 16.508 79.7567 16.5062C79.5829 16.4531 79.9428 16.5402 80.0079 16.5517C80.2449 16.5937 80.3714 16.6145 80.2648 16.573C80.2403 16.5637 79.7223 16.4373 79.6933 16.424C79.6566 16.4066 79.8426 16.4505 79.7994 16.4313C79.7959 16.4297 79.6806 16.4049 79.6869 16.4005C79.7147 16.3787 79.7876 16.3651 79.781 16.3384C79.7805 16.3351 79.5964 16.302 79.5926 16.2968C79.5751 16.2717 79.5854 16.2539 79.6727 16.2629C79.6948 16.265 79.8236 16.2882 79.862 16.2944C80.0945 16.3299 79.7574 16.2739 79.7507 16.2747C79.7141 16.2723 79.7 16.277 79.6975 16.2994C79.6959 16.3283 79.7004 16.346 79.7193 16.5117C79.7345 16.6084 79.7168 16.6652 79.8279 16.9961C79.8811 17.1336 79.9611 17.3298 80.1854 17.5681C80.4009 17.8044 80.8286 18.0508 81.2749 18.0655C82.1667 18.0682 82.4496 17.6086 82.4844 17.6054C82.7825 17.2669 82.7127 17.2734 82.7562 17.2057C82.7866 17.1259 82.7955 17.114 82.8406 17.1127C82.8492 17.1148 83.1984 17.2271 82.9038 17.1179C82.8845 17.1099 82.5819 17.0015 82.7885 17.0764C82.8015 17.0809 82.9577 17.1355 82.9416 17.1304C82.9253 17.1259 83.0291 17.1638 82.8547 17.1124C82.7999 17.0957 82.4926 17.004 82.734 17.0882C82.7506 17.095 83.3004 17.2731 82.9178 17.161C82.8548 17.1425 82.4509 17.0205 82.6551 17.0925C82.6948 17.1063 82.786 17.1298 82.841 17.151C82.9259 17.1832 82.8142 17.1629 82.9926 17.2228C83.0241 17.2337 83.2983 17.3165 83.0873 17.2639C83.0542 17.2558 82.9189 17.2167 82.9028 17.2156C82.8258 17.2106 82.9126 17.251 82.8141 17.2426C82.7795 17.2398 82.5596 17.1803 82.4988 17.1719C82.438 17.1633 82.3774 17.1638 82.4768 17.1955C82.5762 17.2272 82.9305 17.3065 82.9564 17.3226C83.0693 17.392 82.8528 17.3846 82.8131 17.4226C82.8072 17.4281 82.9355 17.449 82.9361 17.4586C82.9383 17.4953 83.048 17.5716 82.7711 17.5548C82.549 17.5429 82.3884 17.4834 82.2963 17.4887C82.2522 17.4922 82.6671 17.5697 82.68 17.5736C82.81 17.6152 82.6231 17.6014 82.6771 17.6286C82.6883 17.6341 82.8582 17.6545 82.8659 17.6588C82.8938 17.6733 82.8167 17.674 82.8292 17.6859C82.8352 17.6913 82.9648 17.7072 82.9543 17.7098C82.9307 17.7163 82.8752 17.7176 82.7525 17.7128C82.7413 17.7125 82.5807 17.687 82.5738 17.6941C82.5631 17.7052 82.4412 17.7083 82.5638 17.7355C82.6007 17.7437 82.8977 17.7735 82.6917 17.7615C82.6487 17.7589 82.2921 17.7223 82.5994 17.7622C82.6504 17.7696 83.0652 17.8215 82.7963 17.8056C82.7255 17.8015 82.4327 17.7833 82.4783 17.7921C82.4855 17.7933 82.6456 17.8033 82.6609 17.8083C82.712 17.8255 82.6941 17.8377 82.7435 17.8533C82.757 17.8573 82.9229 17.8623 82.9378 17.8677C82.979 17.8822 82.9361 17.8937 82.8839 17.9031C82.8643 17.9066 82.727 17.8994 82.712 17.8992C82.4687 17.8972 82.7968 17.9101 82.816 17.9119C82.9303 17.9241 82.776 17.9281 82.8168 17.9372C82.8276 17.9395 82.9842 17.9387 82.9982 17.9392C83.1346 17.9436 82.8534 17.9396 82.8224 17.9424C82.7928 17.9451 82.7746 17.948 82.7643 17.951C82.744 17.9571 82.7541 17.9632 82.7674 17.9686C82.7751 17.9714 82.9565 17.9642 82.9613 17.9665C82.9929 17.9797 82.9761 17.9925 82.8771 18.0137C82.8582 18.0177 82.7186 18.0254 82.6868 18.0281C82.4642 18.0485 82.7687 18.034 82.7977 18.0326C82.9304 18.0284 82.8073 18.0407 82.8308 18.0445C82.9476 18.0603 82.8701 18.0989 82.8251 18.1362C82.7669 18.182 82.644 18.2441 82.6881 18.2783C82.6907 18.2805 82.8704 18.2326 82.875 18.2337C82.9249 18.2482 82.8624 18.2948 82.9227 18.3082C82.9273 18.3093 83.0949 18.2544 83.1078 18.2541C83.1356 18.2531 83.1291 18.2645 83.078 18.2893C83.0534 18.3014 82.9078 18.343 82.8861 18.3544C82.8353 18.3815 82.827 18.3964 82.8573 18.3975C82.8705 18.3978 83.0389 18.3331 83.0427 18.3376C83.0721 18.3679 83.1134 18.3902 82.9136 18.5197C82.8999 18.5285 82.5608 18.6677 82.6289 18.6486C82.7234 18.6111 82.8344 18.5663 82.9353 18.5258C83.0147 18.5661 82.9275 18.6837 82.9449 18.7682C82.9456 18.7717 83.1193 18.6847 83.1216 18.6909C83.1352 18.727 83.2 18.738 83.0448 18.8605C83.0296 18.8725 82.721 19.019 82.7732 19.0083C82.7827 19.0063 82.8323 19.0042 82.9012 18.9763C82.9116 18.972 83.0534 18.899 83.0603 18.9026C83.098 18.9247 83.0827 18.9759 83.0127 19.054C83.0011 19.0667 82.846 19.1362 82.8365 19.146C82.77 19.2148 82.9013 19.1889 82.7776 19.2862C82.6942 19.3516 82.4281 19.4758 82.1748 19.6152C82.139 19.6349 82.1392 19.6497 81.9892 19.7255C81.6119 19.9161 81.195 20.1173 80.7932 20.3212C80.7066 20.3651 80.8081 20.3344 80.5936 20.4298C80.5792 20.4362 80.5038 20.4593 80.4312 20.492C80.381 20.5146 80.2299 20.5947 80.1648 20.6221C80.0999 20.6494 80.2258 20.5808 80.1484 20.611C80.07 20.6415 79.8976 20.7315 79.8701 20.728ZM80.5551 16.8419C80.7168 16.8676 80.1343 16.7314 80.271 16.7754C80.2783 16.7777 80.5472 16.8406 80.5551 16.8419ZM80.3094 18.25C80.5692 18.2987 80.1953 18.1946 79.9949 18.156C79.7948 18.1174 80.2306 18.2353 80.3094 18.25ZM80.4573 18.4528C80.6636 18.4856 79.8412 18.2775 80.0029 18.3378C80.0121 18.3412 80.4454 18.4509 80.4573 18.4528ZM82.0776 19.6047C82.0705 19.6084 82.0679 19.6204 82.075 19.6171C82.2472 19.5367 82.2525 19.5129 82.0776 19.6047ZM80.6221 18.6586C80.7348 18.6809 80.6103 18.633 80.4701 18.6053C80.3574 18.5829 80.4819 18.6309 80.6221 18.6586ZM81.414 16.5152C81.4058 16.5117 81.3962 16.5136 81.4425 16.5335C81.5917 16.5974 81.5515 16.5752 81.414 16.5152ZM80.5657 18.9247C80.6064 18.8934 81.2921 19.0398 81.2048 19.063C81.189 19.0672 80.9921 18.9923 80.9284 18.9867C80.8123 18.9767 81.2361 19.0953 81.0028 19.0564C80.9602 19.0492 80.5619 18.9261 80.5648 18.9244C80.5651 18.9245 80.5654 18.9246 80.5657 18.9247ZM81.2567 16.9972C81.2644 16.9987 81.2739 16.9908 81.2664 16.9889C81.0825 16.9411 81.0633 16.9567 81.2567 16.9972ZM80.9409 16.795C80.9244 16.7914 80.9034 16.8106 80.9183 16.8149C81.2172 16.9002 81.2597 16.8647 80.9409 16.795ZM81.5327 17.7255C81.7159 17.7809 81.7347 17.7985 81.4997 17.7496C81.5145 17.7425 81.5188 17.7328 81.5327 17.7255Z" fill="white"/>
</svg>
