<svg width="33" height="37" viewBox="0 0 33 37" fill="none" xmlns="http://www.w3.org/2000/svg">
<path d="M6.38727 27.6833C6.63105 26.8737 7.10217 25.8757 7.50286 25.1386C7.62892 24.9055 7.70177 25.079 7.79508 24.9188C7.97231 24.6182 8.04008 24.2794 8.22689 23.9851C8.28968 23.8872 8.42991 24.0986 8.49136 23.994C8.83003 23.4123 9.0208 22.812 9.31914 22.2143C10.7996 19.249 12.1736 16.3078 13.6791 13.3138C14.1755 12.326 14.9275 11.198 15.3598 10.1383C15.4103 10.0142 15.2098 10.0037 15.2075 9.97421C15.1768 9.51347 15.4508 9.79786 15.6108 9.58829C16.2474 8.7516 16.7879 7.74105 17.1958 6.83141C17.3704 6.44199 16.846 6.64321 17.2301 6.36483C17.2564 6.34548 17.3773 6.53299 17.4509 6.44117C17.615 6.23654 17.83 5.77407 17.9421 5.60612C18.1585 5.28281 18.194 5.21624 18.3798 4.89605C18.5513 4.60351 18.7975 4.27348 19.0055 3.95589C19.1002 3.8113 19.1885 3.66154 19.2612 3.50845C19.3095 3.40547 19.0608 3.43434 19.1218 3.26113C19.1826 3.0885 19.4387 2.67634 19.5634 2.55515C19.6877 2.43464 19.7886 2.57525 19.8346 2.56793C20.2172 2.51301 20.1518 1.79954 20.1899 1.72284C20.2919 1.50483 20.4028 1.2984 20.5643 1.06977C20.6481 0.954504 20.7331 0.839085 20.8977 0.682738C20.985 0.605559 21.0801 0.510225 21.3179 0.393808C21.4487 0.335108 21.6236 0.264752 21.9043 0.266117C22.1873 0.263126 22.527 0.402406 22.7184 0.579683C23.8482 1.84224 23.5744 2.71749 23.7284 3.61617C23.8184 4.64247 23.8795 5.66742 23.8354 6.58825C23.7788 7.67851 23.6049 8.58333 23.5394 9.62637C23.5322 9.73531 23.7778 9.62688 23.7694 9.76044C23.6785 11.1883 23.5128 12.5974 23.2131 13.9868C23.183 14.1249 22.9951 13.9241 22.9526 14.0608C22.6962 14.9073 22.1514 16.2243 22.9972 16.8287C22.9041 17.405 22.7982 18.1103 22.5675 18.6132C22.4188 18.9387 22.2253 18.5915 22.282 19.0128C22.2946 19.1076 22.5026 19.0056 22.5066 19.1463C22.5232 19.7401 22.4008 20.375 22.4518 20.9663C22.4627 21.0862 22.6419 21.0691 22.6707 21.1052C22.9036 21.4071 22.4393 21.8388 22.4001 21.9389C22.106 22.6962 22.1533 23.2723 22.097 23.9955C22.0839 24.1634 22.3349 23.9813 22.3309 24.1433C22.3109 24.8533 22.256 25.5822 22.1517 26.2821C22.1311 26.4383 22.1075 26.5658 22.0742 26.7246C22.0253 26.9371 21.8475 26.7166 21.8136 26.8134C21.638 27.2529 22.0704 27.3939 21.6521 28.0407C21.5454 28.1757 21.4532 27.9973 21.4206 28.0125C21.1674 28.1185 20.9828 28.3186 20.7254 28.4553C20.4742 28.5914 20.246 28.6505 20.169 28.6396C19.6501 28.5338 19.4737 28.3248 19.3133 28.1626C19.1632 27.9927 19.0732 27.825 18.9959 27.6605C18.8458 27.3334 18.751 27.0201 18.5308 26.7138C18.4777 26.6397 18.3937 26.9297 18.2554 26.7114C18.0456 26.3761 17.8575 26.0271 17.6901 25.6631C17.2033 24.6032 16.639 23.5301 16.0841 22.493C15.9715 22.2841 16.2027 22.3277 16.2111 22.3041C16.3303 21.9205 15.89 22.0379 15.8326 21.9858C15.384 21.5627 15.3095 20.8898 14.6541 20.8854C13.1595 18.7657 11.1198 17.1512 9.45479 15.1277C9.43317 15.1023 9.6142 14.9815 9.57034 14.9314C9.03905 14.3272 8.94312 14.6741 8.28979 14.6527C8.12489 14.6467 8.11685 14.0239 8.10872 13.9728C8.08762 13.7902 8.38731 13.6303 8.36875 13.5834C8.20626 13.2032 7.61591 14.0488 7.23679 13.7562C7.22593 13.7456 7.39157 13.6338 7.37116 13.5943C7.30876 13.4715 7.16183 13.4542 7.10354 13.3281C7.06281 13.2394 7.05516 13.135 7.04924 13.032C7.0264 12.789 7.03023 12.5699 6.6606 12.5137C6.59088 12.496 6.27327 13.0232 5.91379 12.6148C5.84496 12.5274 5.63878 12.3213 5.4538 11.9625C5.36374 11.7836 5.27902 11.5474 5.27007 11.2836C5.25731 11.0204 5.34214 10.7687 5.41275 10.6466C5.72435 10.1937 5.68265 10.6313 5.71251 10.5919C6.13856 10.2444 6.28868 10.3617 6.39038 10.3923C6.49306 10.4458 6.55175 10.5311 6.70622 10.635C6.73041 10.6516 6.7571 10.6685 6.78676 10.6858C7.19013 10.9243 6.80365 10.1347 6.88399 10C6.96641 9.86424 7.43876 9.91499 7.56576 9.94863C7.68985 9.98225 7.60207 10.1381 7.70441 10.1464C8.37515 10.205 7.83087 9.64775 7.98732 9.45198C8.36591 8.99036 8.91902 9.51254 9.36122 9.46957C9.48278 9.45778 9.35199 9.33707 9.45393 9.29844C9.85858 9.14937 10.15 9.29414 10.5924 9.02458C10.6605 8.98086 10.9962 8.52757 11.2926 8.77595C11.334 8.8119 11.2563 8.98617 11.4403 8.99717C11.7141 9.01325 12.2042 8.99383 12.4871 8.91666C12.6993 8.85901 12.4301 8.61269 12.7098 8.67421C12.8333 8.7024 12.6217 8.87396 12.851 8.91445C13.0768 8.95363 13.6496 8.92204 13.8657 8.91449C14.0816 8.90527 13.9607 8.70499 13.9778 8.69101C14.084 8.61019 14.5092 8.51325 14.5465 8.5149C16.4507 8.5163 18.1194 9.10006 19.9039 9.37572C20.0446 9.39808 19.9985 9.16926 20.0204 9.17052C20.5184 9.19143 20.0172 9.65923 20.3022 9.92029C20.354 9.48774 20.5293 9.60822 20.8738 9.64468C21.0393 9.66201 20.993 9.47764 21.0118 9.46461C21.3128 9.27746 21.3961 9.63959 21.4214 9.71576C21.5152 9.9962 21.76 9.75903 21.8228 9.94764C21.8849 10.1349 21.5795 10.3037 21.8926 10.3863C22.0223 10.2612 21.8949 9.80568 22.1532 9.80893C23.132 9.81754 24.7092 10.6408 25.4108 10.8966C26.1128 11.151 26.3502 11.1948 26.7495 11.3757C27.4667 11.699 27.2835 11.3294 27.7827 11.3329C28.2854 11.3348 27.8567 11.9806 27.8803 12.1529C27.9036 12.3248 28.0207 12.1878 28.0797 12.295C28.1388 12.4021 27.9309 12.4565 28.1166 12.5422C28.3062 12.6298 28.9127 12.4965 29.0231 12.3518C29.2536 12.047 29.109 11.6335 29.5769 11.8767C29.5783 11.8775 29.5797 11.8782 29.5811 11.8789C29.5923 11.885 29.5742 11.9188 29.5574 11.959C29.5448 11.9891 29.533 12.0229 29.5355 12.0514C29.5374 12.0744 29.5485 12.0941 29.5756 12.1055C30.4149 12.4769 31.3924 12.4889 32.31 12.9336C32.4301 13.0057 32.2308 13.1543 32.2913 13.1965C32.3849 13.266 32.444 13.3222 32.4906 13.3647L32.4947 13.1727C32.2012 13.4416 32.5107 13.5859 32.4583 14.0809C32.1828 13.6058 31.7777 13.5224 31.3373 13.8859C31.065 14.1094 31.2611 14.2524 31.1859 14.529C31.1625 14.613 30.8714 14.6413 30.9052 14.7563C31.0159 15.132 31.459 15.2972 30.8753 15.5577C30.8492 15.5687 30.7934 15.3597 30.7124 15.409C30.1941 15.72 30.3772 16.0579 29.886 16.4965C29.5115 16.8322 28.6484 17.1965 28.1624 17.5106C27.8081 17.0186 27.4579 17.4515 27.5282 17.9185C27.2172 18.1263 26.9013 18.3862 26.5777 18.5495C26.4657 18.6064 26.4287 18.4164 26.4049 18.4102C26.0362 18.3098 26.1421 18.7349 26.0855 18.7954C25.4677 19.4313 24.7077 19.593 24.1997 20.3191C24.1817 20.345 24.3845 20.7175 24.0243 20.5946C24.0005 20.5854 24.1154 20.2706 23.7866 20.4833C23.4589 20.6951 22.7206 20.9348 22.3862 21.4037C22.3049 21.5172 22.2249 21.9883 21.8524 21.9207C21.8025 21.911 21.7659 21.7894 21.6855 21.7632C21.4274 21.681 21.5941 22.0831 21.2283 21.8957C20.8625 21.7084 20.3752 21.7146 20.0637 22.2299C20.0534 22.2457 20.1367 22.5975 19.9912 22.6904C19.7589 22.8384 19.3968 23 19.1598 23.1638C19.0466 23.2422 19.2373 23.3659 19.2197 23.3825C18.5206 23.9996 17.8702 24.2142 17.0023 24.7023C16.8418 24.7923 16.5732 25.3181 16.1523 25.3293C15.6932 25.3404 15.4461 24.2667 14.8496 24.9638C14.6074 25.245 14.9575 26.5826 14.0487 26.3794C13.1081 27.2149 11.9518 27.5768 11.053 28.4771C11.0119 28.5179 11.0688 28.9197 10.9574 28.9897C10.7913 29.0931 10.608 29.0121 10.4876 29.0807C9.96306 29.3771 9.61233 29.7948 9.13013 30.1014C8.95003 30.2164 8.91375 30.0272 8.69728 30.1658C8.47641 30.308 8.46725 30.597 8.12466 30.7012C7.8646 30.78 7.36356 30.5541 7.05478 30.7072C7.3207 31.0917 7.10905 31.2304 6.84057 31.5783C6.78968 31.645 6.95507 31.7257 6.936 31.764C6.86273 31.9211 6.66521 31.8988 6.59582 32.0635C6.57922 32.1031 6.6728 32.2324 6.66488 32.2717C6.60365 32.609 6.06364 32.5676 5.96497 32.5649C5.60192 32.5442 5.64096 32.7772 5.40939 32.8415C5.18588 32.9004 5.35961 32.6118 5.13174 32.7217C4.92221 32.8187 4.66868 32.9979 4.47116 33.1594C4.23636 33.3414 4.00073 33.5329 3.78271 33.6878C3.61826 33.8051 3.85446 33.8967 3.83389 33.9174C3.51833 34.2128 3.03681 34.2535 3.0627 34.7389C2.22931 33.9659 2.90178 34.9686 2.2613 35.0964C2.21048 35.1059 1.89334 34.691 2.01213 34.5315C2.12851 34.3734 2.44916 34.3688 2.59818 34.1349C2.63577 34.0792 2.65398 33.4898 2.67285 33.4413C2.83371 33.059 3.30982 33.6686 3.35152 33.6923C3.79624 33.9451 3.82179 33.272 3.87781 33.1802C3.9732 33.0345 4.07838 32.917 4.1868 32.8099L4.17288 32.8219C4.38227 32.6038 4.64316 32.4167 4.81214 32.1815C4.99542 31.938 4.7031 31.5227 4.88878 31.3986C5.52936 30.9728 6.153 31.3959 6.34561 30.4963C6.38852 30.304 5.95299 29.9325 6.63673 29.9797C6.67903 29.9831 7.23008 30.0808 7.27793 29.7381C7.28372 29.6951 7.18999 29.5632 7.21213 29.531C7.36371 29.3166 7.5751 29.3258 7.76911 29.115C7.97165 28.8984 8.17348 28.6463 8.46956 28.5085C8.64726 28.4256 9.01823 28.5362 9.13246 28.5473C9.46034 28.5798 9.49086 28.1365 9.76905 28.2581C10.0476 28.3812 10.0134 28.8804 10.4503 28.7844C10.2259 28.4287 10.0116 28.0526 9.79374 27.6895C10.5577 27.1863 11.3878 26.7886 12.1306 26.2649C12.2237 26.1988 12.0004 26.0768 12.0972 26.001C12.5102 25.679 12.9613 25.5694 13.3746 25.2138C13.6853 24.9436 13.9275 24.4922 14.2535 24.2C14.7377 24.4538 15.1794 23.9595 15.5886 23.7366C15.7314 23.6587 15.7942 23.7712 15.9134 23.7414C16.3615 23.626 15.9545 23.3879 16.0162 23.2656C16.2833 22.7408 16.8567 23.5145 17.3445 23.1558C17.3705 23.1371 17.4078 22.4925 17.4347 22.4357C17.6016 22.071 17.5819 22.5515 17.7804 22.4627C18.1426 22.3007 18.4367 22.2489 18.7323 21.8659C18.8179 21.7539 18.9028 21.3092 19.2567 21.3668C19.3032 21.3742 19.3832 21.5249 19.4115 21.5175C19.9163 21.3729 19.6263 20.9258 19.7588 20.6163C19.8913 20.3068 20.4609 20.3612 20.5946 20.3977C20.9425 20.4908 20.5136 20.5957 20.5184 20.6251C20.5773 20.9731 20.8099 20.7462 21.0269 20.6293C21.3528 21.039 21.6177 20.8179 21.2511 20.5061C21.2106 20.4724 21.0811 20.6209 21.0269 20.6293C20.9135 20.0851 21.1853 19.8177 21.7989 19.9745C22.0865 20.0478 22.0841 20.3686 22.5163 19.9508C22.7121 19.7616 22.4212 19.5262 22.5587 19.3104C22.87 18.82 23.6416 18.6869 24.0618 18.3234C24.2164 18.19 23.9411 18.1442 24.0425 18.0476C24.3113 17.7909 24.6583 17.7243 24.9109 17.4495C24.934 17.4241 24.7472 17.3047 24.839 17.2354C25.5291 16.7089 26.2131 16.3733 26.9368 15.8392C27.2894 15.5794 27.8387 15.0225 28.2077 14.7672C28.8448 14.3276 29.789 13.9633 30.246 13.4948C30.5546 13.1817 30.3486 13.0834 30.4005 12.8582C30.4919 12.4299 31.2859 12.3912 31.3966 12.3938C31.4013 12.3935 31.1541 12.6707 31.3722 12.6224C31.603 12.7144 31.3943 12.3971 31.3966 12.3938C31.4262 12.3942 31.5383 12.3225 31.6632 12.2303L31.6197 14.2708C31.8354 14.4129 31.7006 14.3001 31.6443 14.3228C31.5954 14.3319 31.57 14.5272 31.5461 14.5288C30.9988 14.5482 29.9564 14.5175 29.0148 14.2471C28.8475 14.1998 28.681 14.1473 28.5153 14.09C28.4978 14.0815 28.5795 13.8769 28.5378 13.8595C27.9636 13.6115 27.5158 13.7616 26.9848 13.7723C26.4553 13.7825 26.0916 13.6152 25.9201 13.1702C25.5498 13.1057 25.0903 12.7881 24.829 12.6008C24.5679 12.4137 24.4015 12.8071 24.3733 12.8071C23.4982 12.8159 23.1164 12.4418 22.3128 12.1664C21.9303 12.0339 21.1502 11.8806 20.7224 11.8198C20.3865 11.772 20.21 11.626 19.8945 11.617C19.8518 11.6157 19.8497 11.8096 19.8356 11.8138C19.4501 11.9568 19.7143 11.5433 19.663 11.4467C19.4751 11.0965 19.3501 10.9037 18.8829 10.9541C18.7745 10.9653 18.36 11.5642 18.1757 11.5715C17.9342 11.5794 18.0631 11.359 17.8087 11.3756C17.787 11.377 17.7678 11.5228 17.6187 11.4928C16.9276 11.356 16.1753 11.1849 15.4506 11.1581C15.3517 11.154 15.4641 11.3942 15.3233 11.3925C14.6599 11.3845 13.9464 11.375 13.2986 11.3003C13.1404 11.2812 13.2293 11.1125 13.1924 11.0659C12.9612 10.784 12.6873 11.2349 12.6407 11.2476C11.4998 11.5598 10.5437 11.3378 9.4166 11.8292C9.35294 11.8563 9.00253 12.4334 8.6757 12.1274C8.65473 12.1066 8.31404 11.7937 8.21057 12.1198C8.20536 12.1399 8.4019 12.2907 8.16786 12.3494C7.98652 12.3953 7.75507 12.5641 7.47382 12.5992C7.47261 12.5778 7.48545 12.5383 7.51182 12.4636C7.52903 12.4074 7.54094 12.2798 7.64813 12.0507C7.76288 11.8383 7.92339 11.3419 8.00282 10.9974C8.01614 10.9741 8.13054 10.6776 8.18261 10.5361C8.23706 10.3871 8.27551 10.3584 8.10778 10.5432C8.05693 10.606 7.62936 10.935 8.00814 10.9236C8.08129 10.9192 8.09242 10.7714 8.23997 10.8045C8.35387 10.8295 8.45093 10.9171 8.57417 10.9995C8.7414 11.1148 8.92852 11.2281 9.16388 11.2602C9.24459 11.2696 9.71085 11.1776 9.73448 11.5426C9.73827 11.5998 9.57203 11.6928 9.66122 11.7885C10.0838 12.2434 10.6561 12.5605 11.0525 13.0579C11.192 13.233 10.9218 13.3764 11.0451 13.583C11.1697 13.7903 11.4649 14.1467 11.7292 14.209C11.9942 14.2717 12.1016 13.758 12.3951 13.9738C13.6714 14.9166 14.6032 16.2119 15.6348 17.411C15.788 17.5899 15.7786 17.3356 16.0125 17.5936C16.8807 18.5295 18.3938 20.2245 18.7256 21.3855C18.9912 22.3 18.1936 21.4559 18.4726 22.0958C18.6027 22.3987 19.2411 22.4381 19.2973 22.501C19.8505 23.1088 19.9099 23.7214 20.2856 24.3561C20.3585 24.4808 20.4803 24.2864 20.5472 24.3615C20.5504 24.3643 20.5533 24.3678 20.5559 24.3721C20.7201 24.6426 20.7965 24.9949 20.9626 25.2404C21.0373 25.3487 21.1643 25.2433 21.2138 25.3456C21.3298 25.5826 21.4171 25.8013 21.3501 25.9464C21.3455 25.9613 21.1757 26.0797 21.2015 26.115C21.1991 26.1208 21.1852 26.1036 21.0112 26.0345C20.9235 26.0035 20.7808 25.9522 20.5425 25.9429C20.3151 25.9302 19.9819 26.0018 19.7554 26.139C19.29 26.4351 19.271 26.6421 19.2285 26.6836C19.1984 26.7364 19.1949 26.6983 19.1654 26.6451C19.1325 26.5644 18.7651 26.5295 19.043 26.3566C19.0985 26.3121 19.5143 26.4191 19.212 26.129C19.2012 26.1162 19.1895 26.1027 19.1769 26.0886C19.1156 26.0208 18.6301 25.3372 18.9861 25.0366C19.0796 24.9573 19.4589 24.7651 19.4133 24.5758C19.4058 24.55 19.1992 24.6382 19.1897 24.4828C19.1596 23.9354 19.2213 23.3673 19.2009 22.8065C19.1952 22.6562 18.9714 22.8624 18.9695 22.6388C18.9639 22.0245 19.0795 21.2671 19.1959 20.6804C19.2394 20.4629 19.3973 20.6297 19.4173 20.6153C19.7427 20.3853 19.3474 20.1982 19.3311 20.111C19.2356 19.5723 19.4653 19.1838 19.4602 18.6962C19.4594 18.5616 19.2555 18.6376 19.2407 18.6094C19.0974 18.3154 19.4276 18.5556 19.483 18.3836C19.6392 17.903 19.677 17.3563 19.7012 16.8596C19.7098 16.6778 19.4637 16.8586 19.474 16.6957C19.5316 15.7237 19.6548 14.7323 19.874 13.8061C19.9155 13.6336 20.0782 13.7612 20.1216 13.7288C20.425 13.504 20.0834 13.0922 20.0556 13.0048C19.9288 12.606 20.0981 12.4645 20.1025 12.1219C20.1222 10.4476 20.4082 8.40246 20.5407 6.89165C20.6276 5.90278 20.7039 5.03327 20.7059 4.24201C20.7068 3.8522 20.686 3.47086 20.6342 3.16659C20.6102 3.02054 20.5744 2.8855 20.5476 2.81806C20.5271 2.7506 20.4911 2.75933 20.6344 2.91372C20.6483 2.92766 20.6523 2.94313 20.6491 2.95931C20.8563 3.16549 20.7505 3.14078 20.7071 3.16975C20.6887 3.18406 20.6886 3.21419 20.7844 3.29412C20.8795 3.3669 21.0849 3.52251 21.5273 3.60655C22.3208 3.72159 22.7047 3.46641 22.8752 3.38733C23.0669 3.27837 23.1277 3.21871 23.176 3.1796C23.2653 3.10074 23.2652 3.09474 23.2627 3.10187C23.2498 3.12161 23.1887 3.20783 23.1284 3.30108C23.0033 3.4927 22.8539 3.73658 22.7049 3.98486C22.4033 4.48765 22.0893 5.0309 21.7628 5.60732C21.6906 5.73555 21.6193 5.86662 21.5492 6.00071C21.4974 6.09901 21.7684 6.07256 21.6918 6.23407C21.535 6.56839 21.2985 6.95818 21.0552 7.24887C20.9381 7.38882 20.8906 7.08622 20.7758 7.22959C20.5067 7.56626 20.2738 7.95968 20.0963 8.36498C20.021 8.53831 20.3539 8.39439 20.2406 8.61133C19.4835 10.0758 18.7841 11.5547 17.7874 12.9464C17.7192 13.0417 17.2622 12.9343 17.2345 13.1953C17.3411 13.2671 17.4764 13.3308 17.5954 13.3968C16.6102 15.6232 15.4671 17.7601 14.4632 19.9978C14.4207 20.0928 14.7149 20.0252 14.6339 20.2093C14.1682 21.2689 13.7881 22.3281 13.1061 23.328C13.0395 23.4257 12.6682 23.2064 12.593 23.5534C12.579 23.6171 12.434 24.1124 12.4656 24.2785C12.4714 24.3009 12.6923 24.2887 12.6326 24.4476C12.2861 25.3616 11.8577 26.29 11.3813 27.1504C11.303 27.2919 11.1696 27.0542 11.112 27.1545C10.7127 27.8477 10.5426 28.7184 10.09 29.3555C9.78633 29.7825 9.50959 29.4805 9.07753 29.599C9.01923 29.6086 8.89397 29.9157 8.69316 29.853C8.18388 29.7059 7.69736 29.3567 7.14809 29.2168C7.02832 29.1901 7.00506 29.6232 6.81678 29.2909C6.80358 29.27 6.82282 28.9439 6.75969 28.8305C6.71498 28.7547 6.48119 28.7681 6.43685 28.6373C6.39242 28.507 6.6017 28.4611 6.572 28.2502C6.54287 28.0346 6.28269 28.0329 6.38727 27.6833ZM23.6567 11.7655C23.4484 11.4882 23.1918 12.1917 23.5321 12.1087C23.5489 12.1039 23.6677 11.7793 23.6567 11.7655ZM11.6935 27.2633C12.1893 27.3261 12.1198 26.7879 11.7643 26.7206C11.4099 26.6531 11.542 27.2451 11.6935 27.2633ZM8.66089 29.628C9.16134 29.5975 8.61548 28.6859 8.35716 29.1256C8.34209 29.1508 8.63179 29.6298 8.66089 29.628ZM9.43493 28.389C9.42369 28.3904 9.33546 28.5899 9.34088 28.6032C9.51877 28.8007 9.6996 28.3899 9.43493 28.389ZM5.71389 32.0701C5.91864 32.094 6.11647 31.7393 5.8796 31.6938C5.69467 31.6524 5.46548 32.035 5.71389 32.0701ZM9.45935 9.82132C9.45247 9.81136 9.29046 9.84123 9.30909 9.90164C9.36968 10.0953 9.575 9.98594 9.45935 9.82132ZM0.436793 35.6856C1.28486 35.2547 2.22508 35.7216 1.26874 36.1544C1.0961 36.2319 1.48484 35.7103 1.23709 35.7604C0.784509 35.8521 0.799385 36.4742 0.26328 36.4354C0.167283 36.4273 0.389547 35.7075 0.437647 35.6837C0.437362 35.6843 0.437078 35.6849 0.436793 35.6856ZM23.7648 10.8593C23.7624 10.8482 23.5486 10.7734 23.5404 10.7812C23.3546 10.9729 23.7844 11.1234 23.7648 10.8593ZM10.0431 15.3663C10.0389 15.3898 10.417 15.7509 10.4419 15.748C10.9064 15.6409 10.1371 14.9044 10.0431 15.3663ZM28.1454 17.5031C28.0841 17.8465 27.8674 18.0417 27.5293 17.9181C27.738 17.7842 27.9331 17.6428 28.1454 17.5031Z" fill="white"/>
</svg>
