<svg width="44" height="43" viewBox="0 0 44 43" fill="none" xmlns="http://www.w3.org/2000/svg">
<path d="M1.76768 31.6943C2.67377 30.8459 3.95572 29.8689 4.96265 29.1602C5.27611 28.9393 5.21124 29.165 5.43262 29.0163C5.87037 28.7214 6.19676 28.3681 6.63093 28.0904C6.77551 27.9986 6.74543 28.2952 6.89408 28.1952C7.71369 27.6413 8.38737 27.0202 9.17839 26.4316C13.0826 23.5275 16.85 20.5935 20.752 17.5997C22.0374 16.6134 23.6955 15.5376 24.96 14.4296C25.1063 14.301 24.901 14.2286 24.9205 14.1937C25.2305 13.6517 25.3051 14.0671 25.6399 13.8652C26.9409 13.0845 28.2843 12.0475 29.3811 11.0977C29.8514 10.6901 29.1384 10.7837 29.7514 10.5647C29.7934 10.5494 29.7926 10.7985 29.9366 10.7123C30.2581 10.5203 30.8358 10.025 31.0652 9.86623C31.5453 9.53171 31.6267 9.46598 32.0418 9.14701C32.6594 8.67473 33.3881 8.23562 34.0171 7.7022C34.1446 7.59284 33.8484 7.56565 34.0374 7.3796C34.2342 7.18707 34.8389 6.75567 35.0628 6.65281C35.28 6.55373 35.304 6.73136 35.3588 6.73632C35.5517 6.73875 35.6944 6.6443 35.9218 6.47734C36.2988 6.20806 36.577 5.92367 36.7291 5.87088C36.921 5.79965 37.1177 5.74704 37.3291 5.72377C37.5306 5.69678 37.912 5.71307 38.2147 5.84537C38.528 5.96822 38.8386 6.24427 39.0037 6.52272C39.1711 6.80286 39.2217 6.99042 39.2708 7.21435C39.3517 7.66549 39.3314 7.89108 39.3036 8.23108C39.2763 8.48963 39.2294 8.74437 39.1671 9.0136C38.9379 9.96198 38.582 10.8378 38.2705 11.7068C37.7859 13.0469 37.2677 14.4686 36.7124 15.6915C36.0581 17.1262 35.3786 18.3136 34.7327 19.6978C34.6632 19.8459 34.959 19.7756 34.8743 19.957C33.9826 21.8645 33.0246 23.7201 31.9371 25.5129C31.8279 25.6924 31.7653 25.358 31.6452 25.5317C30.914 26.5978 29.6252 28.2173 30.083 29.3C29.6528 30.0618 29.1419 30.9776 28.6274 31.5839C28.2972 31.9723 28.3187 31.4351 28.1231 32.0288C28.0783 32.1636 28.3372 32.0911 28.2569 32.2861C27.9243 33.0959 27.4282 33.9292 27.1398 34.7287C27.0777 34.8994 27.2581 34.9347 27.2637 34.9945C27.2998 35.4966 26.6208 35.9021 26.5219 36.0322C25.7944 36.9811 25.5265 37.7367 25.0632 38.7275C24.963 38.9429 25.2953 38.7879 25.2081 38.9962C24.9807 39.535 24.7476 40.0801 24.5581 40.5515C24.4296 40.8698 24.301 41.2001 24.0845 41.5883C23.9694 41.7833 23.8486 41.9988 23.568 42.2624C23.4258 42.3909 23.2209 42.5423 22.9309 42.6274C22.643 42.7161 22.304 42.6912 22.0763 42.6113C21.7115 42.4701 21.778 42.4018 21.8178 42.3683C21.8707 42.3322 21.9451 42.31 21.8382 42.2382C21.6517 42.1048 21.5497 42.0071 21.4483 41.9283C21.1578 41.7108 20.8657 41.7405 20.5988 41.3465C20.5288 41.2423 20.7053 41.1798 20.7045 41.1503C20.7 40.6944 20.1888 40.7337 20.1223 40.6655C19.3077 39.8341 19.2847 38.9738 18.719 38.0633C18.6512 37.9522 18.5947 38.3157 18.4157 37.9942C17.2232 35.8394 16.5838 33.3234 16.3007 30.9968C16.2564 30.6343 16.4686 30.8577 16.484 30.831C16.7241 30.407 16.2636 30.2504 16.2264 30.1358C15.9457 29.2352 16.1676 28.324 15.575 27.7735C15.2691 24.765 14.8422 21.8247 14.3519 18.9549C14.2066 18.1126 14.011 17.2373 13.8391 16.3618C13.829 16.3137 14.0553 16.3326 14.0342 16.2365C13.7748 15.0772 13.5364 15.4016 12.9051 14.7979C12.7477 14.6502 12.9992 13.9257 13.014 13.8638C13.0704 13.6375 13.4318 13.721 13.4334 13.6513C13.4369 13.0809 12.4976 13.5122 12.25 12.8394C12.2438 12.8175 12.4547 12.8412 12.4514 12.7776C12.4408 12.5776 12.3073 12.4341 12.3039 12.2372C12.2988 11.7897 12.7147 11.4714 12.2164 10.9724C12.1523 10.9096 11.6482 11.2294 11.4479 10.6184C11.368 10.3729 10.9571 9.31257 10.8797 9.00018C10.8026 8.68887 11.0561 8.82695 11.0557 8.80285C10.985 7.90955 11.1975 8.18045 11.3903 7.64601C11.583 7.11486 10.8048 7.53484 10.6514 7.4048C10.4975 7.27277 10.4697 6.61286 10.482 6.44131C10.4951 6.27192 10.6745 6.41014 10.6644 6.26759C10.5936 5.32107 10.1166 6.04322 9.8817 5.81057C9.32563 5.25877 9.74459 4.51549 9.58231 3.88375C9.53825 3.71232 9.44824 3.89794 9.38187 3.75579C9.1209 3.19118 9.18525 2.77159 8.77434 2.16947C8.70715 2.071 8.14854 1.662 8.29779 1.21757C8.31387 1.17114 8.42748 1.20626 8.4653 1.12352C8.47403 1.06857 8.45391 0.998963 8.47313 0.830989C8.48218 0.742223 8.54027 0.604859 8.6514 0.531926C8.75431 0.464843 8.82958 0.459476 8.90445 0.457359C9.06338 0.464395 9.09197 0.488113 9.18974 0.520138C9.32873 0.574285 9.48394 0.65665 9.59606 0.718843C9.7254 0.789765 9.85643 0.86501 9.9703 0.927849C10.0906 0.994417 10.2094 1.05835 10.3009 1.0998C10.5914 1.23687 10.4203 0.80984 10.7274 1.10734C10.8487 1.23143 10.4999 1.18831 10.7359 1.4121C10.9931 1.64794 11.6715 2.11801 11.9329 2.30351C12.2012 2.49212 12.1761 2.2235 12.2053 2.22783C12.3752 2.25429 12.9242 2.54077 12.9743 2.57948C15.164 4.19984 16.9062 6.07111 18.9964 7.67657C19.1616 7.80432 19.1926 7.55152 19.2193 7.56933C19.826 7.9636 19.0332 8.03743 19.2855 8.49917C19.5115 8.12315 19.6796 8.36749 20.0948 8.65827C20.2955 8.79856 20.3032 8.58489 20.3312 8.5862C20.7771 8.63133 20.7428 9.03519 20.7494 9.12948C20.7672 9.47059 21.1543 9.4174 21.1702 9.64934C21.1867 9.8803 20.7431 9.81966 21.1139 10.1349C21.3164 10.1047 21.3127 9.56655 21.6293 9.75285C22.8391 10.4649 24.5598 12.4015 25.3589 13.1611C26.1702 13.9291 26.4403 14.1346 26.8882 14.6136C27.6792 15.465 27.5649 14.9566 28.1947 15.3425C28.8255 15.7309 28.0641 16.038 28.0344 16.226C28.0021 16.4117 28.1941 16.3655 28.2286 16.5153C28.2627 16.6648 27.9883 16.5605 28.1851 16.7848C28.3812 17.0082 29.1774 17.3555 29.3643 17.3018C29.7665 17.1935 29.747 16.6723 30.2384 17.3025C30.2665 17.339 30.0263 17.3818 30.1407 17.5143C31.0308 18.5352 32.0335 19.4893 32.9313 20.5058C32.9563 20.5341 32.9811 20.5624 33.0058 20.5906C33.132 20.7354 32.8592 20.7752 32.9306 20.861C33.663 21.7484 33.6211 21.2057 34.3549 21.3489C33.8784 21.6394 33.9 22.1151 34.5191 22.7265C34.8867 23.0911 34.9928 22.8654 35.3475 22.9834C35.4517 23.0163 35.6049 23.3982 35.7288 23.3658C36.1407 23.267 36.1828 22.7313 36.7021 23.4879C36.7239 23.5211 36.4955 23.5713 36.5813 23.6759C37.143 24.3635 37.489 24.1754 38.1822 24.841C38.7266 25.3632 39.4586 26.5072 39.989 27.1756C39.5241 27.5638 40.1475 28.071 40.68 28.0558C41.0252 28.4907 41.4232 28.9377 41.7135 29.3928C41.8144 29.5505 41.6008 29.5645 41.6006 29.5947C41.5879 30.0557 42.0548 29.9926 42.1424 30.0786C42.6605 30.599 43.0102 31.1621 43.3886 31.6893C43.5648 31.9375 43.6987 32.1235 43.8497 32.4125C43.9069 32.523 44.0034 32.7309 44.0058 32.9685C44.0245 33.2556 43.7865 33.5882 43.5581 33.7068C43.5268 33.7261 43.5237 33.8476 43.4262 33.9459C43.3212 34.0454 43.1579 34.1026 42.9364 33.9554C42.9227 33.9319 43.3876 33.7342 42.704 33.7261C42.053 33.69 41.0372 33.2167 40.2061 33.196C39.9964 33.1893 39.4403 33.391 39.1187 33.02C39.0762 32.97 39.1672 32.8705 39.1099 32.784C38.9405 32.512 38.6942 32.8836 38.5153 32.4536C38.3368 32.0238 37.8361 31.5912 37.0008 31.5979C36.9749 31.5976 36.6887 31.8634 36.446 31.7839C36.0702 31.6604 35.5222 31.4204 35.1241 31.3026C34.9293 31.2451 34.9933 31.4832 34.9584 31.4767C33.6175 31.1961 32.734 30.7391 31.3476 30.2696C31.0938 30.1831 30.2753 30.2564 29.832 29.9082C29.342 29.5272 30.1694 28.6721 28.8222 28.5895C28.2738 28.5568 27.3322 29.6724 26.5482 28.8135C24.711 28.5958 23.0698 27.9635 21.1902 28.0267C21.1049 28.0293 20.8165 28.3696 20.621 28.3501C20.333 28.3205 20.1858 28.1412 19.9804 28.1187C19.5079 28.0648 19.0381 28.0835 18.5924 28.1136L18.607 28.1121C18.2413 28.21 17.9045 28.3013 17.5264 28.3672C17.2123 28.4221 17.2869 28.2274 16.9168 28.2923C16.5348 28.3599 16.3475 28.6345 15.8142 28.6296C15.4237 28.6226 14.9427 28.2381 14.4267 28.2891C14.5011 28.751 14.1566 28.8126 13.5664 29.063C13.4551 29.1109 13.6133 29.2438 13.5624 29.2747C13.3528 29.4046 13.1096 29.3183 12.9181 29.4523C12.8719 29.4846 12.9006 29.6416 12.863 29.6771C12.5445 29.9851 11.8687 29.7633 11.7566 29.7237C11.3045 29.5786 11.1704 29.8202 10.8448 29.7956C10.5259 29.7697 10.948 29.5577 10.5862 29.5788C9.82319 29.6257 8.89347 29.8592 8.14434 30.0203C7.85202 30.0841 8.098 30.2471 8.05719 30.261C7.45136 30.4528 6.78562 30.3707 6.53702 30.8606C5.87322 29.8829 6.1896 31.0506 5.26163 31.0196C5.18512 31.0169 5.00003 30.5254 5.24521 30.3974C5.49201 30.2689 5.92683 30.3407 6.26853 30.1431C6.35084 30.0965 6.73792 29.5116 6.8039 29.4665C7.28679 29.122 7.52942 29.862 7.5692 29.8967C7.98795 30.2734 8.48289 29.6253 8.6377 29.5536C9.33894 29.2267 9.98508 29.1955 10.5776 28.9447C10.9627 28.7822 10.8963 28.277 11.2159 28.2236C12.2862 28.045 12.795 28.6612 13.664 27.8506C13.8539 27.677 13.523 27.1787 14.3799 27.446C14.4376 27.462 15.0801 27.7366 15.3586 27.4215C15.3929 27.382 15.359 27.2238 15.4102 27.1994C15.7566 27.0385 16.0261 27.115 16.4102 26.9739C16.7998 26.8318 17.2578 26.6454 17.7185 26.6091C17.904 26.5943 18.1507 26.6898 18.3393 26.7682C18.3906 26.7592 18.5414 26.742 18.5934 26.7432C18.6791 26.7997 18.7501 26.8497 18.7958 26.8746C19.1803 27.09 19.6167 26.757 19.8465 27.0259C20.0726 27.2966 19.591 27.6637 20.1996 27.865C20.2478 27.4468 20.3282 27.0196 20.394 26.6002C21.8078 26.7071 23.1548 27.0204 24.528 27.2358C24.6981 27.2623 24.5628 27.0096 24.7466 27.0326C25.5239 27.1326 26.1618 27.4222 26.9626 27.5284C27.5828 27.61 28.3027 27.5301 28.9517 27.6262C29.2237 28.1863 30.1945 28.2631 30.8578 28.4873C31.0902 28.5653 31.0408 28.6852 31.1969 28.7708C31.784 29.0918 31.6005 28.6014 31.7925 28.5847C32.6177 28.5181 32.4099 29.4587 33.2872 29.6875C33.3341 29.6999 34.0322 29.3699 34.1229 29.3636C34.6751 29.3097 34.1546 29.559 34.4506 29.6863C34.9815 29.9164 35.3468 30.1543 36.0352 30.206C36.2443 30.2228 36.7862 30.0536 37.084 30.4026C37.1238 30.4485 37.0473 30.6024 37.084 30.6239C37.746 30.998 37.9086 30.4906 38.3689 30.441C38.8137 30.387 39.3369 30.9246 39.4256 31.0603C39.6693 31.4165 39.1471 31.1013 39.1184 31.1205C38.8204 31.3663 39.2789 31.4447 39.6196 31.5702C39.5297 32.0882 40.0193 32.1934 39.971 31.6968C39.9661 31.6429 39.685 31.614 39.6196 31.5702C40.069 31.1658 40.6024 31.2497 41.0502 31.8557C41.2733 32.1392 40.9471 32.3416 41.7957 32.4271C42.1521 32.4522 42.104 32.0785 42.4068 32.0261C42.5592 31.9919 42.7533 31.9892 42.8546 31.9863C42.9101 31.9861 42.9438 31.983 42.9118 31.9973C42.8934 32.0057 42.8524 32.0207 42.7892 32.0572C42.7177 32.097 42.5903 32.1857 42.4893 32.3256C42.3856 32.464 42.3226 32.6466 42.3115 32.7823C42.2994 32.9306 42.3199 32.9783 42.3323 33.0215C42.3629 33.1002 42.3718 33.0607 42.3606 33.0196C42.323 32.9015 42.2596 32.7855 42.1314 32.6358C42.1308 32.635 42.1302 32.6343 42.1296 32.6336C41.9352 32.4074 41.9527 32.7578 41.8139 32.6066C41.4453 32.2062 41.2785 31.7421 40.8887 31.3633C40.8533 31.3293 40.7628 31.5486 40.6594 31.4198C39.8661 30.4413 39.278 29.5186 38.4135 28.5221C37.998 28.0411 37.1512 27.2746 36.7152 26.7766C35.9672 25.9164 35.1918 24.6937 34.4383 24.0476C33.9549 23.6328 33.9022 23.8718 33.6116 23.7824C33.0447 23.6053 32.7075 22.6025 32.6693 22.462C32.6692 22.4582 33.0969 22.8026 32.9601 22.5239C32.9905 22.2473 32.6743 22.4655 32.6693 22.462C32.6478 22.3886 32.185 21.8954 31.8829 21.6161C31.7961 21.5356 31.724 21.4739 31.6817 21.4461C31.5791 21.379 31.4943 21.5674 31.4434 21.5297C30.2428 20.6383 29.1168 19.6573 28.0707 18.5707C28.054 18.55 28.2311 18.4161 28.1899 18.3693C27.6079 17.7024 27.0216 17.5289 26.3783 17.1582C25.7356 16.7883 25.3563 16.3745 25.2852 15.806C24.8486 15.4763 24.3822 14.8364 24.1108 14.4602C23.8427 14.0867 23.5148 14.3645 23.4798 14.3446C22.3788 13.7276 22.004 13.0737 21.0728 12.2126C20.6214 11.7943 19.672 11.0566 19.1462 10.6692C18.7303 10.3632 18.5481 10.0776 18.1486 9.82303C18.0945 9.78842 18.0214 9.97447 18.0018 9.9675C17.4505 9.79822 17.942 9.60777 17.9112 9.47363C17.7936 8.9817 17.7191 8.70945 17.0969 8.37482C16.9527 8.29665 16.1766 8.51821 15.9353 8.36976C15.6119 8.1671 15.8729 8.0726 15.5348 7.86986C15.5063 7.85264 15.4175 7.9702 15.2383 7.8152C14.3897 7.08471 13.4996 6.26007 12.5828 5.56624C12.4563 5.46986 12.4733 5.77882 12.2895 5.64384C11.4349 5.01704 10.5103 4.3113 9.76419 3.66324C9.58606 3.50719 9.7989 3.455 9.78315 3.38526C9.66828 2.94902 9.06126 3.06785 9.008 3.04592C8.78859 2.94412 8.5782 2.84526 8.47313 2.80508C8.4333 2.78338 8.3376 2.77725 8.6136 2.84188C8.64989 2.84877 8.69346 2.85574 8.7468 2.86128C8.81963 2.86882 8.93799 2.87628 9.08418 2.86386C9.37654 2.81778 9.84086 2.8102 10.4431 2.1462C10.6973 1.84213 10.8298 1.48145 10.8739 1.2104C10.9142 0.942579 10.9023 0.870452 10.8964 0.742162C10.8776 0.516719 10.8352 0.391552 10.8072 0.309435C11.1847 1.48051 11.4224 2.60916 12.0253 3.87148C12.0721 3.9683 12.7856 4.57897 12.5454 5.05858C12.5298 5.09157 12.2797 5.5717 12.6496 5.77645C12.6727 5.78908 12.787 5.50437 12.9059 5.88231C13.0241 6.25823 13.3775 6.80581 13.3569 7.39543C13.3501 7.58043 13.1193 8.1041 13.6004 8.47381C13.6329 8.49687 14.59 8.98702 14.2235 9.42827C14.1629 9.50023 13.6531 9.64243 14.1223 10.1224C14.2131 10.2149 14.2478 9.97249 14.426 10.2384C14.6981 10.6416 14.7883 11.287 15.2116 11.7562C15.2864 11.8388 15.7734 12.1261 15.6383 12.5506C15.6169 12.6165 15.4161 12.5791 15.4602 12.7588C15.6724 13.6234 16.0937 14.4638 16.2632 15.3716C16.3242 15.6967 16.0018 15.6248 16.0317 15.9684C16.0628 16.3142 16.1907 16.9901 16.4107 17.303C16.633 17.6242 16.966 17.1099 17.1441 17.646C17.2126 17.856 17.2777 18.0797 17.3337 18.2978C17.8724 20.3903 17.9227 22.4695 18.1573 24.4807C18.1952 24.8084 18.32 24.5162 18.3872 24.9971C18.6282 26.7817 19.215 29.7099 19.2129 31.2017C19.206 32.4129 18.6669 31.0099 18.7629 31.9194C18.8131 32.364 19.4449 32.6824 19.4882 32.7757C19.9198 33.6991 19.9161 34.4241 20.3109 35.2213C20.3931 35.3841 20.5239 35.1389 20.5916 35.2765C20.8237 35.7419 20.9672 36.2726 21.2121 36.6958C21.3227 36.8845 21.4468 36.7707 21.5323 36.9495C21.7412 37.3754 21.9036 37.7608 22.0449 38.226C22.0586 38.2693 21.7252 38.1508 21.9261 38.4459C22.2494 38.9177 22.6006 39.5764 23.1798 39.9328C23.2365 39.9677 23.304 39.9624 23.3726 39.9565C23.4064 39.9162 23.4381 39.8688 23.3992 39.8147C23.3441 39.7734 23.2865 39.6426 22.6593 39.6287C22.4616 39.6424 22.4778 39.7679 22.302 39.8572C22.2168 39.905 22.0695 39.9549 21.8909 40.0322C21.7111 40.1073 21.5424 40.2076 21.4195 40.2109C21.3718 40.2196 21.2467 40.2064 21.2298 40.0229C21.2063 39.851 21.2463 39.5643 21.4134 39.3673C21.4478 39.3253 21.4871 39.288 21.5318 39.257C21.6593 39.1712 22.1344 38.9717 22.1948 38.6849C22.2009 38.6471 21.9579 38.7054 22.0293 38.489C22.3054 37.6837 22.6942 36.909 22.9879 36.1537C23.0702 35.9435 22.737 36.1565 22.867 35.844C23.2156 35.0028 23.7599 34.0287 24.2224 33.2553C24.3884 32.9799 24.4421 33.2551 24.4695 33.2423C24.9073 33.0496 24.6424 32.6642 24.6779 32.5412C24.9121 31.7622 25.3399 31.3482 25.629 30.6706C25.7087 30.4848 25.4693 30.5231 25.4721 30.4794C25.5043 30.0421 25.68 30.4702 25.8311 30.2602C26.2561 29.6707 26.6143 28.9379 26.924 28.2793C27.0385 28.0352 26.6983 28.2013 26.8036 27.9832C27.4196 26.6962 28.1136 25.3888 28.8537 24.2072C28.9932 23.9853 29.0747 24.2108 29.135 24.1803C29.5539 23.972 29.4622 23.309 29.4867 23.1799C29.5981 22.5914 29.8364 22.4613 30.0376 21.9955C31.0183 19.7205 32.4503 17.0188 33.4547 14.9429C34.6978 12.3357 35.9891 9.85738 36.1948 7.88453C36.1941 7.81186 35.9604 7.87083 35.9555 7.83006C35.9564 7.7869 35.9114 7.83756 36.0458 8.15046C36.1213 8.32028 36.3174 8.60171 36.6008 8.78941C36.8777 8.97846 37.1703 9.05216 37.3699 9.06779C37.7348 9.08381 37.7382 9.0291 37.7046 9.05094C37.6692 9.0631 37.5721 9.10387 37.4349 9.17945C37.5034 9.13432 37.1195 9.39575 36.9355 9.53222C36.6655 9.72885 36.4878 9.86062 36.2176 10.0646C35.7677 10.4048 35.286 10.7813 34.8094 11.1734C34.6839 11.2765 35.0047 11.3075 34.8062 11.4802C34.3832 11.8488 33.8339 12.2596 33.3281 12.5642C33.0921 12.7049 33.2607 12.334 33.0303 12.475C32.492 12.8044 31.9244 13.228 31.4288 13.6613C31.2133 13.85 31.6925 13.7608 31.4007 13.9928C29.4478 15.5528 27.5548 17.0994 25.3925 18.4452C25.2449 18.5369 24.8344 18.278 24.6049 18.5729C24.6626 18.6895 24.7569 18.8056 24.8321 18.9194C22.0335 21.2402 19.1217 23.3708 16.2681 25.6451C16.1478 25.7411 16.5072 25.7627 16.2751 25.9495C14.9345 27.0286 13.6744 28.1378 12.1575 29.0638C12.0069 29.1563 11.8057 28.7692 11.4481 29.1446C11.3856 29.2107 10.8231 29.7442 10.7238 29.9454C10.7115 29.9736 10.9477 30.0378 10.7572 30.2013C9.66392 31.1357 8.44012 32.084 7.25856 32.9057C7.06288 33.0419 7.12203 32.7171 6.98163 32.8126C5.99456 33.4851 5.13037 34.4169 4.12916 35.0092C3.48194 35.3858 3.44735 34.9349 2.90523 34.9208C2.82708 34.9201 2.46645 35.216 2.31326 35.0706C1.92385 34.7082 1.71962 34.1222 1.28443 33.753C1.18908 33.6746 0.808285 34.1713 0.893598 33.7131C0.899084 33.6825 1.17933 33.3161 1.20276 33.1659C1.21855 33.0623 0.971417 32.9918 1.03778 32.82C1.10262 32.6497 1.36395 32.663 1.49571 32.4163C1.62748 32.168 1.37993 32.0585 1.76768 31.6943ZM22.8966 12.7847C22.7228 12.3601 22.1826 12.8808 22.6353 13.0406C22.6577 13.0476 22.9059 12.8063 22.8966 12.7847ZM23.0613 27.5965C23.563 28.0004 24.0095 27.5828 23.6608 27.2702C23.3089 26.9589 22.905 27.474 23.0613 27.5965ZM17.2268 27.7579C17.9078 27.886 17.8014 26.8259 17.165 27.1727C17.1283 27.1924 17.1874 27.7505 17.2268 27.7579ZM4.27014 33.6354C4.26333 33.6281 3.99097 33.8441 3.99178 33.8563C4.00497 34.1554 4.54158 33.7299 4.27014 33.6354ZM11.7819 29.16C12.0058 29.2584 12.5323 28.9764 12.254 28.8536C12.0295 28.7547 11.5028 29.0377 11.7819 29.16ZM9.91928 3.74242C9.91106 3.7525 9.98456 3.98347 10.0421 3.95723C10.227 3.87238 10.0579 3.57539 9.91928 3.74242ZM2.59671 30.4191C3.84752 30.8468 4.73657 31.7731 3.09296 31.4039C2.81272 31.3237 3.76964 31.2633 3.42149 31.1096C2.81505 30.8347 2.235 31.2138 1.69627 30.7258C1.60006 30.6374 2.52589 30.3961 2.59942 30.4186C2.59852 30.4188 2.59762 30.4189 2.59671 30.4191ZM23.3115 11.9536C23.3119 11.9408 23.0632 11.7101 23.0509 11.7124C22.7567 11.77 23.2567 12.2341 23.3115 11.9536ZM14.2996 17.1468C14.287 17.1708 14.48 17.9085 14.504 17.9321C14.9907 18.2193 14.5956 16.6973 14.2996 17.1468ZM39.9858 27.1965C40.4083 27.3169 40.718 27.6353 40.6792 28.0543C40.4534 27.7624 40.2174 27.4842 39.9858 27.1965Z" fill="white"/>
</svg>
